<svg width="1440" height="900" viewBox="0 0 1440 900" fill="none" xmlns="http://www.w3.org/2000/svg">
<path d="M-4.56708 742.702C21.4538 726.41 99.1145 710.663 201.59 778.005C304.067 845.347 359.576 791.75 379.557 757.632C422.849 683.711 493.609 543.541 553.981 536.775C627.266 528.563 699.253 598.545 748.5 615C811.665 636.106 871.265 557.042 895.145 520.486C918 485.5 995.242 418.184 1051.5 442.5C1106.58 466.305 1169.03 528.788 1211.5 510.5C1253.97 492.212 1304 398 1357.5 414C1395 425.215 1423.04 447.552 1435.5 442.5C1454 435 1461 420.667 1466.5 414" stroke="#1D34A8" stroke-width="2"/>
<path d="M60.5446 685.986C88.3354 743.263 161.097 852.838 229.818 832.927C298.539 813.015 316.936 749.79 327.95 722.405C346.095 677.292 392.732 602.913 510.322 652.794C627.912 702.675 722.85 611.374 755.62 559.488C779.145 524.996 843.23 470.8 911.368 529.945C979.506 589.091 1048.08 541.415 1069.05 506.276C1102.23 450.683 1115 369.547 1190.1 400.581C1221.9 413.72 1292.5 420.5 1320.5 342.5C1348.5 264.5 1421.83 239.333 1455 236.5" stroke="#3CB9EE" stroke-width="2"/>
<circle cx="54.2146" cy="671.669" r="25" transform="rotate(9.61543 54.2146 671.669)" fill="#1D34A8"/>
<circle cx="375" cy="763" r="12" fill="#A0DFFF"/>
<circle cx="713" cy="543" r="13" fill="#1D34A8"/>
<circle cx="1440" cy="683" r="26" fill="#004FA8"/>
<circle cx="1414" cy="442" r="12" fill="#A0DFFF"/>
</svg>
