<svg width="90" height="45" viewBox="0 0 90 45" fill="none" xmlns="http://www.w3.org/2000/svg">
<g clip-path="url(#clip0)">
<path d="M27.6 0H16.9715C14.1311 0 11.8286 2.30069 11.8286 5.13872V13.8746C11.8286 16.7126 14.1311 19.0133 16.9715 19.0133H27.6C30.4404 19.0133 32.7429 16.7126 32.7429 13.8746V5.13872C32.7429 2.30069 30.4404 0 27.6 0Z" fill="#A0DFFF"/>
<path d="M27.6 25.0085H16.9715C14.1311 25.0085 11.8286 27.3091 11.8286 30.1472V38.883C11.8286 41.7211 14.1311 44.0217 16.9715 44.0217H27.6C30.4404 44.0217 32.7429 41.7211 32.7429 38.883V30.1472C32.7429 27.3091 30.4404 25.0085 27.6 25.0085Z" fill="#171E54"/>
<path d="M15.7714 11.3052H5.14286C2.30254 11.3052 0 13.6059 0 16.4439V27.2352C0 30.0733 2.30254 32.3739 5.14286 32.3739H15.7714C18.6118 32.3739 20.9143 30.0733 20.9143 27.2352V16.4439C20.9143 13.6059 18.6118 11.3052 15.7714 11.3052Z" fill="#171E54"/>
<path d="M39.2573 11.3052H28.6287C25.7884 11.3052 23.4858 13.6059 23.4858 16.4439V27.2352C23.4858 30.0733 25.7884 32.3739 28.6287 32.3739H39.2573C42.0976 32.3739 44.4001 30.0733 44.4001 27.2352V16.4439C44.4001 13.6059 42.0976 11.3052 39.2573 11.3052Z" fill="#A0DFFF"/>
<path d="M6.6001 20.5549V23.2955C6.6001 24.2416 7.36761 25.0085 8.31438 25.0085L36.0858 25.0085C37.0326 25.0085 37.8001 24.2416 37.8001 23.2955V20.5549C37.8001 19.6089 37.0326 18.842 36.0858 18.842H8.31438C7.36761 18.842 6.6001 19.6089 6.6001 20.5549Z" fill="white"/>
<path d="M23.6573 6.33777H20.9145C19.9677 6.33777 19.2002 7.10466 19.2002 8.05068V35.7998C19.2002 36.7458 19.9677 37.5127 20.9145 37.5127H23.6573C24.6041 37.5127 25.3716 36.7458 25.3716 35.7998V8.05068C25.3716 7.10466 24.6041 6.33777 23.6573 6.33777Z" fill="white"/>
<path d="M11.8286 11.3052H19.2V17.1291C19.2 18.0751 18.4326 18.842 17.4858 18.842H11.8286V11.3052Z" fill="#1D34A8"/>
<path d="M32.743 32.374H25.3716V26.5501C25.3716 25.604 26.1391 24.8372 27.0859 24.8372H32.743V32.374Z" fill="#3CB9EE"/>
<path d="M60.2949 19.3559L60.2675 9.76359H58.032L54.7406 15.2997L51.3669 9.76359H49.1315V19.3559H51.6412V14.409L54.096 18.4103H55.3029L57.7715 14.272L57.7989 19.3559H60.2949ZM69.6906 15.656C69.6906 13.2031 67.9077 11.8054 65.7134 11.8054C63.3683 11.8054 61.6266 13.395 61.6266 15.6286C61.6266 17.8485 63.3408 19.4792 65.9877 19.4792C67.4003 19.4792 68.4426 19.0681 69.1557 18.2733L67.7843 16.8482C67.2768 17.2867 66.7968 17.4922 66.07 17.4922C65.11 17.4922 64.4654 17.0537 64.246 16.3H69.6494C69.6631 16.0945 69.6906 15.8478 69.6906 15.656ZM65.7271 13.6553C66.5363 13.6553 67.1123 14.1486 67.2494 14.9297H64.2048C64.3557 14.1486 64.918 13.6553 65.7271 13.6553ZM76.1856 9.18805V12.5728C75.6919 12.052 74.9925 11.8054 74.1285 11.8054C72.0988 11.8054 70.4668 13.2716 70.4668 15.6286C70.4668 17.9992 72.0988 19.4792 74.1285 19.4792C75.0885 19.4792 75.8154 19.2051 76.3091 18.6159V19.3559H78.7914V9.18805H76.1856ZM74.6771 17.41C73.7856 17.41 73.1136 16.766 73.1136 15.6286C73.1136 14.5049 73.7856 13.8746 74.6771 13.8746C75.5548 13.8746 76.2268 14.5049 76.2268 15.6286C76.2268 16.766 75.5548 17.41 74.6771 17.41ZM52.5052 34.9639C55.3578 34.9639 56.7566 33.5387 56.7566 31.867C56.7566 28.3315 51.312 29.4278 51.312 27.9615C51.312 27.4819 51.7235 27.0982 52.8618 27.0982C53.6983 27.0982 54.6035 27.3449 55.5223 27.8382L56.3589 25.8238C55.4126 25.2757 54.1235 24.9879 52.8755 24.9879C50.0229 24.9879 48.624 26.3856 48.624 28.0986C48.624 31.6614 54.0823 30.5514 54.0823 32.0725C54.0823 32.5384 53.6435 32.8536 52.5189 32.8536C51.408 32.8536 50.2012 32.4699 49.3509 31.9081L48.4595 33.9087C49.3646 34.5391 50.928 34.9639 52.5052 34.9639ZM62.7287 27.2215C61.851 27.2215 61.0692 27.4956 60.4932 28.03V24.6042H57.8875V34.772H60.4932V31.1818C60.4932 29.9485 61.1378 29.4278 61.9744 29.4278C62.7287 29.4278 63.195 29.88 63.195 30.9488V34.772H65.8007V30.524C65.8007 28.2219 64.4704 27.2215 62.7287 27.2215ZM70.6046 27.2215C69.4389 27.2215 68.1772 27.523 67.3269 28.0849L68.2046 29.8526C68.712 29.4552 69.5075 29.2085 70.2206 29.2085C71.2492 29.2085 71.7566 29.6333 71.7978 30.387H70.3166C68.0126 30.387 67.0115 31.2366 67.0115 32.6069C67.0115 33.895 67.9989 34.8954 69.7818 34.8954C70.8652 34.8954 71.6058 34.5254 71.976 33.8128V34.772H74.4035V30.6474C74.4035 28.2904 73.0183 27.2215 70.6046 27.2215ZM70.5086 33.251C69.8915 33.251 69.5349 32.9358 69.5349 32.4973C69.5349 32.0451 69.8366 31.7436 70.6732 31.7436H71.7978V32.3877C71.592 32.9769 71.0846 33.251 70.5086 33.251ZM78.5304 28.2356V27.3449H76.0482V34.772H78.6539V31.3599C78.6539 30.0581 79.3807 29.5237 80.4367 29.5237C80.6287 29.5237 80.7933 29.5374 81.0264 29.5648V27.2215C79.9293 27.2215 79.0653 27.5641 78.5304 28.2356ZM89.6325 31.0722C89.6325 28.6193 87.8496 27.2215 85.6554 27.2215C83.3102 27.2215 81.5685 28.8111 81.5685 31.0448C81.5685 33.2647 83.2828 34.8954 85.9296 34.8954C87.3422 34.8954 88.3845 34.4843 89.0976 33.6895L87.7262 32.2643C87.2188 32.7029 86.7388 32.9084 86.0119 32.9084C85.0519 32.9084 84.4074 32.4699 84.1879 31.7162H89.5914C89.6051 31.5107 89.6325 31.264 89.6325 31.0722ZM85.6691 29.0715C86.4782 29.0715 87.0542 29.5648 87.1914 30.3459H84.1468C84.2976 29.5648 84.8599 29.0715 85.6691 29.0715Z" fill="white"/>
</g>
<defs>
<clipPath id="clip0">
<rect width="90" height="44.0217" fill="white"/>
</clipPath>
</defs>
</svg>
