<svg width="737" height="718" viewBox="0 0 737 718" fill="none" xmlns="http://www.w3.org/2000/svg">
<path fill-rule="evenodd" clip-rule="evenodd" d="M667 281.508C696.084 375.71 694.364 484.443 631.488 560.379C569.753 634.937 464.789 644.249 368.004 642.61C274.309 641.023 175.314 624.819 116.754 551.662C58.2437 478.569 58.9898 377.252 83.1891 286.806C106.064 201.309 160.267 126.921 240.43 89.4137C319.262 52.5305 409.121 61.4438 488.479 97.1804C570.534 134.132 640.452 195.522 667 281.508Z" fill="#0A75ED" fill-opacity="0.29"/>
<path d="M551.085 440.048C560.042 440.048 568.798 437.392 576.245 432.416C583.693 427.44 589.497 420.367 592.925 412.091C596.353 403.816 597.25 394.71 595.502 385.925C593.755 377.14 589.442 369.071 583.108 362.737C576.774 356.403 568.705 352.09 559.92 350.343C551.135 348.595 542.029 349.492 533.754 352.92C525.478 356.347 518.405 362.152 513.429 369.6C508.453 377.047 505.797 385.803 505.797 394.76C505.797 406.772 510.568 418.291 519.061 426.784C527.554 435.277 539.073 440.048 551.085 440.048ZM551.085 351.578C559.635 351.575 567.995 354.109 575.106 358.858C582.217 363.606 587.76 370.357 591.034 378.257C594.308 386.156 595.166 394.849 593.499 403.236C591.833 411.623 587.716 419.327 581.671 425.374C575.625 431.422 567.922 435.54 559.535 437.209C551.149 438.879 542.456 438.023 534.556 434.751C526.655 431.48 519.903 425.939 515.152 418.829C510.401 411.719 507.865 403.36 507.865 394.809C507.878 383.35 512.435 372.363 520.537 364.259C528.639 356.154 539.625 351.594 551.085 351.578Z" fill="#EBEBEB"/>
<path d="M553.361 446.45C554.047 446.45 554.732 446.376 555.417 446.328L555.246 444.32C554.597 444.32 553.936 444.418 553.275 444.443L553.361 446.45ZM546.164 446.266L546.36 444.271C545.699 444.21 545.05 444.124 544.389 444.039L544.12 446.034C544.793 446.132 545.466 446.205 546.164 446.266ZM562.541 445.226C563.214 445.079 563.875 444.908 564.548 444.736L564.022 442.79C563.386 442.962 562.737 443.121 562.1 443.268L562.541 445.226ZM537.045 444.577L537.596 442.631C536.96 442.46 536.372 442.264 535.699 442.056L535.075 443.977L537.045 444.577ZM571.317 442.374C571.954 442.105 572.541 441.823 573.202 441.529L572.345 439.706C571.746 439.999 571.121 440.269 570.534 440.526L571.317 442.374ZM528.367 441.272L529.248 439.461C528.649 439.167 528.024 438.873 527.486 438.555L526.531 440.33C527.168 440.648 527.78 440.966 528.404 441.272H528.367ZM579.481 437.992C580.057 437.613 580.632 437.221 581.183 436.768L579.959 435.128C579.432 435.52 578.882 435.899 578.331 436.254L579.481 437.992ZM520.448 436.474L521.672 434.846L520.105 433.622L518.881 435.189C519.432 435.642 519.934 436.07 520.484 436.474H520.448ZM586.752 432.215C587.254 431.737 587.743 431.26 588.221 430.758L586.752 429.363C586.287 429.84 585.822 430.305 585.344 430.758L586.752 432.215ZM513.532 430.342L514.989 428.959C514.536 428.482 514.095 427.992 513.655 427.49L512.149 428.812C512.614 429.338 513.067 429.84 513.544 430.342H513.532ZM592.872 425.25C593.276 424.699 593.667 424.136 594.096 423.561L592.419 422.447C592.052 422.986 591.672 423.537 591.281 424.063L592.872 425.25ZM507.804 423.096L509.481 421.994C509.126 421.444 508.771 420.881 508.428 420.318L506.702 421.346C507.057 421.872 507.424 422.496 507.804 423.096ZM597.633 417.343C597.939 416.719 598.221 416.119 598.502 415.47L596.654 414.663C596.385 415.275 596.115 415.887 595.834 416.462L597.633 417.343ZM503.385 414.895L505.233 414.112C504.976 413.5 504.732 412.888 504.499 412.264L502.614 412.974C502.92 413.622 503.177 414.259 503.446 414.895H503.385ZM600.852 408.653C601.036 407.992 601.195 407.331 601.354 406.658L599.396 406.193C599.249 406.841 599.09 407.478 598.906 408.114L600.852 408.653ZM500.57 406.058L502.528 405.617C502.382 404.981 502.259 404.332 502.137 403.683L500.154 404.038C500.337 404.736 500.472 405.385 500.631 406.058H500.57ZM602.505 399.546C602.57 398.861 602.619 398.175 602.652 397.49L600.705 397.392C600.705 398.053 600.656 398.714 600.559 399.375L602.505 399.546ZM499.383 396.866L501.39 396.792C501.39 396.131 501.39 395.47 501.39 394.809V394.601H499.37V394.797C499.395 395.507 499.407 396.168 499.444 396.866H499.383ZM600.583 390.452L602.59 390.281C602.59 389.595 602.456 388.91 602.37 388.236L600.375 388.481C600.448 389.142 600.522 389.791 600.583 390.452ZM501.916 387.698C502.014 387.049 502.112 386.388 502.235 385.752L500.252 385.385C500.129 386.058 500.019 386.731 499.921 387.416L501.916 387.698ZM598.992 381.688L600.938 381.162C600.75 380.501 600.554 379.84 600.35 379.179L598.429 379.791C598.661 380.415 598.845 381.052 598.992 381.688ZM503.96 379.032C504.181 378.396 504.401 377.808 504.634 377.159L502.749 376.449C502.504 377.086 502.271 377.735 502.051 378.383L503.96 379.032ZM595.907 373.34L597.768 372.484C597.474 371.859 597.168 371.26 596.838 370.635L595.063 371.578C595.32 372.165 595.626 372.753 595.907 373.353V373.34ZM507.535 370.892C507.853 370.317 508.183 369.742 508.526 369.179L506.8 368.138C506.445 368.726 506.102 369.362 505.772 369.925L507.535 370.892ZM591.354 365.703L592.982 364.479C592.578 363.928 592.162 363.377 591.758 362.839L590.179 364.063C590.558 364.638 590.962 365.164 591.354 365.703ZM512.504 363.512C512.92 362.998 513.328 362.496 513.728 362.006L512.21 360.672C511.757 361.186 511.317 361.712 510.888 362.239L512.504 363.512ZM585.528 358.983L586.923 357.526C586.421 357.049 585.92 356.584 585.405 356.131L584.071 357.637C584.536 358.077 585.026 358.518 585.528 358.983ZM518.734 357.135C519.236 356.694 519.75 356.278 520.264 355.911L519.04 354.332C518.502 354.76 517.975 355.189 517.449 355.641L518.734 357.135ZM578.588 353.463L579.702 351.786L577.964 350.672L576.911 352.398C577.449 352.692 578.012 353.047 578.563 353.414L578.588 353.463ZM525.956 351.994L527.682 351.027L526.739 349.252C526.127 349.583 525.515 349.913 524.94 350.268L525.956 351.994ZM570.742 349.166L571.538 347.318C570.913 347.049 570.314 346.792 569.64 346.547L568.906 348.42C569.53 348.665 570.142 348.909 570.742 349.166ZM534.022 348.151C534.646 347.918 535.246 347.71 535.907 347.502L535.283 345.58C534.634 345.8 533.973 346.021 533.336 346.253L534.022 348.151ZM562.272 346.4L562.725 344.442C562.064 344.283 561.391 344.148 560.705 344.013L560.338 345.996C561.048 346.119 561.648 346.253 562.272 346.4ZM542.602 345.849C543.251 345.739 543.9 345.641 544.561 345.556L544.304 343.561C543.618 343.646 542.933 343.756 542.259 343.867L542.602 345.849ZM553.459 345.188L553.557 343.181C552.872 343.181 552.186 343.181 551.488 343.12V345.139C552.149 345.139 552.81 345.152 553.471 345.188H553.459Z" fill="#EBEBEB"/>
<path d="M558.025 422.79H544.083V401.762H523.055V387.82H544.083V366.792H558.025V387.82H579.053V401.762H558.025V422.79Z" fill="#EBEBEB"/>
<path d="M170.8 209.373C178.345 219.462 187.971 227.81 199.025 233.853C210.054 227.803 219.655 219.455 227.177 209.373C237.116 196.228 236.627 175.64 222.416 171.185C206.7 166.289 198.976 189.924 198.976 189.924C198.976 189.924 191.143 166.117 175.525 171.185C161.412 175.848 160.873 196.228 170.8 209.373Z" fill="#EBEBEB"/>
<path d="M210.103 223.462L214.387 205.628L217.189 211.919H234.485V209.9H218.487L213.823 199.386L210.482 213.29L205.757 184.477L201.584 207.268L198.291 197.758L193.101 213.339L191.951 209.9H163.529V211.907H190.494L193.101 219.692L198.328 204.012L202.196 215.175L205.647 196.264L210.103 223.462Z" fill="white"/>
<path d="M198.976 242.311C207.933 242.311 216.689 239.655 224.137 234.679C231.585 229.702 237.389 222.629 240.817 214.354C244.245 206.079 245.142 196.973 243.394 188.188C241.647 179.403 237.333 171.333 231 165C224.666 158.666 216.597 154.353 207.812 152.605C199.027 150.858 189.921 151.755 181.645 155.183C173.37 158.61 166.297 164.415 161.321 171.863C156.344 179.31 153.688 188.066 153.688 197.023C153.688 209.034 158.46 220.554 166.953 229.047C175.446 237.54 186.965 242.311 198.976 242.311ZM198.976 153.84C207.527 153.84 215.885 156.376 222.995 161.126C230.104 165.877 235.645 172.629 238.917 180.528C242.189 188.428 243.045 197.12 241.377 205.506C239.709 213.892 235.592 221.596 229.546 227.642C223.5 233.688 215.797 237.805 207.41 239.473C199.024 241.141 190.332 240.285 182.432 237.013C174.533 233.741 167.781 228.2 163.031 221.09C158.28 213.981 155.745 205.623 155.745 197.072C155.748 185.605 160.303 174.608 168.409 166.498C176.515 158.387 187.509 153.826 198.976 153.816V153.84Z" fill="#EBEBEB"/>
<path d="M201.192 248.713C201.877 248.713 202.563 248.639 203.248 248.578L203.077 246.571C202.428 246.632 201.767 246.669 201.094 246.705L201.192 248.713ZM193.983 248.529L194.178 246.522C193.517 246.461 192.857 246.387 192.208 246.301L191.939 248.297C192.624 248.382 193.358 248.468 194.044 248.529H193.983ZM210.372 247.489C211.045 247.342 211.706 247.17 212.367 246.999L211.853 245.053C211.217 245.224 210.568 245.383 209.919 245.53L210.372 247.489ZM184.876 246.828L185.427 244.894C184.79 244.71 184.203 244.527 183.53 244.319L182.905 246.24C183.615 246.448 184.276 246.644 184.937 246.84L184.876 246.828ZM219.148 244.637C219.785 244.368 220.372 244.086 221.033 243.792L220.176 241.968L218.365 242.789L219.148 244.637ZM176.186 243.523L177.067 241.711C176.479 241.43 175.843 241.124 175.317 240.818L174.362 242.58C175.06 242.911 175.672 243.229 176.284 243.523H176.186ZM227.312 240.243C227.887 239.863 228.45 239.472 229.013 239.019L227.789 237.378C227.251 237.77 226.712 238.137 226.162 238.505L227.312 240.243ZM168.279 238.725L169.503 237.109C168.964 236.718 168.45 236.314 167.936 235.885L166.712 237.464C167.275 237.905 167.813 238.272 168.377 238.725H168.279ZM234.558 234.478C235.06 234 235.55 233.511 236.027 233.021L234.57 231.626C234.113 232.091 233.648 232.556 233.175 233.021L234.558 234.478ZM161.339 232.605L162.795 231.21C162.342 230.732 161.902 230.243 161.461 229.753L159.943 231.075C160.494 231.589 160.959 232.152 161.436 232.605H161.339ZM240.666 227.513C241.07 226.95 241.462 226.399 241.89 225.824L240.225 224.698C239.858 225.249 239.479 225.787 239.087 226.326L240.666 227.513ZM155.586 225.334L157.275 224.233C156.92 223.67 156.565 223.119 156.222 222.544L154.496 223.584C154.949 224.172 155.316 224.808 155.684 225.334H155.586ZM245.427 219.569C245.733 218.957 246.015 218.345 246.284 217.709L244.448 216.901C244.179 217.501 243.91 218.125 243.616 218.7L245.427 219.569ZM151.179 217.121L153.028 216.338C152.77 215.738 152.526 215.114 152.293 214.502L150.408 215.212C150.812 215.873 151.008 216.522 151.338 217.146L151.179 217.121ZM248.634 210.891C248.818 210.23 248.989 209.557 249.148 208.896L247.19 208.431C247.043 209.08 246.872 209.716 246.7 210.353L248.634 210.891ZM148.56 208.321L150.531 207.88C150.384 207.231 150.249 206.583 150.139 205.934L148.156 206.289C148.229 206.974 148.364 207.672 148.56 208.321ZM250.507 201.797C250.572 201.12 250.621 200.434 250.654 199.74L248.646 199.643C248.646 200.304 248.561 200.964 248.5 201.613L250.507 201.797ZM147.336 199.104L149.356 199.031C149.356 198.37 149.356 197.709 149.356 197.048V196.84H147.336V197.035C147.336 197.758 147.336 198.443 147.336 199.104ZM248.487 192.69L250.482 192.519C250.482 191.833 250.36 191.148 250.274 190.463L248.267 190.72C248.34 191.393 248.414 192.054 248.475 192.715L248.487 192.69ZM149.784 189.961C149.87 189.3 149.98 188.651 150.102 188.002L148.119 187.635C147.997 188.308 147.887 188.994 147.789 189.667L149.784 189.961ZM246.884 183.951L248.83 183.425C248.646 182.751 248.451 182.103 248.243 181.442L246.321 182.054C246.48 182.678 246.737 183.314 246.908 183.951H246.884ZM151.828 181.295C152.036 180.671 152.269 180.071 152.501 179.434L150.616 178.712C150.371 179.365 150.139 180.014 149.919 180.658L151.828 181.295ZM243.775 175.603L245.586 174.734C245.293 174.11 244.974 173.51 244.656 172.898L242.881 173.841C243.212 174.416 243.506 175.016 243.799 175.603H243.775ZM155.402 173.155C155.72 172.568 156.051 172.005 156.394 171.442L154.668 170.401C154.313 170.976 153.97 171.625 153.64 172.176L155.402 173.155ZM239.209 167.953L240.85 166.729C240.442 166.166 240.034 165.615 239.626 165.077L238.047 166.301C238.451 166.888 238.854 167.427 239.234 167.953H239.209ZM160.372 165.774C160.788 165.26 161.216 164.759 161.657 164.257L160.139 162.935C159.686 163.449 159.245 163.963 158.817 164.502L160.372 165.774ZM233.371 161.233L234.766 159.789C234.264 159.312 233.763 158.847 233.249 158.394L231.939 159.936C232.428 160.34 232.918 160.781 233.395 161.233H233.371ZM166.577 159.385C167.079 158.957 167.593 158.541 168.107 158.161L166.883 156.582C166.345 157.011 165.818 157.451 165.292 157.904L166.577 159.385ZM226.419 155.713L227.545 154.049C226.969 153.657 226.394 153.29 225.807 152.935L224.754 154.661C225.341 154.954 225.905 155.309 226.443 155.664L226.419 155.713ZM173.787 154.257C174.35 153.926 174.925 153.596 175.512 153.29L174.57 151.515C173.958 151.833 173.346 152.176 172.771 152.519L173.787 154.257ZM218.573 151.478L219.368 149.63C218.748 149.361 218.112 149.104 217.459 148.859L216.737 150.732C217.422 150.915 218.022 151.172 218.634 151.429L218.573 151.478ZM181.853 150.45C182.477 150.23 183.077 150.009 183.725 149.814L183.113 147.892C182.453 148.1 181.804 148.32 181.155 148.565L181.853 150.45ZM210.127 148.712L210.58 146.741C209.919 146.594 209.246 146.448 208.56 146.325L208.193 148.296C208.891 148.369 209.54 148.516 210.176 148.663L210.127 148.712ZM190.457 148.161C191.106 148.051 191.755 147.953 192.416 147.867L192.159 145.872C191.473 145.958 190.788 146.056 190.115 146.178L190.457 148.161ZM201.314 147.5L201.4 145.481C200.727 145.481 200.041 145.481 199.344 145.481V147.488C200.041 147.402 200.702 147.414 201.363 147.451L201.314 147.5Z" fill="#EBEBEB"/>
<path d="M500.567 190.69C492.234 160.352 510.071 129.004 540.408 120.67C570.745 112.337 602.094 130.174 610.428 160.511C618.761 190.849 600.924 222.197 570.586 230.531C540.249 238.864 508.901 221.027 500.567 190.69Z" fill="#EBEBEB"/>
<path d="M532.365 227.218C504.565 215.885 491.217 184.161 502.55 156.362C513.884 128.562 545.607 115.214 573.407 126.547C601.206 137.881 614.555 169.604 603.221 197.404C591.888 225.203 560.164 238.552 532.365 227.218Z" fill="#DBDBDB"/>
<path d="M552.884 227.795C524.762 227.795 501.965 204.998 501.965 176.876C501.965 148.755 524.762 125.958 552.884 125.958C581.005 125.958 603.802 148.755 603.802 176.876C603.802 204.998 581.005 227.795 552.884 227.795Z" fill="white"/>
<path opacity="0.5" d="M503.104 166.056C526.36 180.108 564.414 203.155 585.712 215.787C591.732 210.711 596.495 204.309 599.628 197.084L529.224 131.784C522.632 135.243 516.877 140.104 512.365 146.025C507.852 151.945 504.691 158.783 503.104 166.056Z" fill="#EBEBEB"/>
<path opacity="0.5" d="M501.99 178.651C502.174 184.317 503.312 189.912 505.356 195.199L568.869 225.236C571.638 224.328 574.32 223.177 576.886 221.797C557.706 210.708 522.651 190.536 501.99 178.651Z" fill="#EBEBEB"/>
<path d="M552.394 129.654H553.374V137.378H552.394V129.654Z" fill="#C7C7C7"/>
<path d="M576.071 135.72L576.919 136.21L573.058 142.898L572.21 142.409L576.071 135.72Z" fill="#C7C7C7"/>
<path d="M593.541 152.826L594.031 153.674L587.342 157.536L586.852 156.688L593.541 152.826Z" fill="#C7C7C7"/>
<path d="M592.382 176.387H600.106V177.366H592.382V176.387Z" fill="#C7C7C7"/>
<path d="M587.341 196.201L594.03 200.062L593.54 200.91L586.851 197.049L587.341 196.201Z" fill="#C7C7C7"/>
<path d="M573.059 210.832L576.916 217.524L576.067 218.013L572.21 211.321L573.059 210.832Z" fill="#C7C7C7"/>
<path d="M552.394 216.387H553.374V224.11H552.394V216.387Z" fill="#C7C7C7"/>
<path d="M532.707 210.841L533.555 211.33L529.693 218.019L528.845 217.529L532.707 210.841Z" fill="#C7C7C7"/>
<path d="M517.855 195.541L518.345 196.393L511.626 200.254L511.136 199.402L517.855 195.541Z" fill="#C7C7C7"/>
<path d="M505.65 176.387H513.373V177.366H505.65V176.387Z" fill="#C7C7C7"/>
<path d="M512.22 152.849L518.909 156.71L518.419 157.558L511.731 153.697L512.22 152.849Z" fill="#C7C7C7"/>
<path d="M529.693 135.728L533.552 142.418L532.704 142.907L528.845 136.217L529.693 135.728Z" fill="#C7C7C7"/>
<path d="M552.137 133.143L550.46 180.316L555.295 180.254L553.447 133.13L552.137 133.143Z" fill="#C7C7C7"/>
<path d="M522.761 160.426L554.487 180.683L556.801 176.436L523.385 159.275L522.761 160.426Z" fill="#A6A6A6"/>
<path d="M551.256 176.876C551.256 177.203 551.353 177.522 551.534 177.794C551.716 178.066 551.974 178.278 552.276 178.403C552.578 178.528 552.91 178.561 553.231 178.497C553.551 178.433 553.846 178.276 554.077 178.045C554.308 177.813 554.465 177.519 554.529 177.199C554.593 176.878 554.56 176.546 554.435 176.244C554.31 175.942 554.098 175.684 553.826 175.502C553.555 175.321 553.235 175.224 552.908 175.224C552.47 175.224 552.05 175.398 551.74 175.708C551.43 176.018 551.256 176.438 551.256 176.876Z" fill="#C7C7C7"/>
<path d="M579.91 451.321L595.969 451.652L604.121 451.799C606.85 451.799 609.592 451.799 612.321 451.86H612.86V451.321L612.933 437.625V437.001H612.321L596.116 437.074C590.706 437.074 585.308 437.209 579.91 437.27H579.567V437.6C579.567 439.914 579.677 442.227 579.726 444.516L579.91 451.321ZM579.91 451.321L580.081 444.394C580.081 442.117 580.216 439.865 580.24 437.625L579.91 437.955C585.308 438.017 590.706 438.151 596.116 438.151L612.321 438.237L611.709 437.625V451.321L612.26 450.771C609.592 450.771 606.924 450.771 604.243 450.832L596.189 450.979L579.91 451.321Z" fill="#EBEBEB"/>
<path d="M597.988 468.592L614.047 468.923L622.199 469.069C624.928 469.069 627.67 469.069 630.4 469.131H630.938V468.592L631.012 454.92V454.296H630.4L614.194 454.369C608.796 454.369 603.386 454.504 597.988 454.565H597.645V454.92C597.645 457.233 597.743 459.547 597.805 461.836L597.988 468.592ZM597.988 468.592L598.16 461.664C598.221 459.388 598.294 457.135 598.319 454.896L597.988 455.226C603.386 455.287 608.796 455.422 614.194 455.422L630.4 455.495L629.788 454.896L629.849 468.592L630.4 468.041C627.731 468.041 625.063 468.041 622.383 468.041L614.329 468.188L597.988 468.592Z" fill="#EBEBEB"/>
<path d="M266.553 298.848L282.625 299.19L290.776 299.325C293.494 299.386 296.235 299.325 298.965 299.399H299.504V298.848L299.565 285.151V284.539H298.953L282.747 284.625C277.349 284.625 271.939 284.76 266.541 284.821H266.198V285.151C266.198 287.477 266.296 289.79 266.358 292.079L266.553 298.848ZM266.553 298.848L266.725 291.932C266.725 289.656 266.859 287.391 266.884 285.151L266.553 285.494C271.951 285.494 277.361 285.678 282.759 285.69L298.965 285.763L298.353 285.151L298.426 298.848L298.965 298.309C296.297 298.309 293.628 298.309 290.96 298.309L282.906 298.444L266.553 298.848Z" fill="#EBEBEB"/>
<path d="M284.632 316.118L300.703 316.461L308.904 316.608C311.621 316.608 314.363 316.608 317.092 316.681H317.643V316.131V302.434V301.822H317.031L300.826 301.908C295.428 301.908 290.03 302.042 284.62 302.104H284.289V302.434C284.289 304.76 284.399 307.073 284.448 309.362L284.632 316.118ZM284.632 316.118L284.803 309.203C284.865 306.926 284.95 304.662 284.975 302.422L284.632 302.765C290.042 302.826 295.44 302.948 300.838 302.96L317.044 303.034L316.432 302.422L316.505 316.118L317.044 315.58C314.375 315.58 311.707 315.58 309.039 315.641L300.985 315.776L284.632 316.118Z" fill="#EBEBEB"/>
<path d="M302.649 298.848L318.708 299.19L326.86 299.325C329.59 299.386 332.319 299.325 335.061 299.399H335.599V298.848L335.673 285.151V284.539H335.061L318.855 284.625C313.445 284.625 308.047 284.76 302.649 284.821H302.307V285.151C302.307 287.477 302.417 289.79 302.466 292.079L302.649 298.848ZM302.649 298.848L302.821 291.932C302.821 289.656 302.955 287.391 302.98 285.151L302.649 285.494C308.047 285.494 313.445 285.678 318.855 285.69L335.061 285.763L334.449 285.151L334.51 298.848L335.061 298.309C332.38 298.309 329.724 298.309 327.044 298.309L318.99 298.444L302.649 298.848Z" fill="#EBEBEB"/>
<path d="M119.6 468.592L135.671 468.923L143.823 469.069C146.54 469.069 149.282 469.069 152.012 469.131H152.562V468.592L152.624 454.92V454.296H152.012L135.806 454.369C130.408 454.369 124.998 454.504 119.6 454.565H119.27V454.92C119.27 457.233 119.367 459.547 119.429 461.836L119.6 468.592ZM119.6 468.592L119.771 461.664C119.771 459.388 119.918 457.135 119.93 454.896L119.6 455.226C124.998 455.287 130.408 455.422 135.806 455.422L152.012 455.495L151.4 454.896L151.473 468.592L152.012 468.041C149.343 468.041 146.675 468.041 144.007 468.041L135.953 468.188L119.6 468.592Z" fill="#EBEBEB"/>
<path d="M137.678 133.608L153.75 133.938L161.901 134.085C164.619 134.085 167.36 134.085 170.09 134.146H170.592V133.596V119.899V119.275H169.968L153.762 119.348C148.364 119.348 142.966 119.483 137.556 119.544H137.226V119.874C137.226 122.2 137.336 124.501 137.385 126.79L137.678 133.608ZM137.678 133.608L137.85 126.68C137.911 124.403 137.997 122.151 138.021 119.911L137.678 120.242C143.089 120.242 148.486 120.438 153.884 120.438L170.09 120.523L169.478 119.911L169.551 133.608L170.09 133.057C167.422 133.057 164.766 133.057 162.085 133.13L154.031 133.265L137.678 133.608Z" fill="#EBEBEB"/>
<path d="M119.6 150.878L135.671 151.209L143.823 151.356C146.54 151.356 149.282 151.356 152.012 151.417H152.562V150.878L152.624 137.182V136.558H152.012L135.806 136.631C130.408 136.631 124.998 136.766 119.6 136.827H119.27V137.157C119.27 139.471 119.367 141.784 119.429 144.073L119.6 150.878ZM119.6 150.878L119.771 143.951C119.771 141.674 119.918 139.422 119.93 137.182L119.6 137.512C124.998 137.512 130.408 137.708 135.806 137.708L152.012 137.794L151.4 137.182L151.473 150.878L152.012 150.328C149.343 150.328 146.675 150.328 144.007 150.401L135.953 150.536L119.6 150.878Z" fill="#EBEBEB"/>
<path d="M579.91 133.608L595.969 133.938L604.121 134.085C606.85 134.085 609.592 134.085 612.321 134.146H612.86V133.596L612.933 119.911V119.287H612.321L596.116 119.36C590.706 119.36 585.308 119.495 579.91 119.556H579.567V119.887C579.567 122.212 579.677 124.513 579.726 126.802L579.91 133.608ZM579.91 133.608L580.081 126.68C580.081 124.403 580.216 122.151 580.24 119.911L579.91 120.242C585.308 120.242 590.706 120.438 596.116 120.438L612.321 120.523L611.709 119.911V133.608L612.321 133.008C609.653 133.008 606.985 133.008 604.304 133.081L596.25 133.216L579.91 133.608Z" fill="#EBEBEB"/>
<path d="M375 611.629C241.146 611.629 132.636 599.068 132.636 583.575C132.636 568.081 241.146 555.521 375 555.521C508.854 555.521 617.364 568.081 617.364 583.575C617.364 599.068 508.854 611.629 375 611.629Z" fill="#EBEBEB"/>
<path d="M546.825 320.549H562.272V303.94H578.845V288.542H562.272V271.92H546.874V288.542H530.264V303.94H546.825V320.549ZM560.032 318.358H549.016V301.749H532.406V290.733H549.016V274.111H560.032V290.733H576.654V301.749H560.032V318.358Z" fill="#407BFF"/>
<path d="M173.468 430.342H188.879V413.732H205.488V398.334H188.879V381.713H173.468V398.334H156.859V413.732H173.468V430.342ZM186.675 428.151H175.659V411.541H159.05V400.525H175.659V383.928H186.675V400.55H203.297V411.566H186.675V428.151Z" fill="#407BFF"/>
<path d="M254.387 147.194V162.592H270.997V179.214H286.395V162.592H303.017V147.194H286.395V130.584H270.997V147.194H254.387Z" fill="#407BFF"/>
<path d="M403.017 150.364C399.823 150.266 386.444 146.509 375.379 157.439C364.902 167.782 356.175 202.96 353.103 210.438C350.03 217.917 339.639 217.464 335.832 226.032C332.527 233.462 337.717 237.219 337.399 242.997C337.142 247.489 331.634 253.401 334.62 260.573C337.325 267.097 343.972 266.877 347.57 269.362C351.169 271.846 352.148 281.234 358.966 284.821C365.783 288.407 373.188 282.85 377.007 283.499C380.826 284.148 383.482 296.596 396.114 297.563C408.746 298.53 414.033 288.554 419.517 287.293C425 286.032 437.351 291.7 444.278 286.204C451.206 280.708 453.593 272.287 456.763 269.557C459.933 266.828 465.405 268.211 469.872 261.418C474.34 254.625 468.293 248.896 468.342 242.397C468.342 237.868 472.957 234.429 471.28 227.232C468.966 217.342 457.289 217.513 454.474 207.28C452.271 199.263 450.447 165.664 432.075 154.465C419.345 146.815 403.017 150.364 403.017 150.364Z" fill="#263238"/>
<path d="M353.776 208.627C352.762 210.159 351.388 211.42 349.773 212.299L345.159 215.151C342.039 216.847 339.205 219.024 336.762 221.601C335.625 222.831 334.788 224.308 334.317 225.915C333.845 227.523 333.752 229.217 334.045 230.867C334.437 232.539 335.086 234.141 335.967 235.616C336.99 237.235 337.77 238.996 338.28 240.842C338.451 242.875 337.943 244.907 336.836 246.62C335.991 248.26 335.085 249.802 334.327 251.393C332.797 254.527 331.976 257.991 333.103 261.185C333.597 262.772 334.61 264.147 335.979 265.09C337.443 266.017 339.072 266.653 340.777 266.963C342.515 267.366 344.302 267.599 346.101 267.905C347.935 268.06 349.68 268.764 351.108 269.925C349.585 268.969 347.825 268.46 346.028 268.456C344.229 268.297 342.417 268.223 340.593 267.954C338.721 267.719 336.912 267.121 335.269 266.191C333.582 265.152 332.29 263.58 331.597 261.724C330.043 258.052 331.095 253.866 332.637 250.573C333.396 248.884 334.302 247.281 335.085 245.677C335.968 244.338 336.397 242.75 336.309 241.148C335.697 238.137 332.894 235.028 332.258 231.185C331.923 229.261 332.056 227.284 332.646 225.422C333.236 223.56 334.266 221.867 335.648 220.487C338.321 217.934 341.382 215.823 344.718 214.233L349.614 211.785C351.214 211.046 352.634 209.969 353.776 208.627Z" fill="#263238"/>
<path d="M447.216 175.762C449.737 181.772 450.888 188.223 452.626 194.416C453.507 197.513 454.278 200.646 455.38 203.633C455.874 205.095 456.527 206.499 457.326 207.819C457.488 208.125 457.699 208.402 457.95 208.639C458.173 208.907 458.433 209.142 458.722 209.337C459.334 209.802 459.946 210.23 460.668 210.646C463.467 212.337 466.18 214.167 468.795 216.13C471.561 218.173 473.623 221.026 474.695 224.294C475.194 225.968 475.261 227.74 474.891 229.447C474.442 231.084 473.686 232.621 472.663 233.976C470.717 236.583 468.856 239.202 468.244 242.446C468.367 239.141 470.178 236.154 471.818 233.425C472.673 232.133 473.279 230.692 473.605 229.178C473.838 227.691 473.686 226.17 473.165 224.759C472.045 221.888 470.12 219.401 467.62 217.599C465.018 215.724 462.321 213.984 459.542 212.384C458.856 211.932 458.171 211.466 457.498 210.94C456.798 210.378 456.216 209.683 455.784 208.896C454.924 207.436 454.23 205.884 453.715 204.269C452.68 201.167 451.837 198.003 451.194 194.796L449.333 185.248C448.814 182.048 448.107 178.88 447.216 175.762Z" fill="#263238"/>
<path d="M460.117 267.917C458.465 269.533 457.902 271.895 457.032 274.037C456.163 276.179 455.356 278.37 454.401 280.512C453.473 282.697 452.316 284.777 450.949 286.718C449.548 288.768 447.671 290.448 445.478 291.614C440.668 293.707 435.551 292.544 431.206 291.014C428.991 290.231 426.861 289.337 424.682 288.566C422.561 287.689 420.262 287.328 417.975 287.514C420.27 286.922 422.681 286.948 424.964 287.587C427.253 288.126 429.456 288.811 431.683 289.447C436.016 290.671 440.741 291.443 444.597 289.692C446.499 288.671 448.138 287.221 449.382 285.457C450.735 283.644 451.938 281.724 452.981 279.717C454.083 277.697 455.074 275.616 456.114 273.597C456.653 272.556 457.204 271.528 457.804 270.524C458.34 269.473 459.137 268.575 460.117 267.917Z" fill="#263238"/>
<path d="M339.932 548.054H445.955L452.259 416.915H357.521L339.932 548.054Z" fill="#37474F"/>
<path d="M387.191 416.915L398.391 505.728L398.403 505.863L398.648 507.711L399.1 511.346L399.615 515.398L399.798 516.842L399.945 518.005L403.727 548.054H445.955L452.259 416.915H387.191Z" fill="#263238"/>
<path d="M361.463 548.054H364.266C364.412 546.891 364.547 545.741 364.694 544.578C368.464 513.978 372.124 483.378 375.306 452.778C375.6 449.975 375.894 447.16 376.175 444.357C376.175 443.916 375.465 443.831 375.404 444.271C375.147 446.156 374.878 448.041 374.633 449.926C370.104 482.607 365.796 515.337 361.463 548.054Z" fill="#263238"/>
<path d="M367.142 416.817C367.138 416.849 367.138 416.882 367.142 416.915C367.424 418.224 370.52 432.594 374.608 449.963C374.829 450.905 375.049 451.86 375.282 452.815C377.093 460.391 379.064 468.408 381.059 476.071C385.367 492.705 389.786 507.613 392.797 512.521C393.125 513.129 393.58 513.66 394.131 514.076C395.11 514.651 397.191 515.679 399.774 516.891L401.487 517.687L402.956 518.36C408.831 521.053 415.894 524.137 419.162 525.496V525.753L420.3 548.079H520.167L509.591 484.431L496.825 416.878L367.142 416.817Z" fill="#37474F"/>
<path d="M385.502 509.706C397.121 513.935 408.35 519.165 419.064 525.337C419.146 525.384 419.207 525.461 419.235 525.551C419.264 525.641 419.258 525.739 419.218 525.825C419.178 525.91 419.107 525.978 419.02 526.015C418.933 526.051 418.835 526.054 418.746 526.022C407.448 521.126 395.918 516.524 384.902 511.053C384.724 510.973 384.584 510.826 384.514 510.643C384.444 510.461 384.449 510.258 384.529 510.08C384.608 509.901 384.756 509.761 384.938 509.691C385.121 509.621 385.323 509.627 385.502 509.706Z" fill="#263238"/>
<path d="M382.099 432.3C382.099 431.909 382.809 431.823 382.809 432.3C382.724 445.764 383.58 457.515 384.706 470.061C385.233 475.875 389.908 508.005 400.006 505.704C401.696 505.312 402.565 503.647 402.822 501.102C403.14 498.029 401.989 494.284 401.487 491.236C400.361 484.504 399.468 477.772 398.893 470.942C397.711 458.278 397.846 445.525 399.297 432.888C399.311 432.813 399.352 432.745 399.411 432.696C399.47 432.647 399.544 432.621 399.621 432.621C399.698 432.621 399.772 432.647 399.831 432.696C399.89 432.745 399.931 432.813 399.945 432.888C399.945 450.465 400.398 468.005 403.017 485.422C404.241 493.782 408.501 506.377 399.749 507.674C390.998 508.972 385.061 487.882 383.984 482.105C380.949 465.936 380.826 448.604 382.099 432.3Z" fill="#263238"/>
<path d="M399.737 506.524C400.642 508.691 401.402 510.915 402.014 513.182C402.658 514.938 402.977 516.796 402.956 518.666C402.956 519.021 402.442 519.058 402.259 518.813C401.208 517.169 400.415 515.373 399.909 513.488C399.137 511.42 398.33 509.376 397.62 507.295C397.517 507.014 397.531 506.704 397.657 506.433C397.783 506.163 398.012 505.953 398.293 505.851C398.574 505.748 398.884 505.762 399.154 505.888C399.425 506.014 399.635 506.243 399.737 506.524Z" fill="#263238"/>
<path d="M474.438 513.207C475.441 524.835 476.629 536.463 477.877 548.054H478.967C477.743 536.426 476.347 524.798 474.842 513.195C474.805 512.938 474.413 512.938 474.438 513.207Z" fill="#263238"/>
<path d="M405.906 299.545C396.763 329.362 357.191 435.862 330.655 452.093C313.286 462.705 226.052 468.739 209.27 460.954C199.956 456.621 202.857 386.168 213.836 385.776C227.533 385.287 294.865 383.475 302.319 379.913C309.773 376.351 360.067 309.093 379.235 288.713C412.271 253.56 412.002 279.692 405.906 299.545Z" fill="#FFC4C0"/>
<path d="M234.705 380.489L247.141 466.658C247.141 466.658 317.986 468.739 337.301 452.937C364.829 430.44 404.303 316.608 408.783 298.799C419.395 256.571 395.747 263.621 377.142 284.111C365.061 297.452 317.533 365.703 299.932 378.273C294.938 381.884 234.705 380.489 234.705 380.489Z" fill="#EBEBEB"/>
<path d="M264.595 462.435C263.139 449.645 255.268 397.563 252.808 386.388C252.637 385.617 252.098 385.531 252.172 386.388C255.611 424.81 261.964 450.036 264.081 462.497C264.142 462.79 264.632 462.766 264.595 462.435Z" fill="#263238"/>
<path d="M357.485 384.919L345.648 466.315C345.648 466.315 478.306 468.274 511.243 465.96C511.243 465.96 484.377 313.781 448.966 275.322C431.255 256.093 410.459 257.538 397.203 270.977C393.85 274.38 353.837 327.281 349.626 347.465C345.954 365.286 357.485 384.919 357.485 384.919Z" fill="#407BFF"/>
<path d="M409.174 375.837C402.101 375.199 394.991 375.08 387.901 375.482C384.388 375.739 380.9 376.143 377.411 376.633C375.673 376.878 373.923 377.061 372.185 377.233C370.356 377.459 368.506 377.459 366.677 377.233C366.518 377.233 366.481 377.453 366.677 377.49C368.371 377.877 370.088 378.155 371.818 378.322C373.497 378.438 375.182 378.438 376.861 378.322C380.435 378.102 383.996 377.722 387.571 377.465C394.768 376.951 401.965 376.425 409.186 376.437C409.492 376.437 409.505 375.874 409.174 375.837Z" fill="#263238"/>
<path d="M425.184 385.152C419.55 383.512 413.83 382.188 408.048 381.186C405.159 380.697 402.259 380.378 399.333 380.134C397.95 380.023 396.542 379.926 395.147 379.852C393.752 379.779 392.063 379.852 390.533 379.852C390.374 379.852 390.325 380.085 390.533 380.109C391.977 380.244 393.409 380.623 394.841 380.856L399.174 381.517C402.05 381.97 404.927 382.459 407.828 382.888C413.605 383.732 419.358 384.638 425.111 385.691C425.478 385.654 425.527 385.213 425.184 385.152Z" fill="#263238"/>
<path d="M425.943 548.054H530.607C518.367 471.162 503.679 392.41 489.542 352.777C459.113 267.33 434.278 264.062 434.278 264.062V264.16C434.144 267.77 430.606 364.626 427.889 467.062C427.155 494.21 426.481 521.75 425.943 548.054Z" fill="#EBEBEB"/>
<path d="M443.226 502.166C443.226 499.18 443.887 485.03 444.156 482.178C444.156 481.848 444.278 481.187 444.548 481.187C448.452 481.187 462.002 482.57 475.65 482.57C485.409 482.387 495.148 481.626 504.817 480.294C505.27 480.428 505.27 495.973 505.515 503.488C506.005 519.168 505.283 536.904 501.941 540.208C495.699 546.328 479.065 545.802 473.789 545.753C468.514 545.704 449.921 545.692 445.551 536.096C443.691 531.799 443.177 509.914 443.226 502.166ZM445.674 518.078C445.894 525.814 446.139 532.766 449.113 536.842C451.659 540.282 458.844 543.746 475.38 543.733C487.326 543.733 497.412 541.543 500.166 538.36C503.471 534.553 503.838 523.611 503.838 517.075C503.838 508.054 503.838 500.844 503.838 491.836C480.741 497.197 455.331 494.553 445.698 492.607C445.662 492.986 445.453 512.02 445.637 518.078H445.674ZM445.613 491.15C475.613 495.006 494.181 491.787 503.802 489.926C503.802 487.038 503.802 484.786 503.802 481.885C499.677 482.925 485.797 484.578 475.393 484.578C465.711 484.578 451.488 483.231 445.453 482.509C445.625 484.884 445.502 490.049 445.576 491.138L445.613 491.15Z" fill="#DBDBDB"/>
<path d="M437.424 304.233C443.311 328.603 473.593 415.287 481.121 422.802C490.093 431.762 529.212 459.314 542.847 422.631C552.296 397.233 488.085 308.199 457.742 279.423C442.932 265.457 427.571 263.401 437.424 304.233Z" fill="#EBEBEB"/>
<path d="M447.779 348.64C449.615 352.031 451.635 355.323 453.618 358.628C453.153 357.404 452.7 356.18 452.259 354.956C450.35 349.68 448.587 344.344 446.641 339.044C446.567 338.873 446.837 338.811 446.91 338.97C448.954 343.56 451.121 348.114 453.116 352.74C455.111 357.367 456.788 361.823 458.599 366.413C462.161 375.654 465.772 384.883 469.077 394.222C471.033 399.383 472.708 404.645 474.095 409.987C474.095 410.134 473.912 410.244 473.838 410.097C471.647 405.679 469.921 401.027 468.159 396.425C466.396 391.823 464.634 387.27 462.92 382.667C461.206 378.065 459.383 373.304 457.571 368.64C456.665 366.29 455.723 363.965 454.805 361.627C451.994 357.546 449.603 353.19 447.669 348.628C447.645 348.628 447.755 348.579 447.779 348.64Z" fill="#263238"/>
<path d="M435.38 264.172C438.644 271.059 441.81 277.995 444.878 284.98C447.938 291.957 451.096 298.884 454.058 305.91L454.425 306.792L453.63 307.33L440.79 316.008L441.096 314.16C444.584 319.374 447.963 324.65 451.365 329.913L451.696 330.427L451.512 330.99C448.073 341.651 444.756 352.349 441.145 362.961C437.534 373.573 433.997 384.197 430.202 394.785C433.115 383.948 436.167 373.165 439.358 362.435C442.442 351.663 445.821 340.99 449.076 330.268L449.223 331.345C445.772 326.118 442.295 320.904 438.917 315.617L438.22 314.515L439.284 313.817L452.283 305.372L451.843 306.792C448.93 299.754 446.237 292.63 443.422 285.555C440.606 278.48 437.999 271.32 435.38 264.172Z" fill="#DBDBDB"/>
<path d="M332.858 548.054H370.655C372.895 521.579 375.196 493.904 377.472 466.695C380.716 427.808 383.923 389.864 386.91 357.673C389.578 327.716 394.294 297.977 401.022 268.664C401.194 267.917 401.304 267.44 401.328 267.379C401.353 267.318 401.328 267.379 401.328 267.379C399.816 268.32 398.465 269.498 397.326 270.867C397.288 270.911 397.247 270.952 397.203 270.99L396.799 271.442C396.691 271.55 396.589 271.665 396.493 271.785C389.994 278.921 379.125 293.511 369.455 308.505C360.128 322.948 351.903 337.746 349.871 346.535L349.761 347.024C349.7 347.306 349.651 347.575 349.602 347.844C349.202 350.175 348.977 352.531 348.929 354.895C348.838 364.552 351.336 374.057 356.163 382.422C356.195 382.494 356.231 382.564 356.273 382.631C356.591 383.169 356.787 383.451 356.787 383.451V383.585L344.4 468.384L332.858 548.054Z" fill="#EBEBEB"/>
<path d="M362.687 320.916C366.359 315.017 370.19 309.178 373.825 303.23C373.935 303.058 373.666 302.862 373.543 303.022C369.871 307.918 366.199 312.814 362.638 317.795C363.862 315.139 364.975 312.471 366.04 309.754C366.163 309.448 365.734 309.191 365.587 309.497C363.935 312.985 362.454 316.535 360.985 320.109C357.788 324.54 354.956 329.223 352.515 334.111C347.46 344.503 345.281 355.862 348.023 367.22C348.766 370.359 349.875 373.399 351.328 376.278C352.307 378.236 355.502 382.496 355.477 382.618C353.396 394.222 351.805 405.96 350.202 417.637C348.598 429.314 346.872 441.26 345.489 453.133C344.718 459.84 344.265 466.597 343.237 473.292C343.237 473.537 343.58 473.635 343.617 473.39C344.461 467.564 345.722 461.799 346.762 455.997C347.803 450.195 348.77 444.394 349.712 438.567C351.597 426.817 353.286 415.018 354.988 403.23C355.942 396.572 356.995 389.901 357.754 383.206C357.84 382.471 354.828 377.722 353.935 375.862C352.745 373.397 351.77 370.833 351.022 368.2C349.49 362.847 349.016 357.247 349.626 351.712C350.912 340.427 356.762 330.378 362.687 320.916Z" fill="#263238"/>
<path d="M401.022 268.664C397.122 274.588 393.152 280.459 389.113 286.277C385.049 292.079 381.083 297.954 376.946 303.695L376.861 302.324L386.799 312.74L387.619 313.597L386.75 314.442C382.564 318.493 378.305 322.471 374.058 326.461L374.413 325.433C375.955 336.229 377.607 347 378.978 357.82C380.349 368.64 381.805 379.448 382.993 390.293C380.936 379.571 379.064 368.836 377.264 358.077C375.465 347.318 373.788 336.547 372.075 325.788L371.977 325.176L372.43 324.748C376.628 320.708 380.826 316.657 385.086 312.691V314.393L375.294 303.793L374.682 303.132L375.208 302.422C379.382 296.706 383.776 291.112 387.987 285.445C392.197 279.778 396.604 274.221 401.022 268.664Z" fill="#DBDBDB"/>
<path d="M448.807 282.422C449.799 267.942 432.259 262.189 421.414 260.696C408.574 258.933 400.019 259.998 393.838 272.458C387.326 285.592 383.911 300.831 381.353 315.213C380.875 317.893 376.689 317.22 377.167 314.527C380.116 297.966 384.352 267.06 400.851 258.076C416.041 249.79 454.707 258.566 452.993 283.095C452.81 285.824 448.624 285.127 448.807 282.422Z" fill="#455A64"/>
<path d="M368.366 321.222C368.044 323.137 368.299 325.105 369.098 326.874C369.898 328.644 371.205 330.136 372.854 331.161C374.503 332.186 376.42 332.697 378.36 332.63C380.301 332.563 382.177 331.921 383.752 330.785C385.327 329.649 386.528 328.07 387.203 326.25C387.879 324.43 387.998 322.449 387.545 320.561C387.092 318.673 386.088 316.962 384.661 315.646C383.234 314.329 381.447 313.467 379.529 313.169C378.267 312.964 376.977 313.01 375.733 313.304C374.489 313.598 373.315 314.135 372.279 314.883C371.242 315.631 370.363 316.576 369.692 317.663C369.02 318.751 368.57 319.961 368.366 321.222Z" fill="#263238"/>
<path d="M372.197 321.847C372.021 322.991 372.187 324.163 372.676 325.213C373.164 326.263 373.953 327.145 374.942 327.747C375.931 328.35 377.076 328.646 378.234 328.598C379.391 328.55 380.508 328.161 381.444 327.479C382.38 326.797 383.093 325.853 383.493 324.766C383.894 323.679 383.963 322.498 383.693 321.372C383.422 320.245 382.824 319.225 381.974 318.438C381.124 317.651 380.061 317.133 378.917 316.951C378.154 316.827 377.374 316.856 376.622 317.036C375.87 317.215 375.161 317.542 374.536 317.997C373.911 318.453 373.383 319.027 372.981 319.688C372.58 320.349 372.313 321.082 372.197 321.847Z" fill="#EBEBEB"/>
<path d="M434.082 327.783C423.372 368.457 425.025 378.396 428.403 383.071C430.95 386.342 434.217 388.981 437.95 390.782L439.174 388.102L438.562 389.436L439.174 388.102C435.913 386.5 433.049 384.192 430.79 381.345C428.342 377.967 426.335 368.812 436.91 328.53L434.082 327.783Z" fill="#C7C7C7"/>
<path d="M444.4 390.569L442.669 393.696C442.305 394.352 441.478 394.59 440.822 394.226L434.247 390.585C433.591 390.221 433.354 389.394 433.717 388.738L435.449 385.612C435.812 384.955 436.639 384.718 437.296 385.081L443.87 388.722C444.526 389.086 444.764 389.913 444.4 390.569Z" fill="#263238"/>
<path d="M460.68 328.848C468.746 359.448 470.692 376.29 466.8 381.664C464.542 384.507 461.677 386.812 458.416 388.408L459.64 391.101C463.373 389.299 466.64 386.66 469.187 383.389C473.814 377 472.173 360.978 463.52 328.101L460.68 328.848Z" fill="#C7C7C7"/>
<path d="M462.114 385.921L463.844 389.048C464.207 389.705 463.969 390.532 463.312 390.895L456.735 394.531C456.078 394.895 455.252 394.657 454.889 394L453.159 390.872C452.796 390.215 453.034 389.389 453.691 389.026L460.268 385.389C460.924 385.026 461.751 385.264 462.114 385.921Z" fill="#263238"/>
<path d="M464.511 326.767C463.165 319.982 461.403 313.287 459.236 306.718C457.953 303.818 455.915 301.316 453.336 299.472C452.749 299.411 453.006 294.246 453.336 290.035C453.605 286.363 453.997 281.981 453.103 280.782C452.588 280.227 451.876 279.895 451.12 279.856C450.364 279.818 449.622 280.075 449.052 280.573C448.036 281.663 447.975 286.02 447.828 289.753C447.681 293.976 447.387 299.129 446.8 299.129C444.191 300.821 442.028 303.118 440.496 305.825C437.643 312.307 435.286 318.997 433.446 325.837C432.504 330.194 433.936 330.733 435.184 331.174C436.947 331.773 438.073 330.562 439.456 325.739C441.659 318.101 444.438 305.237 449.762 305.274C455.037 305.812 457.179 319.435 458.869 327.036C459.933 331.798 460.937 332.251 462.761 331.835C464.034 331.529 465.344 330.99 464.511 326.767Z" fill="#263238"/>
<path d="M400.153 264.943C400.153 264.943 398.929 288.529 403.287 288.921C416.494 290.145 431.182 271.981 431.989 269.105C432.198 268.37 431.133 250.059 430.264 235.824C429.713 226.668 429.235 219.202 429.235 219.202L395.49 238.541L399.835 263.18L400.153 264.943Z" fill="#FFC4C0"/>
<path d="M395.49 238.541L399.835 263.18C406.544 261.014 412.721 257.458 417.964 252.744C423.207 248.031 427.398 242.265 430.264 235.824C429.713 226.668 429.236 219.202 429.236 219.202L424.988 221.454L395.49 238.541Z" fill="#263238"/>
<path d="M360.753 199.3C353.715 242.654 378.892 251.76 388.244 253.266C396.726 254.637 425.796 258.223 437.277 215.824C448.758 173.424 430.827 156.46 411.573 152.298C392.32 148.137 367.791 155.946 360.753 199.3Z" fill="#FFC4C0"/>
<path d="M371.328 193.951C372.342 193.888 373.351 193.769 374.351 193.596C375.427 193.62 376.481 193.289 377.35 192.654C377.583 192.4 377.726 192.077 377.757 191.734C377.788 191.391 377.705 191.047 377.522 190.756C377.072 190.247 376.495 189.865 375.85 189.65C375.205 189.435 374.515 189.395 373.85 189.532C372.434 189.599 371.096 190.198 370.104 191.209C369.901 191.448 369.769 191.74 369.725 192.051C369.68 192.362 369.725 192.679 369.853 192.966C369.981 193.252 370.187 193.497 370.448 193.671C370.709 193.846 371.014 193.943 371.328 193.951Z" fill="#263238"/>
<path d="M400.704 197.721C399.688 197.501 398.795 197.133 397.815 196.827C396.747 196.656 395.766 196.135 395.025 195.346C394.84 195.055 394.758 194.71 394.792 194.366C394.825 194.023 394.971 193.7 395.208 193.449C395.746 193.018 396.39 192.739 397.073 192.642C397.756 192.545 398.452 192.634 399.088 192.898C400.464 193.227 401.669 194.056 402.467 195.224C402.63 195.502 402.71 195.821 402.697 196.144C402.683 196.466 402.577 196.778 402.391 197.041C402.205 197.305 401.947 197.509 401.648 197.63C401.349 197.75 401.021 197.782 400.704 197.721Z" fill="#263238"/>
<path d="M392.466 207.599C392.466 207.488 392.675 207.758 392.662 207.88C392.222 210.842 392.222 214.306 394.804 215.604C394.878 215.604 394.804 215.787 394.804 215.763C391.536 214.93 391.573 210.328 392.466 207.599Z" fill="#263238"/>
<path d="M395.478 204.796C400.288 204.979 399.566 214.588 395.098 214.441C390.631 214.294 391.438 204.636 395.478 204.796Z" fill="#263238"/>
<path d="M397.326 205.444C398.121 206.056 398.88 207.084 399.884 207.256C400.888 207.427 402.014 206.521 402.846 205.603C402.932 205.518 403.017 205.603 403.005 205.738C402.895 207.574 402.038 209.41 400.043 209.545C398.048 209.679 397.044 207.929 396.726 206.032C396.665 205.689 397.032 205.224 397.326 205.444Z" fill="#263238"/>
<path d="M376.077 205.383C376.077 205.261 375.832 205.506 375.832 205.628C375.722 208.614 375.098 212.017 372.332 212.825C372.246 212.825 372.246 213.009 372.332 212.996C375.673 212.764 376.457 208.223 376.077 205.383Z" fill="#263238"/>
<path d="M373.629 202.078C368.856 201.393 367.827 210.989 372.246 211.626C376.665 212.262 377.632 202.666 373.629 202.078Z" fill="#263238"/>
<path d="M371.561 202.494C370.741 202.923 369.896 203.718 368.978 203.718C368.06 203.718 367.264 202.494 366.701 201.491C366.64 201.381 366.554 201.491 366.542 201.576C366.285 203.412 366.689 205.383 368.415 205.922C370.141 206.46 371.34 204.967 371.977 203.192C372.087 202.874 371.891 202.323 371.561 202.494Z" fill="#263238"/>
<path d="M389.982 230.928C389.247 231.601 388.501 232.544 387.411 232.605C386.299 232.55 385.211 232.262 384.217 231.76C384.197 231.75 384.174 231.747 384.152 231.751C384.131 231.756 384.111 231.768 384.097 231.785C384.082 231.802 384.074 231.823 384.074 231.846C384.073 231.868 384.081 231.89 384.094 231.907C384.496 232.497 385.049 232.969 385.694 233.275C386.34 233.581 387.055 233.708 387.766 233.645C388.384 233.508 388.946 233.191 389.382 232.733C389.818 232.275 390.108 231.698 390.214 231.075C390.312 230.928 390.092 230.928 389.982 230.928Z" fill="#263238"/>
<path d="M378.464 219.104C378.464 219.104 377.46 223.498 377.24 225.604C377.24 225.799 377.73 225.934 378.464 226.044C378.464 226.044 378.464 226.044 378.537 226.044C380.309 226.532 382.182 226.522 383.948 226.015C385.715 225.507 387.307 224.522 388.55 223.168C388.721 222.972 388.476 222.739 388.268 222.85C385.431 224.443 382.156 225.078 378.929 224.661C378.831 224.074 380.9 217.195 380.569 217.146C378.914 217.138 377.267 217.36 375.673 217.807C377.497 208.59 380.79 199.74 382.466 190.536C382.471 190.471 382.455 190.406 382.419 190.352C382.383 190.297 382.33 190.256 382.268 190.235C382.207 190.214 382.14 190.214 382.078 190.236C382.016 190.257 381.964 190.298 381.928 190.352C377.827 199.386 375.49 209.936 373.36 219.41C373.14 220.585 377.595 219.386 378.464 219.104Z" fill="#263238"/>
<path d="M380.851 225.628C381.836 227.044 383.173 228.179 384.731 228.921C385.59 229.308 386.551 229.411 387.473 229.214C389.48 228.786 389.602 226.962 389.309 225.383C389.147 224.539 388.884 223.717 388.525 222.935C386.324 224.636 383.632 225.581 380.851 225.628Z" fill="#263238"/>
<path d="M384.731 228.921C385.59 229.308 386.551 229.411 387.473 229.214C389.48 228.786 389.602 226.962 389.309 225.383C387.179 225.518 385 226.864 384.731 228.921Z" fill="#FF99BA"/>
<path d="M437.277 217.464C434.451 216.109 432.025 214.043 430.238 211.468C428.45 208.893 427.363 205.898 427.081 202.776C419.393 199.45 412.73 194.135 407.779 187.378C408.072 188.284 410.227 194.808 411.451 198.088C383.592 193.021 374.878 171.76 374.878 171.76C365.881 180.805 364.106 186.582 362.821 189.459C362.821 189.459 362.527 172.323 371.267 160.903C374.205 156.939 378.24 153.924 382.874 152.229C387.507 150.535 392.536 150.235 397.338 151.368C403.895 149.103 410.975 148.824 417.69 150.566C424.405 152.308 430.457 155.993 435.086 161.16C453.262 180.744 437.277 217.464 437.277 217.464Z" fill="#263238"/>
<path d="M390.251 193.645C394.734 196.07 399.552 197.815 404.548 198.822C404.548 198.822 404.609 198.822 404.548 198.822C396.715 196.721 389.621 192.483 384.058 186.582C381.695 184.06 379.663 181.246 378.011 178.21C376.073 174.959 374.795 171.357 374.254 167.61C374.242 167.562 374.215 167.52 374.176 167.489C374.137 167.458 374.089 167.442 374.039 167.442C373.99 167.442 373.942 167.458 373.903 167.489C373.864 167.52 373.837 167.562 373.825 167.61C373.954 171.384 374.72 175.108 376.09 178.626C377.606 182.012 379.725 185.094 382.344 187.721C384.691 190.059 387.358 192.054 390.263 193.645" fill="#263238"/>
<path d="M397.901 223.584C400.466 223.643 402.997 222.981 405.204 221.673C407.412 220.365 409.208 218.463 410.388 216.185C411.568 213.907 412.086 211.343 411.881 208.785C411.676 206.227 410.758 203.778 409.23 201.717C407.702 199.655 405.627 198.064 403.239 197.124C400.852 196.183 398.249 195.932 395.725 196.398C393.202 196.864 390.86 198.029 388.966 199.76C387.073 201.492 385.703 203.72 385.012 206.191C384.038 209.694 384.493 213.44 386.279 216.607C388.064 219.774 391.034 222.103 394.535 223.082C395.632 223.386 396.763 223.554 397.901 223.584ZM398.489 198.002C399.478 198.024 400.462 198.172 401.414 198.443C404.318 199.261 406.802 201.155 408.358 203.74C409.915 206.325 410.428 209.406 409.793 212.355C409.158 215.305 407.423 217.902 404.941 219.617C402.458 221.332 399.416 222.037 396.432 221.588C393.448 221.138 390.748 219.569 388.881 217.198C387.014 214.828 386.121 211.835 386.383 208.829C386.645 205.823 388.043 203.03 390.292 201.019C392.541 199.007 395.472 197.929 398.489 198.002Z" fill="#407BFF"/>
<path d="M366.775 219.055C372.013 219.178 376.897 213.914 377.901 206.815C378.433 203.438 377.894 199.98 376.359 196.925C375.775 195.58 374.856 194.408 373.69 193.519C372.524 192.631 371.149 192.057 369.697 191.852C368.246 191.647 366.766 191.818 365.399 192.348C364.032 192.878 362.824 193.751 361.891 194.881C359.57 197.397 358.098 200.578 357.68 203.976C356.628 211.454 360.3 218.186 365.881 218.97C366.176 219.023 366.475 219.052 366.775 219.055ZM368.745 193.596C368.978 193.584 369.211 193.584 369.443 193.596C370.593 193.815 371.674 194.306 372.596 195.028C373.518 195.75 374.254 196.681 374.743 197.745C376.092 200.46 376.559 203.529 376.077 206.521C375.171 213.009 370.716 217.77 366.138 217.121C361.56 216.473 358.586 210.671 359.492 204.196C359.854 201.189 361.136 198.367 363.164 196.117C363.866 195.329 364.725 194.698 365.687 194.263C366.648 193.829 367.69 193.602 368.745 193.596Z" fill="#407BFF"/>
<path d="M385.245 207.843L386.616 206.619C384.792 204.6 380.361 201.613 376.554 204.685L377.705 206.118C381.12 203.351 385.086 207.672 385.245 207.843Z" fill="#407BFF"/>
<path d="M445.245 219.912L446.971 219.3C446.69 218.492 444.095 211.381 440.141 210.157C436.469 209.018 411.781 207.868 410.765 207.831L410.68 209.655C417.742 209.973 436.763 211.026 439.615 211.907C442.21 212.666 444.56 217.905 445.245 219.912Z" fill="#407BFF"/>
<path d="M429.848 218.039C429.848 218.039 440.423 205.077 446.384 208.957C452.345 212.837 443.666 232.152 436.2 234.27C435.26 234.614 434.261 234.765 433.261 234.713C432.262 234.661 431.283 234.407 430.384 233.967C429.485 233.526 428.685 232.909 428.031 232.151C427.377 231.393 426.883 230.511 426.579 229.557L429.848 218.039Z" fill="#FFC4C0"/>
<path d="M443.752 214.416C443.778 214.416 443.803 214.427 443.821 214.445C443.84 214.463 443.85 214.488 443.85 214.514C443.85 214.54 443.84 214.565 443.821 214.583C443.803 214.602 443.778 214.612 443.752 214.612C438.501 216.301 435.453 220.842 433.201 225.628C434.866 223.853 437.008 222.972 439.407 224.967C439.529 225.077 439.407 225.273 439.248 225.236C438.372 224.883 437.407 224.811 436.488 225.031C435.569 225.25 434.742 225.75 434.119 226.46C433.081 227.653 432.174 228.954 431.414 230.34C431.145 230.781 430.337 230.475 430.545 229.961V229.839C430.974 223.29 436.714 214.551 443.752 214.416Z" fill="#263238"/>
<path d="M432.21 232.03C432.184 232.24 432.202 232.454 432.262 232.658C432.322 232.861 432.424 233.05 432.561 233.212C432.698 233.375 432.866 233.507 433.057 233.601C433.247 233.695 433.455 233.749 433.667 233.759C433.879 233.769 434.091 233.736 434.289 233.66C434.488 233.585 434.668 233.469 434.82 233.32C434.972 233.172 435.091 232.994 435.17 232.797C435.25 232.6 435.288 232.389 435.282 232.176C435.271 231.788 435.114 231.417 434.842 231.139C434.57 230.862 434.203 230.697 433.814 230.678C433.426 230.66 433.044 230.789 432.747 231.039C432.449 231.29 432.258 231.644 432.21 232.03Z" fill="white"/>
<path d="M436.641 229.582C436.634 229.709 436.653 229.836 436.696 229.955C436.738 230.075 436.804 230.185 436.889 230.28C436.975 230.374 437.078 230.451 437.192 230.505C437.307 230.56 437.432 230.591 437.559 230.598C437.686 230.604 437.813 230.585 437.933 230.543C438.052 230.5 438.163 230.434 438.257 230.349C438.351 230.264 438.428 230.161 438.482 230.046C438.537 229.931 438.568 229.807 438.575 229.68C438.588 229.423 438.498 229.172 438.326 228.981C438.154 228.791 437.913 228.677 437.657 228.664C437.4 228.651 437.149 228.74 436.959 228.912C436.768 229.084 436.654 229.325 436.641 229.582Z" fill="white"/>
<path d="M400.141 266.13L407.485 285.372L431.671 261.663L438.244 269.545C438.244 269.545 414.303 307.489 414.193 305.751L406.64 289.141L395.061 300.378L396.53 271.65L400.141 266.13Z" fill="#407BFF"/>
<path d="M394.951 286.13C395.343 281.394 395.624 276.62 396.175 271.908C396.175 271.736 396.469 271.663 396.506 271.908C397.362 276.498 395.734 294.6 395.673 298.946C396.151 298.456 406.396 289.068 406.493 289.227C408.146 291.871 413.691 303.915 414.07 305.066C417.852 299.044 433.887 275.298 438.342 269.57C438.365 269.532 438.401 269.506 438.444 269.495C438.486 269.485 438.531 269.492 438.568 269.515C438.606 269.537 438.632 269.574 438.643 269.616C438.653 269.659 438.646 269.704 438.623 269.741C435.257 276.118 414.523 307.452 414.241 307.355C411.31 301.643 408.675 295.785 406.347 289.802C404.608 291.859 394.253 302.471 394.229 301.773C394.193 296.55 394.434 291.328 394.951 286.13Z" fill="#263238"/>
<path d="M398.427 328.358C398.427 328.358 407.889 315.874 398.856 310.109C389.823 304.343 382.491 318.187 382.491 318.187L398.427 328.358Z" fill="#455A64"/>
<path d="M323.592 410.513L322.282 425.777L321.817 430.819L326.236 428.31L339.504 420.648L398.733 327.82L382.821 317.648L323.592 410.513Z" fill="#455A64"/>
<path d="M322.246 425.801L321.805 430.832L326.211 428.322L322.246 425.801Z" fill="#37474F"/>
<path d="M381.8 316.318L400.405 328.189L398.048 331.883L379.444 320.012L381.8 316.318Z" fill="#263238"/>
<path d="M379.208 320.415L397.812 332.285L395.455 335.979L376.851 324.109L379.208 320.415Z" fill="#263238"/>
<path d="M395.453 335.959L389.456 332.128L371.328 367.832L373.617 369.105L395.453 335.959Z" fill="#263238"/>
<path d="M432.528 361.125C423.434 359.326 395.808 437.074 409.089 440.367C468.036 455.055 516.299 445.801 527.731 440.367C542.725 433.182 543.973 413.928 537.706 405.042C526.776 389.632 446.629 363.928 432.528 361.125Z" fill="#FFC4C0"/>
<path d="M319.32 357C319.467 365.972 341.56 363.744 341.56 363.744C338.371 365.939 336.053 369.183 335.012 372.912C333.482 379.558 343.225 384.87 343.225 384.87C340.4 387.838 338.532 391.587 337.864 395.629C337.044 402.141 346.114 408.898 346.114 408.898C345.014 413.055 345.449 417.47 347.338 421.333C352.809 431.444 413.862 441.211 421.463 442.594L436.151 363.034C436.151 363.034 388.183 335.91 374.951 336.816C363.825 337.489 319.1 343.254 319.32 357Z" fill="#FFC4C0"/>
<path d="M341.732 363.45C353.384 359.778 365.893 358.934 377.962 358.236C378.017 358.236 378.07 358.258 378.109 358.297C378.148 358.336 378.17 358.389 378.17 358.444C378.17 358.499 378.148 358.552 378.109 358.591C378.07 358.63 378.017 358.652 377.962 358.652C365.942 359.203 353.788 362.985 341.817 364.026C341.747 364.026 341.678 364.001 341.624 363.955C341.571 363.909 341.535 363.845 341.525 363.775C341.515 363.705 341.53 363.634 341.568 363.574C341.606 363.515 341.664 363.471 341.732 363.45Z" fill="#263238"/>
<path d="M343.531 383.928C346.258 383.355 349.047 383.141 351.83 383.292C354.784 383.292 357.733 383.316 360.679 383.365C366.587 383.512 372.487 383.81 378.378 384.258C378.635 384.258 378.672 384.675 378.378 384.675C372.503 384.54 366.616 384.491 360.728 384.601C357.778 384.601 354.841 384.736 351.891 384.834C349.121 385.107 346.33 385.075 343.568 384.736C343.483 384.71 343.408 384.659 343.353 384.589C343.298 384.519 343.267 384.434 343.263 384.345C343.259 384.256 343.282 384.168 343.33 384.094C343.378 384.019 343.449 383.961 343.531 383.928Z" fill="#263238"/>
<path d="M346.371 408.861C348.647 408.126 351.499 408.579 353.862 408.69L361.94 409.02C367.313 409.204 372.687 409.387 378.072 409.387C378.341 409.387 378.366 409.803 378.072 409.803C372.601 409.803 367.13 409.938 361.671 409.914C358.978 409.914 356.297 409.914 353.604 409.84C351.328 409.84 348.464 410.024 346.26 409.13C346.23 409.112 346.207 409.084 346.195 409.05C346.184 409.017 346.185 408.98 346.198 408.948C346.212 408.915 346.237 408.888 346.268 408.872C346.3 408.856 346.336 408.852 346.371 408.861Z" fill="#263238"/>
<path d="M441.488 362.153L415.086 449.755C415.086 449.755 511.243 454.443 531.868 439.449C546.201 429.02 545.014 409.399 538.539 402.643C524.401 387.894 441.488 362.153 441.488 362.153Z" fill="#EBEBEB"/>
<path d="M440.423 446.352C444.572 434.112 459.737 383.683 462.283 372.557C462.455 371.786 462.014 371.492 461.72 372.263C448.403 408.481 443.36 434.014 439.945 446.168C439.872 446.499 440.313 446.682 440.423 446.352Z" fill="#263238"/>
<path d="M441.463 361.247C441.99 361.137 451.255 363.536 454.217 364.405C460.003 366.127 465.748 367.996 471.451 370.011C482.81 374.013 493.955 378.597 504.842 383.744L506.47 384.528C510.448 385.482 514.328 386.853 518.196 388.126C518.306 388.126 518.196 388.334 518.196 388.298C515.099 387.269 511.954 386.462 508.808 385.629C510.546 386.474 512.296 387.331 514.01 388.224C517.058 389.803 520.032 391.505 523.055 393.12C523.066 393.125 523.076 393.132 523.085 393.141C523.093 393.15 523.099 393.161 523.103 393.172C523.107 393.184 523.108 393.196 523.107 393.208C523.105 393.22 523.102 393.232 523.096 393.242C523.089 393.253 523.081 393.262 523.071 393.269C523.061 393.276 523.05 393.281 523.038 393.283C523.026 393.285 523.014 393.285 523.002 393.282C522.99 393.28 522.979 393.274 522.969 393.267C517.89 390.635 512.614 388.298 507.4 385.923C502.186 383.549 496.751 381.235 491.366 379.056C480.754 374.76 469.934 370.917 458.979 367.539C455.894 366.596 452.859 365.69 449.701 364.809C448.183 364.381 441.867 362.239 441.598 362.214C441.451 362.441 441.34 362.688 441.268 362.949C441.194 363.206 440.9 363.206 440.962 362.949C441.062 362.364 441.23 361.793 441.463 361.247Z" fill="#263238"/>
<path d="M428.44 450.146C431.231 449.951 441.524 450.452 444.278 450.452C449.835 450.452 455.38 450.452 460.937 450.354C472.1 450.061 483.214 449.253 494.328 448.188C497.4 447.894 500.448 447.564 503.557 447.233C506.666 446.903 510.007 446.658 513.165 446.083C513.288 446.083 513.337 446.254 513.165 446.279C510.399 446.682 507.682 447.331 504.928 447.809C502.174 448.286 499.407 448.702 496.629 449.094C491.072 449.877 485.491 450.428 479.897 450.893C468.734 451.811 457.498 452.117 446.298 451.909C443.14 451.848 431.353 451.358 428.293 450.685C427.987 450.673 428.122 450.171 428.44 450.146Z" fill="#263238"/>
<path d="M243.579 467.368L344.559 474.688L306.811 341.737L205.831 334.417L243.579 467.368Z" fill="white"/>
<path d="M236.676 466.866L337.644 474.186L299.895 341.235L198.928 333.915L236.676 466.866Z" fill="#37474F"/>
<path d="M289.173 340.476C289.429 341.621 289.909 342.703 290.585 343.661C291.262 344.619 292.121 345.434 293.114 346.057C294.032 346.645 294.338 345.409 293.469 344.833C292.196 343.994 291.247 342.747 290.777 341.296C290.715 341.064 290.642 340.794 290.605 340.562C290.388 339.76 290.388 338.915 290.605 338.114C290.71 337.769 290.93 337.47 291.229 337.269C291.258 337.254 291.283 337.233 291.303 337.208C291.303 337.208 291.413 337.208 291.425 337.208C291.49 337.216 291.556 337.216 291.621 337.208C291.863 337.179 292.109 337.217 292.331 337.318C292.759 337.504 293.137 337.789 293.433 338.15C293.796 338.581 294.101 339.059 294.338 339.57C294.484 339.82 294.614 340.077 294.73 340.341V340.525C294.775 340.61 294.808 340.7 294.828 340.794C294.828 340.794 294.901 340.904 294.889 340.966L296.321 341.076C296.029 340.161 295.618 339.288 295.097 338.481C294.718 337.786 294.194 337.18 293.56 336.705C292.927 336.23 292.199 335.896 291.425 335.727C290.849 335.664 290.271 335.828 289.814 336.185C289.357 336.541 289.057 337.062 288.977 337.636C288.804 338.584 288.872 339.561 289.173 340.476Z" fill="#407BFF"/>
<path d="M281.266 339.864C281.792 342.172 283.209 344.178 285.207 345.445C286.138 346.033 286.431 344.797 285.562 344.221C284.289 343.385 283.343 342.136 282.882 340.684C282.803 340.444 282.742 340.198 282.698 339.95C282.481 339.148 282.481 338.303 282.698 337.502C282.807 337.155 283.032 336.857 283.335 336.657C283.355 336.661 283.376 336.661 283.396 336.657C283.396 336.657 283.506 336.657 283.53 336.657H283.714C283.956 336.628 284.202 336.666 284.424 336.767C284.852 336.953 285.23 337.238 285.526 337.6C285.898 338.024 286.203 338.503 286.431 339.019C286.576 339.273 286.707 339.535 286.823 339.803V339.974C286.875 340.057 286.913 340.148 286.933 340.243C286.933 340.305 286.994 340.366 286.933 340.415L288.365 340.525C288.079 339.608 287.667 338.735 287.141 337.93C286.763 337.234 286.239 336.628 285.606 336.152C284.972 335.677 284.243 335.344 283.469 335.176C282.894 335.116 282.317 335.282 281.861 335.638C281.404 335.994 281.104 336.513 281.021 337.086C280.88 338.018 280.964 338.971 281.266 339.864Z" fill="#407BFF"/>
<path d="M273.408 339.325C273.937 341.638 275.358 343.649 277.362 344.919C278.28 345.494 278.586 344.258 277.717 343.695C276.44 342.859 275.49 341.611 275.024 340.158C275.024 339.925 274.877 339.668 274.84 339.436C274.633 338.633 274.633 337.79 274.84 336.988C274.94 336.64 275.162 336.34 275.464 336.143H275.538C275.538 336.143 275.636 336.143 275.66 336.143H275.856C276.093 336.107 276.336 336.141 276.554 336.241C276.986 336.426 277.368 336.711 277.668 337.073C278.032 337.504 278.336 337.982 278.573 338.493C278.72 338.738 278.83 339.007 278.965 339.276V339.448C279.008 339.533 279.041 339.624 279.063 339.717C279.063 339.778 279.124 339.84 279.063 339.888L280.495 339.999C280.209 339.081 279.797 338.208 279.271 337.404C278.892 336.709 278.368 336.105 277.735 335.632C277.101 335.159 276.372 334.828 275.599 334.662C275.024 334.596 274.446 334.757 273.989 335.112C273.531 335.466 273.23 335.986 273.151 336.559C273.015 337.489 273.103 338.437 273.408 339.325Z" fill="#407BFF"/>
<path d="M265.464 338.75C265.722 339.896 266.202 340.979 266.878 341.939C267.555 342.899 268.413 343.716 269.406 344.344C270.324 344.931 270.63 343.683 269.761 343.12C268.49 342.278 267.542 341.031 267.068 339.582C267.007 339.338 266.933 339.081 266.896 338.848C266.681 338.046 266.681 337.202 266.896 336.4C267.004 336.056 267.224 335.759 267.521 335.556H267.594C267.594 335.556 267.704 335.556 267.717 335.556H267.912C268.155 335.515 268.404 335.553 268.622 335.666C269.053 335.842 269.431 336.124 269.724 336.486C270.088 336.917 270.392 337.394 270.63 337.906C270.775 338.159 270.906 338.421 271.021 338.689V338.86C271.063 338.947 271.096 339.037 271.119 339.13C271.119 339.191 271.193 339.252 271.18 339.313L272.613 339.411C272.321 338.496 271.909 337.623 271.389 336.816C271.009 336.122 270.485 335.518 269.851 335.045C269.218 334.572 268.49 334.241 267.717 334.074C267.142 334.008 266.563 334.17 266.106 334.524C265.648 334.879 265.348 335.398 265.269 335.972C265.106 336.9 265.173 337.854 265.464 338.75Z" fill="#407BFF"/>
<path d="M257.496 338.175C258.024 340.485 259.44 342.494 261.437 343.769C262.368 344.356 262.661 343.108 261.792 342.545C260.522 341.705 259.576 340.457 259.112 339.007C259.033 338.767 258.972 338.522 258.928 338.273C258.711 337.471 258.711 336.626 258.928 335.825C259.037 335.475 259.261 335.173 259.565 334.968C259.585 334.972 259.606 334.972 259.626 334.968C259.626 334.968 259.736 334.968 259.76 334.968H259.944C260.186 334.933 260.434 334.971 260.654 335.078C261.082 335.259 261.46 335.54 261.756 335.898C262.125 336.329 262.43 336.812 262.661 337.33C262.809 337.578 262.94 337.836 263.053 338.101V338.273C263.103 338.356 263.14 338.447 263.163 338.542C263.163 338.603 263.224 338.664 263.163 338.726L264.595 338.824C264.309 337.906 263.897 337.033 263.371 336.229C262.991 335.535 262.467 334.932 261.833 334.459C261.2 333.986 260.472 333.654 259.699 333.487C259.125 333.424 258.548 333.587 258.092 333.941C257.635 334.295 257.333 334.812 257.251 335.384C257.108 336.321 257.192 337.278 257.496 338.175Z" fill="#407BFF"/>
<path d="M249.65 337.612C250.183 339.92 251.603 341.925 253.604 343.193C254.522 343.781 254.828 342.532 253.959 341.969C252.685 341.131 251.735 339.883 251.266 338.432C251.205 338.199 251.119 337.93 251.082 337.697C250.871 336.895 250.871 336.052 251.082 335.25C251.185 334.9 251.406 334.598 251.706 334.393H251.78C251.78 334.393 251.878 334.393 251.902 334.393C251.967 334.401 252.033 334.401 252.098 334.393C252.336 334.36 252.579 334.398 252.796 334.503C253.23 334.684 253.613 334.97 253.91 335.335C254.273 335.766 254.578 336.244 254.815 336.755C254.962 336.988 255.072 337.257 255.207 337.526V337.71C255.25 337.791 255.283 337.877 255.305 337.967C255.322 338.027 255.322 338.09 255.305 338.15L256.737 338.248C256.449 337.336 256.037 336.467 255.513 335.666C255.133 334.971 254.609 334.366 253.975 333.891C253.342 333.416 252.614 333.082 251.841 332.912C251.266 332.845 250.688 333.007 250.23 333.361C249.773 333.716 249.472 334.236 249.393 334.809C249.253 335.75 249.341 336.712 249.65 337.612Z" fill="#407BFF"/>
<path d="M241.755 337.037C242.011 338.181 242.491 339.264 243.167 340.222C243.844 341.18 244.703 341.994 245.697 342.618C246.615 343.206 246.921 341.969 246.052 341.394C244.779 340.555 243.829 339.307 243.359 337.857C243.298 337.624 243.224 337.355 243.187 337.122C242.971 336.321 242.971 335.476 243.187 334.674C243.292 334.329 243.513 334.031 243.812 333.83C243.84 333.815 243.865 333.794 243.885 333.768C243.885 333.768 243.995 333.768 244.007 333.768C244.072 333.777 244.138 333.777 244.203 333.768C244.446 333.74 244.691 333.778 244.913 333.879C245.342 334.064 245.719 334.35 246.015 334.711C246.383 335.139 246.688 335.617 246.921 336.131C247.066 336.38 247.196 336.638 247.312 336.902V337.086C247.356 337.172 247.393 337.262 247.422 337.355C247.422 337.355 247.484 337.465 247.422 337.526L248.854 337.636C248.563 336.721 248.151 335.849 247.63 335.041C247.251 334.346 246.727 333.741 246.094 333.266C245.46 332.791 244.732 332.457 243.958 332.287C243.382 332.225 242.804 332.389 242.347 332.745C241.89 333.102 241.59 333.623 241.51 334.197C241.353 335.149 241.437 336.125 241.755 337.037Z" fill="#407BFF"/>
<path d="M233.848 336.461C234.374 338.769 235.791 340.775 237.79 342.043C238.72 342.63 239.014 341.394 238.145 340.819C236.874 339.985 235.927 338.741 235.464 337.294C235.386 337.053 235.324 336.808 235.28 336.559C235.069 335.757 235.069 334.914 235.28 334.111C235.389 333.765 235.614 333.467 235.917 333.267C235.937 333.27 235.958 333.27 235.978 333.267C235.978 333.267 236.088 333.267 236.113 333.267H236.296C236.539 333.238 236.784 333.276 237.006 333.377C237.435 333.562 237.812 333.848 238.108 334.209C238.48 334.634 238.785 335.112 239.014 335.629C239.159 335.882 239.289 336.144 239.405 336.412V336.584C239.457 336.666 239.495 336.757 239.515 336.853C239.515 336.914 239.577 336.975 239.515 337.024L240.948 337.134C240.661 336.217 240.249 335.344 239.724 334.54C239.345 333.843 238.822 333.237 238.188 332.762C237.554 332.287 236.826 331.954 236.051 331.786C235.476 331.726 234.899 331.891 234.443 332.247C233.987 332.603 233.686 333.122 233.603 333.695C233.464 334.623 233.548 335.572 233.848 336.461Z" fill="#407BFF"/>
<path d="M225.941 335.886C226.47 338.199 227.891 340.209 229.895 341.48C230.813 342.055 231.119 340.819 230.25 340.256C228.973 339.42 228.023 338.171 227.557 336.718C227.496 336.486 227.41 336.229 227.373 335.996C227.166 335.193 227.166 334.351 227.373 333.548C227.473 333.201 227.695 332.901 227.998 332.704H228.071C228.071 332.704 228.169 332.704 228.194 332.704H228.389C228.626 332.667 228.869 332.701 229.087 332.802C229.519 332.987 229.901 333.272 230.201 333.634C230.565 334.065 230.869 334.542 231.107 335.054C231.254 335.298 231.364 335.568 231.498 335.837V336.008C231.54 336.095 231.573 336.185 231.596 336.278C231.596 336.339 231.596 336.4 231.596 336.449L233.028 336.559C232.742 335.642 232.33 334.768 231.804 333.964C231.426 333.27 230.901 332.666 230.268 332.192C229.634 331.719 228.906 331.388 228.132 331.223C227.557 331.156 226.979 331.318 226.522 331.672C226.064 332.027 225.764 332.546 225.684 333.12C225.549 334.049 225.637 334.998 225.941 335.886Z" fill="#407BFF"/>
<path d="M218.047 335.311C218.304 336.456 218.784 337.54 219.461 338.5C220.137 339.46 220.996 340.277 221.988 340.904C222.906 341.492 223.212 340.243 222.343 339.68C221.075 338.835 220.127 337.59 219.65 336.143C219.589 335.898 219.515 335.641 219.479 335.409C219.264 334.607 219.264 333.762 219.479 332.961C219.586 332.617 219.806 332.32 220.103 332.116H220.176C220.176 332.116 220.286 332.116 220.299 332.116H220.495C220.737 332.075 220.986 332.114 221.204 332.226C221.635 332.403 222.014 332.685 222.306 333.046C222.674 333.474 222.979 333.952 223.212 334.466C223.357 334.72 223.488 334.981 223.603 335.25V335.421C223.648 335.507 223.685 335.597 223.714 335.69C223.714 335.751 223.775 335.813 223.714 335.874L225.146 335.972C224.854 335.057 224.442 334.184 223.922 333.377C223.542 332.683 223.018 332.079 222.384 331.606C221.751 331.133 221.023 330.802 220.25 330.635C219.675 330.569 219.097 330.73 218.639 331.085C218.182 331.439 217.881 331.959 217.802 332.532C217.655 333.464 217.739 334.419 218.047 335.311Z" fill="#407BFF"/>
<path d="M210.14 334.735C210.668 337.045 212.083 339.055 214.081 340.329C215.011 340.917 215.305 339.668 214.436 339.105C213.165 338.266 212.22 337.018 211.755 335.568C211.677 335.328 211.616 335.082 211.572 334.833C211.361 334.031 211.361 333.188 211.572 332.385C211.681 332.036 211.905 331.734 212.208 331.529C212.228 331.532 212.249 331.532 212.269 331.529C212.269 331.529 212.379 331.529 212.404 331.529H212.588C212.83 331.493 213.077 331.532 213.298 331.639C213.725 331.82 214.103 332.101 214.399 332.459C214.769 332.892 215.077 333.374 215.317 333.891C215.461 334.139 215.587 334.397 215.697 334.662V334.833C215.747 334.917 215.784 335.008 215.807 335.103C215.807 335.164 215.868 335.225 215.807 335.286L217.239 335.384C216.952 334.467 216.54 333.594 216.015 332.789C215.635 332.096 215.11 331.492 214.477 331.019C213.843 330.546 213.115 330.215 212.343 330.047C211.768 329.984 211.192 330.147 210.735 330.501C210.278 330.855 209.977 331.373 209.895 331.945C209.752 332.881 209.836 333.838 210.14 334.735Z" fill="#407BFF"/>
<path d="M202.232 334.172C202.765 336.48 204.186 338.485 206.186 339.754C207.104 340.341 207.41 339.093 206.541 338.53C205.267 337.691 204.317 336.443 203.848 334.992C203.787 334.76 203.713 334.491 203.664 334.258C203.453 333.456 203.453 332.612 203.664 331.81C203.768 331.461 203.988 331.158 204.289 330.953H204.362C204.362 330.953 204.46 330.953 204.485 330.953C204.55 330.962 204.615 330.962 204.68 330.953C204.919 330.921 205.161 330.959 205.378 331.063C205.813 331.244 206.195 331.53 206.492 331.896C206.856 332.327 207.16 332.804 207.398 333.316C207.545 333.548 207.655 333.817 207.789 334.087V334.27C207.833 334.352 207.865 334.438 207.887 334.527C207.904 334.587 207.904 334.651 207.887 334.711L209.319 334.809C209.029 333.893 208.617 333.021 208.095 332.214C207.713 331.523 207.187 330.921 206.554 330.448C205.921 329.975 205.195 329.643 204.423 329.472C203.848 329.406 203.27 329.567 202.813 329.922C202.355 330.277 202.055 330.796 201.975 331.369C201.836 332.311 201.924 333.272 202.232 334.172Z" fill="#407BFF"/>
<path d="M203.897 363.805C198.548 374.736 185.256 388.285 184.068 397.208C183.699 399.407 184.049 401.666 185.065 403.651C186.082 405.635 187.711 407.239 189.711 408.224C189.711 408.224 180.69 412.594 180.959 420.905C181.106 425.189 188.059 428.714 188.059 428.714C188.059 428.714 180.996 432.533 181.682 439.914C182.245 445.789 189.124 448.482 189.124 448.482C189.124 448.482 184.056 455.275 186.504 461.04C191.535 472.815 242.221 473.402 250.262 454.822C254.02 446.168 241.633 446.695 241.633 446.695C241.633 446.695 259.259 441.64 259.65 431.187C260.042 420.734 243.983 422.398 243.983 422.398C243.983 422.398 261.021 417.343 260.336 406.486C259.614 395.177 243.836 399.583 243.836 399.583C243.836 399.583 255.195 392.068 252.759 383.867C248.745 370.329 227.214 387.049 216.039 384.283L210.103 365.837L203.897 363.805Z" fill="#FFC4C0"/>
<path d="M193.554 379.656C197.704 368.861 184.436 355.323 186.932 344.442C190.298 329.754 206.761 344.368 210.188 365.862L209.944 382.998L193.554 379.656Z" fill="#FFC4C0"/>
<path d="M190.176 449.033C190.017 449.033 189.956 449.253 190.176 449.29C206.798 453.549 226.37 453.133 242.416 446.842C242.943 446.634 242.832 445.691 242.208 445.813C224.338 449.118 208.279 450.697 190.176 449.033Z" fill="#263238"/>
<path d="M187.814 428.824C187.618 428.824 187.581 429.13 187.814 429.179C204.95 433.476 226.982 432.398 244.632 422.9C245.244 422.582 245.452 421.676 244.73 422.007C232.502 427.417 204.117 430.44 187.814 428.824Z" fill="#263238"/>
<path d="M244.95 398.506C227.679 406.951 209.454 409.02 190.396 408.445C190.152 408.445 190.164 408.787 190.396 408.849C199.638 411.664 211.804 410.77 221.217 409.265C229.978 408.039 238.266 404.541 245.256 399.118C245.525 398.897 245.256 398.334 244.95 398.506Z" fill="#263238"/>
<path d="M621.807 548.054L560.106 547.76L498.404 547.65L375 547.442L251.596 547.65L189.895 547.76L128.193 548.054L189.895 548.36L251.596 548.458L375 548.666L498.404 548.458L560.106 548.348L621.807 548.054Z" fill="#263238"/>
<path d="M546.103 496.095H600.473V577.663H546.103V496.095Z" fill="#407BFF"/>
<path d="M539.53 474.186H607.034V496.083H539.53V474.186Z" fill="#455A64"/>
<path d="M555.185 519.559H591.379V555.753H555.185V519.559Z" fill="white"/>
<path opacity="0.1" d="M600.473 496.095V502.448L569.861 514.015V577.65H555.185V496.095H600.473Z" fill="black"/>
<path d="M617.352 575.79C617.352 574.892 617.175 574.003 616.831 573.173C616.487 572.344 615.983 571.591 615.347 570.956C614.712 570.322 613.957 569.819 613.127 569.476C612.297 569.134 611.408 568.958 610.51 568.96H596.899C596 568.958 595.11 569.134 594.28 569.476C593.449 569.819 592.694 570.321 592.057 570.955C591.421 571.59 590.915 572.343 590.57 573.173C590.225 574.002 590.046 574.891 590.045 575.79C590.048 577.606 590.771 579.346 592.057 580.629C593.342 581.912 595.083 582.632 596.899 582.632H610.461C611.363 582.637 612.257 582.464 613.092 582.122C613.928 581.781 614.687 581.278 615.327 580.642C615.967 580.006 616.476 579.25 616.823 578.418C617.171 577.585 617.35 576.692 617.352 575.79Z" fill="#455A64"/>
<path d="M617.352 575.79C617.352 574.892 617.175 574.003 616.831 573.173C616.487 572.344 615.983 571.591 615.347 570.956C614.712 570.322 613.957 569.819 613.127 569.476C612.297 569.134 611.408 568.958 610.51 568.96H603.717V582.657H610.461C611.365 582.661 612.261 582.487 613.098 582.144C613.935 581.801 614.695 581.296 615.336 580.658C615.976 580.02 616.484 579.261 616.83 578.425C617.176 577.59 617.354 576.694 617.352 575.79Z" fill="#407BFF"/>
<path d="M524.328 575.79C524.33 576.689 524.508 577.578 524.854 578.407C525.199 579.237 525.704 579.99 526.341 580.625C526.977 581.259 527.732 581.761 528.563 582.104C529.394 582.446 530.284 582.621 531.182 582.62H544.683C545.582 582.621 546.472 582.446 547.303 582.104C548.133 581.761 548.888 581.259 549.525 580.625C550.161 579.99 550.667 579.237 551.012 578.407C551.357 577.578 551.536 576.689 551.538 575.79C551.538 573.972 550.815 572.229 549.53 570.943C548.245 569.658 546.501 568.936 544.683 568.936H531.134C529.324 568.949 527.593 569.676 526.318 570.96C525.043 572.245 524.328 573.981 524.328 575.79Z" fill="#455A64"/>
<path d="M524.328 575.79C524.33 576.689 524.508 577.578 524.854 578.407C525.199 579.237 525.704 579.99 526.341 580.625C526.977 581.259 527.732 581.761 528.563 582.104C529.394 582.446 530.284 582.621 531.183 582.62H537.915V568.936H531.134C529.324 568.949 527.593 569.676 526.318 570.96C525.044 572.245 524.328 573.981 524.328 575.79Z" fill="#407BFF"/>
<path d="M508.893 578.544C509.528 579.18 510.281 579.684 511.111 580.028C511.941 580.373 512.83 580.55 513.728 580.55C514.626 580.55 515.516 580.373 516.345 580.028C517.175 579.684 517.929 579.18 518.563 578.544L528.159 568.96C529.44 567.677 530.16 565.938 530.16 564.125C530.16 562.312 529.44 560.573 528.159 559.29C526.872 558.008 525.129 557.288 523.312 557.288C521.495 557.288 519.752 558.008 518.465 559.29L508.881 568.874C507.605 570.161 506.889 571.9 506.892 573.712C506.894 575.524 507.614 577.261 508.893 578.544Z" fill="#455A64"/>
<path d="M508.893 578.544C509.528 579.18 510.281 579.684 511.111 580.028C511.941 580.373 512.83 580.55 513.728 580.55C514.626 580.55 515.516 580.373 516.345 580.028C517.175 579.684 517.929 579.18 518.563 578.544L523.361 573.746L513.679 564.064L508.881 568.862C507.601 570.149 506.883 571.891 506.886 573.706C506.888 575.521 507.61 577.261 508.893 578.544Z" fill="#407BFF"/>
<path d="M570.914 589.487C570.912 588.588 570.733 587.699 570.388 586.869C570.043 586.04 569.537 585.286 568.901 584.652C568.264 584.018 567.509 583.515 566.678 583.173C565.848 582.83 564.958 582.655 564.059 582.657H550.509C549.611 582.655 548.721 582.83 547.89 583.173C547.059 583.515 546.304 584.018 545.668 584.652C545.031 585.286 544.526 586.04 544.181 586.869C543.835 587.699 543.657 588.588 543.655 589.487C543.658 591.302 544.382 593.043 545.667 594.325C546.952 595.608 548.694 596.329 550.509 596.329H564.059C565.875 596.329 567.617 595.608 568.902 594.325C570.187 593.043 570.91 591.302 570.914 589.487Z" fill="#455A64"/>
<path d="M570.914 589.487C570.912 588.588 570.733 587.699 570.388 586.869C570.043 586.04 569.537 585.286 568.901 584.652C568.264 584.018 567.509 583.515 566.678 583.173C565.848 582.83 564.958 582.655 564.059 582.657H557.278V596.353H564.059C564.96 596.353 565.853 596.176 566.685 595.83C567.517 595.485 568.274 594.979 568.91 594.341C569.547 593.703 570.052 592.946 570.395 592.113C570.739 591.28 570.915 590.388 570.914 589.487Z" fill="#407BFF"/>
<path d="M290.348 574.493L290.691 579.291C290.691 579.364 290.691 579.45 290.691 579.535C290.948 581.053 292.674 582.314 295.256 583.097C298.006 583.863 300.865 584.161 303.714 583.979L304.938 583.893C305.354 583.893 305.783 583.819 306.162 583.758C312.698 582.914 317.521 580.221 317.325 577.418L316.995 572.632C317.19 575.435 312.368 578.128 305.832 578.972L304.608 579.095C304.192 579.095 303.763 579.168 303.384 579.18C300.535 579.369 297.675 579.071 294.926 578.299C292.343 577.528 290.63 576.28 290.36 574.75C290.36 574.652 290.36 574.59 290.348 574.493Z" fill="#DBDBDB"/>
<path d="M312.454 568.825C309.712 568.06 306.861 567.762 304.02 567.944L305.893 578.96C305.489 578.96 305.061 579.058 304.669 579.083C304.278 579.107 303.837 579.156 303.445 579.18L301.572 568.164C294.84 569.021 289.932 571.836 290.434 574.737C290.679 576.267 292.405 577.516 294.987 578.311C297.737 579.077 300.596 579.375 303.445 579.193C303.861 579.193 304.29 579.193 304.669 579.095C305.049 578.997 305.514 579.021 305.893 578.972C312.625 578.116 317.533 575.3 317.032 572.4C316.775 570.87 315.024 569.609 312.454 568.825Z" fill="white"/>
<path d="M304.008 567.944L302.784 568.03L301.56 568.164L303.433 579.18C303.849 579.18 304.277 579.18 304.657 579.083C305.036 578.985 305.501 579.009 305.881 578.96L304.008 567.944Z" fill="#DBDBDB"/>
<path d="M291.107 583.33V588.128C291.113 588.209 291.113 588.291 291.107 588.373C290.972 589.903 289.344 591.31 286.848 592.29C284.168 593.273 281.342 593.799 278.488 593.844H277.264C276.847 593.844 276.419 593.844 276.04 593.844C269.454 593.526 264.424 591.225 264.399 588.409V583.611C264.399 586.414 269.454 588.715 276.04 589.046H277.264C277.671 589.069 278.08 589.069 278.488 589.046C281.341 589.004 284.167 588.483 286.848 587.504C289.369 586.524 290.972 585.129 291.107 583.587C291.114 583.501 291.114 583.415 291.107 583.33Z" fill="#DBDBDB"/>
<path d="M268.61 579.438C271.286 578.454 274.108 577.928 276.958 577.883L275.966 589.021C276.383 589.021 276.811 589.021 277.19 589.021H278.414L279.406 577.883C286.187 578.201 291.303 580.625 291.034 583.538C290.899 585.092 289.283 586.476 286.774 587.467C284.095 588.451 281.268 588.976 278.414 589.021H277.19C276.774 589.021 276.346 589.021 275.966 589.021C269.198 588.703 264.069 586.28 264.338 583.367C264.473 581.812 266.064 580.429 268.61 579.438Z" fill="white"/>
<path d="M276.958 577.883H278.182C278.598 577.883 279.006 577.883 279.406 577.883L278.414 589.021H277.19C276.774 589.021 276.346 589.021 275.966 589.021L276.958 577.883Z" fill="#DBDBDB"/>
<path d="M326.86 581.788C329.785 583.442 333.062 584.373 336.419 584.505C339.291 584.701 342.17 584.263 344.853 583.22C345.147 583.097 345.453 582.938 345.746 582.791C346.04 582.644 346.309 582.473 346.566 582.302C347.298 581.888 347.924 581.312 348.397 580.618C348.87 579.924 349.178 579.131 349.296 578.299L349.737 573.93C349.61 574.771 349.29 575.572 348.802 576.268C348.313 576.965 347.669 577.539 346.921 577.944C346.677 578.099 346.407 578.258 346.114 578.422C345.828 578.582 345.534 578.725 345.232 578.85C342.55 579.893 339.67 580.332 336.799 580.135C333.444 580.006 330.168 579.083 327.24 577.442C324.265 575.655 322.87 573.391 323.09 571.322L322.65 575.692C322.49 577.748 323.886 580.013 326.86 581.788Z" fill="#DBDBDB"/>
<path d="M345.281 578.85L345.036 581.396L327.264 570.735L327.692 566.365L347.007 577.944C346.775 578.103 346.493 578.262 346.199 578.422C345.905 578.581 345.624 578.715 345.281 578.85Z" fill="#407BFF"/>
<path d="M327.668 566.365C327.362 566.5 327.056 566.634 326.762 566.794C326.468 566.953 326.211 567.1 325.954 567.271L345.281 578.85C345.6 578.715 345.881 578.581 346.175 578.422C346.469 578.263 346.75 578.103 346.983 577.944L327.668 566.365Z" fill="#DBDBDB"/>
<path d="M325.954 567.271L325.514 571.628L344.853 583.207L345.281 578.85L325.954 567.271Z" fill="#DBDBDB"/>
<path d="M336.101 565.08C333.23 564.887 330.352 565.326 327.668 566.365L346.983 577.944C346.75 578.103 346.469 578.262 346.175 578.422C345.881 578.581 345.6 578.715 345.281 578.85L325.954 567.271C321.744 569.988 322.282 574.407 327.301 577.43C330.225 579.073 333.497 580 336.848 580.135C339.719 580.328 342.598 579.89 345.281 578.85C345.6 578.715 345.881 578.581 346.175 578.422C346.469 578.262 346.75 578.103 346.983 577.944C351.193 575.215 350.655 570.808 345.636 567.785C342.716 566.144 339.449 565.217 336.101 565.08Z" fill="white"/>
<path d="M256.211 578.262C253.29 579.915 250.017 580.847 246.664 580.98C243.788 581.178 240.904 580.739 238.218 579.695C237.924 579.572 237.618 579.413 237.324 579.266C237.031 579.119 236.761 578.948 236.517 578.777C235.772 578.371 235.132 577.798 234.646 577.104C234.16 576.41 233.84 575.612 233.714 574.774L233.273 570.404C233.401 571.245 233.722 572.045 234.21 572.741C234.699 573.438 235.341 574.012 236.088 574.419C236.333 574.574 236.602 574.733 236.896 574.896C237.181 575.056 237.475 575.199 237.777 575.325C240.464 576.37 243.347 576.808 246.223 576.61C249.574 576.485 252.847 575.562 255.77 573.917C258.744 572.13 260.14 569.866 259.932 567.797L260.372 572.167C260.58 574.236 259.185 576.488 256.211 578.262Z" fill="#DBDBDB"/>
<path d="M237.79 575.325L238.047 577.871L255.844 567.21L255.403 562.852L236.088 574.419C236.348 574.593 236.618 574.753 236.896 574.896C237.19 575.056 237.484 575.19 237.79 575.325Z" fill="#407BFF"/>
<path d="M255.403 562.852C255.709 562.975 256.015 563.122 256.309 563.268C256.602 563.415 256.859 563.574 257.129 563.746L237.789 575.325C237.483 575.19 237.19 575.056 236.896 574.896C236.618 574.753 236.348 574.593 236.088 574.419L255.403 562.852Z" fill="#DBDBDB"/>
<path d="M257.117 563.746L257.557 568.103L238.218 579.682L237.79 575.325L257.117 563.746Z" fill="#DBDBDB"/>
<path d="M246.982 561.567C249.849 561.363 252.727 561.802 255.403 562.852L236.088 574.419C236.348 574.593 236.618 574.753 236.896 574.896C237.19 575.056 237.483 575.19 237.789 575.325L257.129 563.746C261.327 566.475 260.801 570.882 255.77 573.905C252.846 575.548 249.574 576.475 246.223 576.61C243.351 576.816 240.47 576.376 237.789 575.325C237.483 575.19 237.19 575.056 236.896 574.896C236.618 574.753 236.348 574.593 236.088 574.419C231.878 571.69 232.416 567.283 237.435 564.26C240.357 562.616 243.63 561.692 246.982 561.567Z" fill="white"/>
<path d="M337.619 561.898L337.68 566.977C337.696 567.309 337.836 567.624 338.072 567.858C338.953 568.862 341.205 569.658 344.131 570.111C347.084 570.54 350.073 570.675 353.054 570.515L354.278 570.429L355.502 570.306C360.961 569.707 364.522 568.213 364.51 566.634L364.437 561.579C364.437 563.146 360.875 564.639 355.428 565.251C355.049 565.313 354.62 565.349 354.204 565.374L352.98 565.472C350 565.644 347.01 565.509 344.057 565.068C341.144 564.603 338.88 563.844 337.937 562.803C337.718 562.554 337.604 562.229 337.619 561.898Z" fill="#DBDBDB"/>
<path d="M354.192 565.362L354.265 570.429L355.489 570.306L355.428 565.239L354.192 565.362Z" fill="#DBDBDB"/>
<path d="M349.039 558.018L347.815 558.103C347.399 558.103 346.991 558.14 346.591 558.213L352.956 565.435L354.18 565.362L355.404 565.239L349.039 558.018Z" fill="#DBDBDB"/>
<path d="M346.603 558.213L346.676 563.281L353.041 570.515L352.968 565.435L346.603 558.213Z" fill="#DBDBDB"/>
<path d="M357.938 558.409C354.993 557.972 352.011 557.841 349.039 558.018L355.416 565.239L354.192 565.361L352.968 565.435L346.603 558.213C340.153 558.923 336.334 560.906 338.035 562.791C338.917 563.795 341.169 564.578 344.155 565.043C347.1 565.48 350.082 565.611 353.054 565.435L354.278 565.361L355.502 565.239C361.965 564.529 365.771 562.559 364.07 560.661C363.128 559.658 360.875 558.874 357.938 558.409Z" fill="white"/>
<path d="M304.534 562.289L304.461 567.357C304.459 567.522 304.423 567.686 304.355 567.837C304.288 567.989 304.191 568.125 304.069 568.238C303.188 569.242 300.936 570.037 298.01 570.502C295.061 570.932 292.076 571.067 289.1 570.906L287.876 570.808C287.484 570.808 287.068 570.747 286.652 570.686C281.193 570.086 277.631 568.593 277.655 567.014V561.947C277.655 563.526 281.217 565.019 286.664 565.619L287.888 565.741L289.112 565.827C292.088 566.012 295.075 565.876 298.022 565.423C300.948 564.97 303.2 564.199 304.081 563.171C304.214 563.063 304.323 562.93 304.401 562.778C304.479 562.626 304.524 562.46 304.534 562.289Z" fill="#DBDBDB"/>
<path d="M287.937 565.741L287.876 570.808C287.472 570.808 287.055 570.735 286.652 570.698L286.725 565.631L287.937 565.741Z" fill="#DBDBDB"/>
<path d="M293.102 558.397L294.326 558.483L295.55 558.593L289.185 565.827L287.961 565.741L286.737 565.631L293.102 558.397Z" fill="#DBDBDB"/>
<path d="M295.538 558.593L295.477 563.672L289.1 570.894L289.173 565.827L295.538 558.593Z" fill="#DBDBDB"/>
<path d="M284.216 558.789C287.157 558.358 290.134 558.227 293.102 558.397L286.737 565.631L287.961 565.741L289.185 565.827L295.55 558.593C302.013 559.315 305.819 561.286 304.118 563.171C303.237 564.174 300.985 564.97 298.059 565.423C295.111 565.864 292.125 565.999 289.149 565.827L287.925 565.741L286.701 565.631C280.226 564.921 276.419 562.938 278.133 561.053C279.014 560.049 281.278 559.254 284.216 558.789Z" fill="white"/>
<path d="M335.391 587.283L335.33 592.363C335.328 592.529 335.292 592.692 335.225 592.844C335.157 592.995 335.06 593.132 334.938 593.244C334.057 594.248 331.805 595.031 328.88 595.496C325.93 595.926 322.945 596.061 319.969 595.9L318.745 595.815L317.521 595.692C312.062 595.092 308.5 593.587 308.512 592.02L308.586 586.965C308.586 588.532 312.148 590.025 317.594 590.637L318.818 590.76L320.042 590.845C323.023 591.03 326.014 590.895 328.965 590.441C331.891 589.988 334.143 589.217 335.024 588.189C335.261 587.947 335.393 587.622 335.391 587.283Z" fill="#DBDBDB"/>
<path d="M318.806 590.784L318.733 595.864L317.509 595.741L317.582 590.674L318.806 590.784Z" fill="#DBDBDB"/>
<path d="M323.971 583.44L325.195 583.526L326.419 583.648L320.055 590.87L318.831 590.784L317.607 590.674L323.971 583.44Z" fill="#DBDBDB"/>
<path d="M326.407 583.599L326.346 588.666L319.969 595.888L320.042 590.821L326.407 583.599Z" fill="#DBDBDB"/>
<path d="M315.024 583.795C317.968 583.354 320.95 583.218 323.922 583.391L317.558 590.625L318.782 590.735L320.006 590.821L326.37 583.599C332.821 584.309 336.64 586.28 334.938 588.177C334.057 589.168 331.805 589.964 328.88 590.429C325.93 590.859 322.945 590.991 319.969 590.821L318.745 590.735L317.521 590.625C311.046 589.915 307.239 587.932 308.953 586.047C309.883 585.043 312.148 584.26 315.024 583.795Z" fill="white"/>
<path d="M206.994 476.707H164.582C161.829 476.707 159.189 477.801 157.243 479.747C155.296 481.694 154.203 484.334 154.203 487.087V580.429C154.203 581.458 154.611 582.445 155.339 583.173C156.067 583.9 157.054 584.309 158.083 584.309H213.432C214.461 584.309 215.448 583.9 216.176 583.173C216.903 582.445 217.312 581.458 217.312 580.429V487.074C217.309 484.334 216.222 481.707 214.289 479.764C212.356 477.822 209.734 476.723 206.994 476.707Z" fill="#407BFF"/>
<path d="M167.495 463.047H204.068V479.804H167.495V463.047Z" fill="#407BFF"/>
<path d="M154.203 511.75H217.361V554.333H154.203V511.75Z" fill="#EBEBEB"/>
<path d="M154.203 545.631H217.361V549.486H154.203V545.631Z" fill="#455A64"/>
<path d="M154.203 516.61H217.361V520.465H154.203V516.61Z" fill="#455A64"/>
<path d="M164.949 451.321H206.614V466.842H164.949V451.321Z" fill="#455A64"/>
<path d="M162.771 466.83H208.805V471.42H162.771V466.83Z" fill="#37474F"/>
<path d="M203.285 453.488H203.824C204.202 453.488 204.509 453.795 204.509 454.173V463.99C204.509 464.368 204.202 464.675 203.824 464.675H203.285C202.906 464.675 202.6 464.368 202.6 463.99V454.173C202.6 453.795 202.906 453.488 203.285 453.488Z" fill="#37474F"/>
<path d="M199.735 453.488H200.274C200.653 453.488 200.959 453.795 200.959 454.173V463.99C200.959 464.368 200.653 464.675 200.274 464.675H199.735C199.357 464.675 199.05 464.368 199.05 463.99V454.173C199.05 453.795 199.357 453.488 199.735 453.488Z" fill="#37474F"/>
<path d="M196.724 453.488H196.174C195.995 453.488 195.824 453.559 195.698 453.685C195.571 453.811 195.5 453.983 195.5 454.161V463.953C195.5 464.135 195.573 464.309 195.701 464.438C195.83 464.566 196.004 464.639 196.186 464.639H196.737C196.918 464.639 197.093 464.566 197.221 464.438C197.35 464.309 197.422 464.135 197.422 463.953V454.161C197.421 454.071 197.401 453.982 197.365 453.9C197.329 453.817 197.278 453.742 197.213 453.68C197.148 453.617 197.071 453.568 196.988 453.535C196.904 453.502 196.814 453.486 196.724 453.488Z" fill="#37474F"/>
<path d="M192.624 453.488H193.163C193.541 453.488 193.848 453.795 193.848 454.173V463.99C193.848 464.368 193.541 464.675 193.163 464.675H192.624C192.246 464.675 191.939 464.368 191.939 463.99V454.173C191.939 453.795 192.246 453.488 192.624 453.488Z" fill="#37474F"/>
<path d="M189.062 453.488H189.601C189.979 453.488 190.286 453.795 190.286 454.173V463.99C190.286 464.368 189.979 464.675 189.601 464.675H189.062C188.684 464.675 188.377 464.368 188.377 463.99V454.173C188.377 453.795 188.684 453.488 189.062 453.488Z" fill="#37474F"/>
<path d="M186.064 453.488H185.513C185.331 453.488 185.157 453.56 185.028 453.689C184.899 453.817 184.827 453.992 184.827 454.173V463.965C184.827 464.147 184.899 464.321 185.028 464.45C185.157 464.579 185.331 464.651 185.513 464.651H186.064C186.242 464.651 186.413 464.58 186.54 464.454C186.666 464.327 186.737 464.156 186.737 463.978V454.186C186.738 454.096 186.722 454.006 186.689 453.922C186.656 453.839 186.607 453.762 186.545 453.697C186.482 453.633 186.407 453.581 186.325 453.545C186.242 453.509 186.154 453.489 186.064 453.488Z" fill="#37474F"/>
<path d="M181.963 453.488H182.502C182.88 453.488 183.187 453.795 183.187 454.173V463.99C183.187 464.368 182.88 464.675 182.502 464.675H181.963C181.584 464.675 181.278 464.368 181.278 463.99V454.173C181.278 453.795 181.584 453.488 181.963 453.488Z" fill="#37474F"/>
<path d="M178.401 453.488H178.94C179.318 453.488 179.625 453.795 179.625 454.173V463.99C179.625 464.368 179.318 464.675 178.94 464.675H178.401C178.023 464.675 177.716 464.368 177.716 463.99V454.173C177.716 453.795 178.023 453.488 178.401 453.488Z" fill="#37474F"/>
<path d="M175.39 453.488H174.839C174.658 453.488 174.483 453.56 174.355 453.689C174.226 453.817 174.154 453.992 174.154 454.173V463.965C174.154 464.147 174.226 464.321 174.355 464.45C174.483 464.579 174.658 464.651 174.839 464.651H175.39C175.569 464.651 175.74 464.58 175.866 464.454C175.992 464.327 176.063 464.156 176.063 463.978V454.186C176.065 454.096 176.049 454.006 176.016 453.922C175.983 453.839 175.934 453.762 175.871 453.697C175.809 453.633 175.734 453.581 175.652 453.545C175.569 453.509 175.48 453.489 175.39 453.488Z" fill="#37474F"/>
<path d="M171.302 453.488H171.84C172.219 453.488 172.526 453.795 172.526 454.173V463.99C172.526 464.368 172.219 464.675 171.84 464.675H171.302C170.923 464.675 170.616 464.368 170.616 463.99V454.173C170.616 453.795 170.923 453.488 171.302 453.488Z" fill="#37474F"/>
<path d="M167.74 453.488H168.279C168.657 453.488 168.964 453.795 168.964 454.173V463.99C168.964 464.368 168.657 464.675 168.279 464.675H167.74C167.361 464.675 167.055 464.368 167.055 463.99V454.173C167.055 453.795 167.361 453.488 167.74 453.488Z" fill="#37474F"/>
</svg>
