<svg width="803" height="779" viewBox="0 0 803 779" fill="none" xmlns="http://www.w3.org/2000/svg">
<path fill-rule="evenodd" clip-rule="evenodd" d="M197.925 183.933C258.031 131.791 341.645 122.787 421.762 136.42C503.409 150.313 583.649 185.659 627.643 257.055C673.479 331.442 679.513 423.759 647.307 502.451C615.608 579.904 546.181 633.207 465.098 654.215C385.794 674.761 300.44 659.154 232.238 609.987C164.406 561.088 122.077 484.545 115.441 402.15C108.778 319.406 136.562 237.165 197.925 183.933Z" fill="#B8D7FA"/>
<path d="M203.12 246.38L113.28 246.24C113.28 246.24 117.75 240.43 122.68 239.71C122.68 239.71 132.3 211.21 148.34 211.03C163.25 210.87 169.2 228.6 169.2 228.6C169.2 228.6 176.11 220.66 182.71 224.31C189.31 227.96 193 238.37 193 238.37C193 238.37 200.44 242.38 203.12 246.38Z" fill="#EBEBEB"/>
<path d="M629.1 321.32L742.72 321.49C742.72 321.49 742.72 314.23 727.08 312.78C727.08 312.78 712.84 281.03 691.02 285.26C677.43 287.9 670.45 306.54 670.45 306.54C670.45 306.54 660.21 291.84 651.99 294.67C643.77 297.5 638.87 313.12 638.87 313.12C638.87 313.12 630.39 317.21 629.1 321.32Z" fill="#EBEBEB"/>
<path d="M421 322.08L498.26 322.19C498.26 322.19 490.98 315.4 487.74 315.39C484.5 315.38 475.07 292.59 462.99 293.54C450.91 294.49 444.46 311.45 444.46 311.45C444.46 311.45 429.77 306.82 421 322.08Z" fill="#EBEBEB"/>
<path d="M531.93 233.78L598 233.88C598 233.88 594.72 229.6 591.1 229.06C591.1 229.06 584.1 208.06 572.3 207.91C561.3 207.76 556.92 220.78 556.92 220.78C556.92 220.78 551.85 214.93 546.99 217.59C542.13 220.25 539.38 227.91 539.38 227.91C539.38 227.91 533.92 230.84 531.93 233.78Z" fill="#EBEBEB"/>
<path d="M139.39 380.94L205.45 381.04C205.45 381.04 202.18 376.76 198.55 376.22C198.55 376.22 191.55 355.22 179.75 355.07C168.75 354.92 164.37 367.95 164.37 367.95C164.37 367.95 159.3 362.09 154.45 364.76C149.6 367.43 146.83 375.07 146.83 375.07C146.83 375.07 141.37 378 139.39 380.94Z" fill="#EBEBEB"/>
<path d="M584.12 545.87C578.12 546.08 571.49 546.42 566.55 542.55C561.99 538.98 557.91 533.65 558.55 527.55C558.72 525.8 559.12 524.73 560.99 525.47C563.84 526.6 565.99 529.75 567.99 531.95C570.499 534.826 573.275 537.458 576.28 539.81C578.4 541.43 580.69 542.81 582.85 544.42C583.13 544.61 583.4 544.81 583.67 545.02L583.98 545.25H584.15C584.198 545.248 584.245 545.26 584.288 545.282C584.33 545.305 584.365 545.339 584.39 545.38C584.423 545.426 584.442 545.481 584.447 545.537C584.451 545.594 584.439 545.65 584.414 545.701C584.388 545.751 584.349 545.794 584.3 545.824C584.252 545.854 584.197 545.87 584.14 545.87H584.12Z" fill="#407BFF"/>
<path d="M584.42 545.48C579.17 545.39 573.5 545.63 569.31 542.07C567.381 540.363 565.734 538.361 564.43 536.14C563.83 535.14 562.01 532.21 562.76 531.04C564.13 528.92 570.38 537.56 571.24 538.39C574.523 541.354 578.515 543.421 582.83 544.39C583.11 544.58 583.38 544.78 583.65 544.99C580.582 544.365 577.639 543.236 574.94 541.65C571.22 539.43 569.15 536.14 566.23 533.07C565.6 532.41 563.7 530.18 562.99 531.57C562.51 532.48 564.27 535.37 564.65 535.98C565.889 538.082 567.444 539.98 569.26 541.61C573.44 545.27 579.08 545.14 584.37 545.36C584.395 545.396 584.412 545.437 584.42 545.48Z" fill="white"/>
<path d="M587.42 549.52C587.36 549.74 587.32 549.97 587.27 550.21C587.266 550.237 587.254 550.263 587.237 550.284C587.219 550.305 587.196 550.321 587.17 550.33C587.111 550.352 587.046 550.352 586.987 550.33C586.929 550.308 586.88 550.265 586.85 550.21C586.84 550.188 586.835 550.164 586.835 550.14C586.835 550.116 586.84 550.092 586.85 550.07V549.97L586.91 549.77C586.913 549.747 586.913 549.723 586.91 549.7C585.91 545.75 585.44 541.65 584.33 537.7C583.27 533.93 581.94 530.23 581.18 526.38C580.69 523.95 579.01 511.77 584.37 513.29C586.75 513.96 588.37 517.41 589.29 519.47C590.472 522.244 591.15 525.208 591.29 528.22C591.64 535.64 588.92 542.39 587.42 549.52Z" fill="#407BFF"/>
<path d="M589.13 534.35C589.245 531.566 588.955 528.781 588.27 526.08C588.03 525.15 586.87 520.67 585.35 520.78C584.35 520.84 584.2 522.78 584.12 523.42C583.78 526.13 584.65 528.9 585.18 531.53C586.25 536.896 586.918 542.335 587.18 547.8C587.18 548.15 587.08 548.5 587.04 548.8C587 549.1 586.97 549.37 586.93 549.66V549.96V550.19C586.958 550.245 587.005 550.287 587.062 550.309C587.119 550.331 587.183 550.331 587.24 550.31C587.24 550.09 587.31 549.86 587.34 549.64C587.34 549.83 587.34 550 587.34 550.19L587.46 549.63C587.455 549.587 587.455 549.543 587.46 549.5C587.46 549.19 587.46 548.88 587.46 548.59C588.08 543.86 589 539.14 589.13 534.35ZM587.32 546.65C587.167 543.45 586.86 540.267 586.4 537.1C586.04 534.55 585.56 532.02 585.02 529.51C584.679 528.09 584.451 526.646 584.34 525.19C584.29 524.08 584.45 519.97 586.57 522.52C588.1 524.37 588.47 528.3 588.65 530.57C588.835 533.089 588.785 535.62 588.5 538.13C588.22 541 587.75 543.81 587.32 546.65Z" fill="white"/>
<path d="M590.63 565.9H590.41C584.95 565.62 577.67 566.13 573.13 562.52C569.78 559.85 566.48 554.58 567.54 550.11C568.75 545.11 575.54 551.11 577.36 552.57C582.058 556.651 586.525 560.992 590.74 565.57C590.74 565.57 590.74 565.63 590.81 565.67C590.87 565.82 590.75 565.87 590.63 565.9Z" fill="#407BFF"/>
<path d="M590.82 565.74L589.82 565.15C586.23 562.89 582.74 560.47 579.38 557.89C578.52 557.24 572.38 551.77 571.45 553.73C570.9 554.91 572.92 557.32 573.57 558.13C574.739 559.585 576.141 560.835 577.72 561.83C581.36 564.1 585.77 564.59 589.89 565.68L590.47 565.83L590.57 565.9C590.75 565.87 590.86 565.82 590.82 565.74ZM580 562.63C578.264 561.841 576.672 560.766 575.29 559.45C574.37 558.58 571.14 555.31 572 553.97C572.46 553.25 572.83 553.63 573.7 554.06C574.101 554.258 574.489 554.482 574.86 554.73C575.78 555.33 576.62 556.03 577.47 556.73C578.97 557.93 580.494 559.093 582.04 560.22C584.58 562.073 587.184 563.82 589.85 565.46C586.6 564.43 583.14 564 580 562.63Z" fill="white"/>
<path d="M600.6 554.65C599.178 560.908 595.923 566.601 591.25 571C591.218 571.028 591.18 571.048 591.14 571.06C591.089 571.076 591.034 571.074 590.983 571.056C590.933 571.038 590.89 571.004 590.86 570.96C590.821 570.918 590.8 570.862 590.8 570.805C590.8 570.748 590.821 570.692 590.86 570.65C590.96 570.56 591.05 570.46 591.14 570.37C592.04 562.94 593.04 555.57 593.8 548.12C593.98 546.37 595.36 535.21 598.8 537.02C600.91 538.15 601.06 542.72 601.24 544.78C601.532 548.083 601.316 551.412 600.6 554.65Z" fill="#407BFF"/>
<path d="M598.62 544.7C598.44 544.08 598.11 543.44 597.42 543.88C596.08 544.71 595.56 549.96 595.34 551.41C594.42 557.41 593 563.16 591.56 569.02L591.2 570.51L590.86 570.95C590.89 570.994 590.933 571.028 590.983 571.046C591.034 571.064 591.089 571.065 591.14 571.05C591.14 571.05 591.14 570.95 591.19 570.9C591.24 570.85 591.49 570.51 591.63 570.3C593.958 567.088 595.77 563.532 597 559.76C597.779 557.374 598.311 554.914 598.59 552.42C598.89 550.13 599.31 547 598.62 544.7ZM591.62 569.9C591.56 570 591.49 570.09 591.42 570.19C591.49 569.99 591.55 569.79 591.61 569.59C593.013 565.137 594.125 560.597 594.94 556C595.34 553.65 595.59 551.29 596.07 549C596.27 548 596.75 545.22 597.57 544.76C598.39 544.3 598.36 545.4 598.44 546.03C598.5 546.48 598.5 547.31 598.51 547.73C598.604 555.662 596.189 563.422 591.61 569.9H591.62Z" fill="white"/>
<path d="M592.15 587H591.06C591.06 586 591.06 585.07 590.99 584.12C590.86 580.24 590.71 576.36 590.48 572.49C590.35 570.27 590.19 568.08 589.96 565.91C589.955 565.833 589.955 565.757 589.96 565.68C589.96 565.51 589.91 565.33 589.89 565.15C589.87 564.97 589.89 564.77 589.82 564.57C589.329 559.652 588.064 554.843 586.07 550.32C585.38 548.81 584.62 547.32 583.82 545.88C583.75 545.74 583.67 545.6 583.59 545.46L583.53 545.35L583.29 544.92C583.22 544.8 583.17 544.7 583.1 544.59C580.57 540.15 577.69 535.9 574.95 531.59C574.16 530.36 573.37 529.13 572.61 527.9C572.553 527.834 572.506 527.76 572.47 527.68C572.404 527.594 572.344 527.504 572.29 527.41C568.85 521.98 565.46 516.5 561.89 511.17C561.75 510.97 562.07 510.8 562.2 510.99C564.62 514.53 567.12 517.99 569.6 521.51L570.6 522.9L572.55 525.67C573.85 527.52 575.12 529.37 576.37 531.25C580.03 536.462 583.37 541.892 586.37 547.51C586.59 547.94 586.79 548.37 586.99 548.8C587.12 549.07 587.25 549.34 587.37 549.61L587.79 550.54C590.22 556.1 591.08 561.83 591.47 567.74C591.47 568.14 591.47 568.56 591.54 568.98C591.54 569.16 591.54 569.36 591.54 569.55C591.54 569.74 591.54 569.75 591.54 569.86C591.54 569.97 591.54 570.11 591.54 570.25C591.54 570.35 591.54 570.45 591.54 570.55C591.54 570.9 591.54 571.25 591.59 571.61C591.75 575.49 591.85 579.37 591.93 583.24C592.06 584.52 592.11 585.76 592.15 587Z" fill="#407BFF"/>
<path d="M559.56 516.75C556.56 512.75 552.75 504.44 557.15 500.13C557.95 499.297 559.029 498.789 560.18 498.702C561.332 498.615 562.474 498.956 563.39 499.66C565.72 501.35 566.77 504.53 567.52 507.16C569.52 514.16 570.88 521.36 573.4 528.25C573.4 528.25 573.61 528.84 573.67 528.99C573.73 529.14 573.49 529.19 573.44 529.05C573.39 528.91 573.28 528.6 573.19 528.38C568.43 524.93 563.11 521.52 559.56 516.75Z" fill="#407BFF"/>
<path d="M573.44 528.27C573.416 528.228 573.389 528.188 573.36 528.15C572.328 526.47 571.397 524.73 570.57 522.94C568.902 519.195 567.466 515.351 566.27 511.43C565.79 509.92 563.65 502.54 561.01 505.48C559.9 506.72 560.01 508.91 560.23 510.43C560.53 512.866 561.312 515.219 562.53 517.35C564.9 521.62 568.58 524.85 572.45 527.72L572.97 528.12L573.09 528.3C573.103 528.345 573.127 528.386 573.16 528.42L573.22 528.48C573.242 528.491 573.266 528.498 573.291 528.499C573.316 528.5 573.34 528.495 573.363 528.486C573.386 528.476 573.407 528.462 573.423 528.444C573.44 528.425 573.453 528.404 573.46 528.38C573.467 528.362 573.469 528.342 573.465 528.322C573.461 528.303 573.453 528.285 573.44 528.27ZM572.27 527.45C569.055 525.08 566.219 522.234 563.86 519.01C562.671 517.295 561.747 515.411 561.12 513.42C560.848 512.535 560.651 511.628 560.53 510.71C560.425 510.025 560.385 509.332 560.41 508.64C560.41 507.12 561.08 505.46 561.98 505.3C563.09 505.1 563.46 505.75 564.19 507.03C564.438 507.459 564.658 507.903 564.85 508.36C565.323 509.505 565.737 510.673 566.09 511.86C566.71 513.81 567.34 515.75 568.04 517.68C568.51 518.98 569.04 520.28 569.58 521.55C570.524 523.742 571.616 525.867 572.85 527.91C572.66 527.77 572.47 527.61 572.27 527.45Z" fill="white"/>
<path d="M274.4 528C273.91 532 273.15 535.93 272.34 539.86C271.89 542.09 271.41 544.31 270.95 546.55C270.46 549.01 269.73 551.55 270.39 554C270.405 554.116 270.405 554.234 270.39 554.35C270.358 554.393 270.315 554.426 270.265 554.446C270.215 554.466 270.16 554.471 270.108 554.462C270.055 554.453 270.005 554.429 269.965 554.393C269.925 554.358 269.896 554.311 269.88 554.26C269.875 554.203 269.875 554.147 269.88 554.09V554.04C269.509 553.396 269.214 552.712 269 552C268.217 550.122 267.549 548.199 267 546.24C265.824 542.26 265.152 538.148 265 534C264.895 530.275 265.285 526.552 266.16 522.93C266.87 520.03 267.88 515.72 270.04 513.5C272.04 511.5 273.62 514.71 274.18 516.33C275.48 520 274.87 524.21 274.4 528Z" fill="#407BFF"/>
<path d="M270.83 519.53C269.38 519.53 268.33 524.22 267.83 526.25C267.018 529.444 266.602 532.725 266.59 536.02C266.598 541.935 267.612 547.805 269.59 553.38C269.66 553.61 269.73 553.84 269.82 554.06C269.82 554.06 269.82 554.06 269.82 554.12C269.82 554.18 269.82 554.22 269.82 554.27C269.836 554.322 269.866 554.369 269.906 554.405C269.947 554.441 269.996 554.466 270.05 554.476C270.103 554.486 270.158 554.482 270.21 554.463C270.261 554.445 270.306 554.412 270.34 554.37C270.25 553.87 270.17 553.37 270.12 552.9C270.07 552.43 270.02 552.02 269.99 551.59C269.59 546.82 270.27 541.95 270.88 537.22C271.65 531.66 272.76 519.54 270.83 519.53ZM269.83 552.53C269.903 553.197 270.003 553.837 270.13 554.45C269.98 553.99 269.83 553.52 269.69 553.06C268.091 548.1 267.17 542.947 266.95 537.74C266.853 534.809 267.068 531.876 267.59 528.99C267.874 527.442 268.252 525.913 268.72 524.41C268.92 523.78 269.98 519.85 270.87 520.05C271.5 520.19 271.65 523.72 271.66 523.8C271.66 524.5 271.66 525.21 271.66 525.93C271.66 527.39 271.54 528.85 271.42 530.3C271.14 533.46 270.69 536.61 270.31 539.75C269.638 543.972 269.464 548.258 269.79 552.52L269.83 552.53Z" fill="white"/>
<path d="M297.28 539C294.61 544.2 290.12 548.18 285.48 551.6C282.99 553.43 280.42 555.14 277.9 556.91C275.548 558.348 273.35 560.024 271.34 561.91L271.09 562.18C270.571 562.75 270.118 563.378 269.74 564.05C269.726 564.073 269.707 564.092 269.684 564.105C269.662 564.119 269.636 564.128 269.61 564.13C269.584 564.208 269.554 564.285 269.52 564.36C269.52 564.373 269.515 564.386 269.505 564.395C269.496 564.405 269.483 564.41 269.47 564.41C269.457 564.41 269.444 564.405 269.435 564.395C269.425 564.386 269.42 564.373 269.42 564.36V564.1C269.397 564.072 269.385 564.036 269.385 564C269.385 563.964 269.397 563.928 269.42 563.9C269.431 563.87 269.448 563.843 269.47 563.82V563.56C270.23 557.48 274.47 551.33 278.08 546.65C281.69 541.97 286.08 537.83 291.67 535.65C293.07 535.11 296.24 533.65 297.67 534.77C299.1 535.89 297.85 537.88 297.28 539Z" fill="#407BFF"/>
<path d="M293.16 539C291.89 537.73 288.16 540.86 287.23 541.59C284.44 543.86 281.857 546.374 279.51 549.1C275.497 553.308 272.17 558.12 269.65 563.36L269.52 563.53C269.515 563.617 269.515 563.703 269.52 563.79V563.87C269.496 563.897 269.482 563.933 269.482 563.97C269.482 564.007 269.496 564.042 269.52 564.07L269.7 563.86C270.16 563.29 270.7 562.73 271.15 562.18L271.4 561.92C274.88 558.17 278.99 555.01 282.95 551.73C285.734 549.481 288.305 546.98 290.63 544.26C291.15 543.57 294.22 540.08 293.16 539ZM292 541.8C288.86 547.02 283.4 550.8 278.78 554.63C275.594 557.134 272.654 559.937 270 563C272.456 558.34 275.523 554.029 279.12 550.18C281.087 547.91 283.18 545.753 285.39 543.72C286.581 542.628 287.851 541.625 289.19 540.72C289.989 540.158 290.852 539.691 291.76 539.33C293.51 538.74 292.53 540.9 292 541.8Z" fill="white"/>
<path d="M268.89 576.47C268.861 576.516 268.822 576.554 268.774 576.58C268.727 576.606 268.674 576.62 268.62 576.62C268.62 576.62 268.62 576.68 268.69 576.72C268.704 576.74 268.709 576.765 268.706 576.789C268.703 576.813 268.691 576.835 268.673 576.851C268.654 576.867 268.63 576.876 268.606 576.876C268.582 576.875 268.558 576.866 268.54 576.85C263.61 571.85 258.86 565.73 256.4 559.09C255.347 556.287 254.753 553.332 254.64 550.34C254.64 548.34 254.48 544.17 256.23 542.68C259.76 539.68 262.97 552.4 263.45 554.32C264.32 557.81 264.89 561.37 265.7 564.88C266.58 568.73 267.7 572.5 268.9 576.26C268.922 576.329 268.919 576.403 268.89 576.47Z" fill="#407BFF"/>
<path d="M268.89 576.47C268.7 576.14 268.51 575.82 268.34 575.47C265.359 570.141 263.22 564.383 262 558.4C261.468 555.377 260.685 552.403 259.66 549.51C259.37 548.8 258.49 546.09 257.32 547.46C256.72 548.17 257.22 553.31 257.46 554.63C258.054 557.649 259.014 560.584 260.32 563.37C262.453 568.065 265.168 572.472 268.4 576.49L268.68 576.85C268.689 576.842 268.696 576.832 268.701 576.82C268.705 576.809 268.708 576.797 268.708 576.785C268.708 576.773 268.705 576.761 268.701 576.75C268.696 576.738 268.689 576.728 268.68 576.72C268.655 576.688 268.631 576.655 268.61 576.62C268.666 576.622 268.721 576.608 268.77 576.582C268.819 576.556 268.861 576.517 268.89 576.47ZM261.74 565.54C260.319 562.839 259.183 559.997 258.35 557.06C258.038 555.888 257.791 554.699 257.61 553.5C257.461 552.557 257.381 551.605 257.37 550.65C257.37 548.33 257.57 547.73 257.96 547.65C258.2 547.65 258.53 547.85 259.22 549.24C259.642 550.146 259.977 551.09 260.22 552.06C260.58 553.43 260.9 554.81 261.22 556.2C261.82 558.97 262.39 561.75 263.22 564.46C264.352 568.368 266 572.107 268.12 575.58C265.716 572.418 263.582 569.06 261.74 565.54Z" fill="white"/>
<path d="M284.7 564.28C284.122 566.727 283.02 569.02 281.47 571C278.54 575 274.8 578.4 271.61 582.22C271.13 582.79 270.61 583.37 270.21 583.97C270.21 584.03 269.8 584.88 269.8 584.81C269.8 584.74 269.86 584.47 269.96 583.93C270.47 581.26 272.15 573.17 274.25 569.04C275.506 566.423 277.074 563.969 278.92 561.73C279.82 560.73 281.92 558.49 283.56 558.98C285.2 559.47 285 563 284.7 564.28Z" fill="#407BFF"/>
<path d="M282.1 562.64C280.39 561.58 275.97 569.46 275.38 570.48C273.202 574.247 271.521 578.281 270.38 582.48C270.25 582.95 270.13 583.42 270 583.91C269.87 584.4 269.84 584.77 269.84 584.79C269.84 584.81 270.21 584.02 270.25 583.94L270.49 583.64C270.87 583.15 271.25 582.64 271.64 582.2C273.56 579.33 275.53 576.49 277.39 573.58C278.752 571.493 279.942 569.299 280.95 567.02C281.14 566.53 282.85 563.1 282.1 562.64ZM281.61 564.86C279.17 571.72 274.2 577.12 270.41 583.21C270.34 583.32 270.29 583.41 270.22 583.51C270.28 583.33 270.33 583.15 270.38 582.97C271.395 579.518 272.734 576.17 274.38 572.97C275.394 571.022 276.523 569.135 277.76 567.32C278.402 566.3 279.106 565.322 279.87 564.39C280.23 564 281.24 562.97 281.58 563.15C281.92 563.33 281.77 564.41 281.61 564.86Z" fill="white"/>
<path d="M301.89 507.67C296.81 519.36 283.46 524.8 277.67 536.07V536.13C277.49 536.47 277.33 536.82 277.16 537.18C277.144 537.215 277.12 537.245 277.09 537.268C277.059 537.291 277.024 537.307 276.986 537.313C276.948 537.319 276.91 537.315 276.874 537.302C276.838 537.29 276.805 537.268 276.78 537.24C276.76 537.21 276.75 537.176 276.75 537.14C276.75 537.104 276.76 537.07 276.78 537.04C276.812 536.953 276.852 536.869 276.9 536.79C277.8 529.79 280.68 522.52 284.04 516.33C286.97 510.94 290.97 505.9 296.51 503.06C297.88 502.36 300.51 500.88 302.07 502.06C303.63 503.24 302.52 506.23 301.89 507.67Z" fill="#407BFF"/>
<path d="M297.31 508.17C296.67 507.69 295.68 508.28 295.13 508.56C293.745 509.286 292.449 510.172 291.27 511.2C288.868 513.321 286.795 515.788 285.12 518.52C282.1 523.104 279.662 528.045 277.86 533.23C277.47 534.4 277.13 535.59 276.86 536.79C276.86 536.94 276.8 537.09 276.76 537.23C276.786 537.259 276.819 537.28 276.855 537.294C276.891 537.307 276.93 537.311 276.968 537.307C277.007 537.302 277.043 537.288 277.075 537.266C277.106 537.243 277.132 537.214 277.15 537.18C277.3 536.83 277.46 536.5 277.63 536.18C277.629 536.15 277.629 536.12 277.63 536.09C278.616 533.754 279.829 531.52 281.25 529.42C283.598 526.263 286.143 523.257 288.87 520.42C290 519.22 299.55 509.81 297.31 508.17ZM296.5 510.88C294.95 513.62 292.56 515.88 290.5 518.2C288.44 520.52 286.26 522.89 284.18 525.28C282.529 527.178 281.04 529.212 279.73 531.36C278.635 533.145 277.705 535.026 276.95 536.98C277.486 534.991 278.154 533.04 278.95 531.14C278.95 531.14 278.95 531.09 278.95 531.07C280.387 527.692 282.037 524.409 283.89 521.24C283.906 521.198 283.926 521.158 283.95 521.12C285.508 518.286 287.398 515.647 289.58 513.26C290.779 511.977 292.121 510.836 293.58 509.86C295.25 508.77 296.71 508.07 297.13 508.61C297.4 509 297 510.07 296.5 510.88Z" fill="white"/>
<path d="M284.13 521.37C282.6 524.67 281.13 528.01 279.69 531.37C279.01 532.94 278.33 534.51 277.69 536.08C277.688 536.11 277.688 536.14 277.69 536.17C277.45 536.74 277.2 537.31 276.96 537.87C274.76 543 272.33 548.25 270.96 553.68C270.275 556.561 269.866 559.501 269.74 562.46C269.74 562.77 269.74 563.08 269.74 563.38C269.74 563.55 269.74 563.71 269.74 563.88C269.735 563.973 269.735 564.067 269.74 564.16C269.65 566.72 269.74 569.29 269.74 571.79C269.81 575.28 270.1 578.74 270.44 582.2C270.44 582.3 270.44 582.4 270.44 582.5C270.44 582.6 270.44 582.82 270.44 582.97C270.44 583.12 270.44 583.13 270.44 583.21C270.44 583.29 270.44 583.51 270.44 583.66C270.55 584.77 270.65 585.88 270.74 587H269.68C268.993 583.607 268.562 580.167 268.39 576.71C268.385 576.637 268.385 576.563 268.39 576.49C268.39 576.16 268.39 575.82 268.39 575.49C268.39 575.16 268.34 574.66 268.33 574.25C268.33 573.25 268.27 572.25 268.25 571.25C268.15 565.55 268.25 559.61 269.47 554.02L269.58 553.56C269.592 553.492 269.609 553.425 269.63 553.36C269.644 553.248 269.667 553.138 269.7 553.03L269.84 552.5C269.92 552.19 270.01 551.87 270.11 551.57L270.19 551.29C271.8 546.439 273.741 541.705 276 537.12L277.17 534.62L277.84 533.23C278.18 532.53 278.53 531.83 278.84 531.14C278.84 531.14 278.84 531.09 278.84 531.07C280.47 527.78 282.17 524.54 283.78 521.24C283.94 521.09 284.2 521.21 284.13 521.37Z" fill="#407BFF"/>
<path d="M668.52 465.27C668.52 465.27 667.97 471.46 667.05 481.7C665.05 504.57 661.11 547.7 657.4 587H584C589.2 546.2 594.89 501.76 597.74 479.57C598.74 471.67 599.41 466.57 599.55 465.49V465.27H668.52Z" fill="#37474F"/>
<path d="M658.45 474.33L657.85 481.51C654.85 516.73 651.58 551.93 647.21 587H646C647.56 574.687 649.007 562.353 650.34 550C652.84 527.17 655.08 504.32 657.41 481.46C657.65 479.06 657.89 476.68 658.14 474.28C658.2 474.15 658.46 474.16 658.45 474.33Z" fill="#263238"/>
<path d="M685.3 465.27C685.3 465.27 684.19 471.53 682.36 481.89C678.3 504.8 670.71 547.76 663.74 587H628L620.25 535.88L620 534.4V534L619.16 528.49L618.85 526.43L611.85 480.1L609.6 465.27H685.3Z" fill="#263238"/>
<path d="M707.39 587H639.83C638.16 564.49 636.74 545.8 636.49 542.71V542.25C635.74 541.84 634.99 541.42 634.23 541.02C630.68 539.13 627.56 537.63 624.95 536.46L623.53 535.84C622.21 535.27 621.06 534.84 620.07 534.4C617.56 533.4 616.17 532.98 616.17 532.98C616.09 532.76 616 532.56 615.93 532.35C609.46 516 604.7 494 602 479.73C600.58 472.16 599.75 466.73 599.56 465.49C599.56 465.3 599.51 465.21 599.51 465.21H690.92C711.13 507.54 701.53 537.64 701.53 537.64C703.46 553.53 705.48 570.54 707.39 587Z" fill="#37474F"/>
<path d="M612.67 531.17C620.908 534.163 628.868 537.87 636.46 542.25C636.518 542.284 636.561 542.337 636.582 542.401C636.602 542.464 636.598 542.533 636.571 542.594C636.544 542.655 636.495 542.704 636.433 542.731C636.372 542.758 636.303 542.761 636.24 542.74C628.24 539.3 620.05 536 612.24 532.12C612.114 532.063 612.016 531.958 611.967 531.829C611.918 531.699 611.923 531.556 611.98 531.43C612.037 531.304 612.142 531.206 612.271 531.157C612.401 531.108 612.544 531.113 612.67 531.17Z" fill="#263238"/>
<path d="M610.12 476.18C610.12 475.9 610.63 475.84 610.63 476.18C610.57 485.69 611.17 494.06 611.97 502.95C612.35 507.08 615.67 529.9 622.82 528.23C624.02 527.95 624.63 526.77 624.82 524.97C625.05 522.8 624.23 520.13 623.82 517.97C623.03 513.2 622.39 508.4 621.98 503.58C621.145 494.594 621.243 485.546 622.27 476.58C622.27 476.519 622.294 476.461 622.337 476.417C622.38 476.374 622.439 476.35 622.5 476.35C622.561 476.35 622.619 476.374 622.662 476.417C622.706 476.461 622.73 476.519 622.73 476.58C622.73 489.05 623.05 501.49 624.91 513.83C625.81 519.77 628.8 528.7 622.59 529.61C616.38 530.52 612.18 515.61 611.41 511.49C609.31 500.07 609.22 487.73 610.12 476.18Z" fill="#263238"/>
<path d="M622.63 528.81C623.27 530.346 623.808 531.923 624.24 533.53C624.708 534.772 624.935 536.093 624.91 537.42C624.91 537.67 624.55 537.7 624.42 537.53C623.676 536.361 623.113 535.087 622.75 533.75C622.21 532.28 621.63 530.83 621.13 529.35C621.078 529.156 621.101 528.95 621.194 528.773C621.287 528.595 621.443 528.459 621.632 528.391C621.82 528.323 622.027 528.329 622.212 528.406C622.397 528.484 622.546 528.628 622.63 528.81Z" fill="#263238"/>
<path d="M664.59 302.86C673.03 314.02 673.59 330.5 673.59 330.5C673.59 330.5 680.72 348.03 676.85 356.43C675.799 358.827 674.183 360.933 672.14 362.568C670.097 364.204 667.688 365.319 665.12 365.82L666.74 361.09C666.74 361.09 662.74 366.9 651.8 367.93C640.86 368.96 627.4 363.73 620.67 359.03C616.668 356.268 613.45 352.516 611.33 348.14L613.05 355.59C613.05 355.59 602.87 353.79 598.33 342.04C593.79 330.29 613.45 317.11 615.4 314C617.35 310.89 622.72 286.53 647.97 294.43C648 294.38 658.79 295.18 664.59 302.86Z" fill="#263238"/>
<path d="M668.93 365.72C671.93 364.08 674.93 362.13 676.77 359.53C678.8 356.805 679.857 353.477 679.77 350.08C679.62 346 678.01 342.2 676.46 338.49C674.91 334.78 672.96 330.93 671.46 327.07C671.37 326.85 671.69 326.73 671.81 326.91C673.73 329.929 675.473 333.058 677.03 336.28C678.669 339.251 679.958 342.402 680.87 345.67C681.726 348.688 681.694 351.889 680.78 354.89C679.913 357.309 678.475 359.484 676.59 361.23C674.35 363.33 671.72 364.51 669.06 365.95C668.87 366 668.76 365.81 668.93 365.72Z" fill="#263238"/>
<path d="M597.71 330.52C602.09 321.92 611.04 317.33 617.1 310.14C620.38 306.25 623.1 301.82 627.1 298.6C627.21 298.52 627.36 298.7 627.25 298.79C623.92 301.73 621.69 305.51 619.08 309.04C616.343 312.528 613.264 315.734 609.89 318.61C603.89 324.03 596.73 330.43 596.69 339.19C596.69 343.24 598.39 347.96 602.29 349.78C602.44 349.85 602.29 350.09 602.16 350C600.645 349.13 599.324 347.96 598.277 346.562C597.23 345.164 596.479 343.568 596.07 341.87C595.235 338.012 595.817 333.984 597.71 330.52Z" fill="#263238"/>
<path d="M597 332.91C597.209 329.443 598.484 326.125 600.65 323.41C602.85 320.75 605.95 319.04 609.02 317.57C612.56 315.88 616.25 314.32 618.79 311.2C618.89 311.07 619.08 311.25 618.97 311.38C614.92 316.54 608.36 318.29 603.5 322.38C597.94 327.11 596.82 334.99 599.24 341.64C600.807 345.703 603.311 349.339 606.55 352.25C606.6 352.3 606.55 352.39 606.46 352.34C600.92 347.5 596.41 340.58 597 332.91Z" fill="#263238"/>
<path d="M632.07 379C608.94 405.06 585.16 423 569.14 422.63C554.08 422.29 512.55 410.54 508.14 406.54C504.66 403.4 532.21 370.54 536.71 372.8C545.46 377.1 571.5 388.39 573.81 388.85C576.12 389.31 599.72 377.47 623.31 365.85C635.85 359.68 645.72 363.58 632.07 379Z" fill="#FFC4C0"/>
<path d="M513.84 409.24C509.63 407.54 496.4 402.65 486.39 394.24C481.83 390.39 469.39 378.51 471.93 374.7C474.47 370.89 478.41 374.08 478.41 374.08C478.41 374.08 473.96 368.22 476.89 364.61C479.82 361 485.74 366.18 485.74 366.18C485.74 366.18 481.61 359.83 484.79 356.44C487.97 353.05 493.06 359.26 493.06 359.26C493.06 359.26 489.01 353.62 492.8 351.93C497.36 349.93 503.65 361.13 509.03 364.93C510.26 365.8 535.09 380.77 535.09 380.77L513.84 409.24Z" fill="#FFC4C0"/>
<path d="M492.61 358.7C497.25 366.95 500.71 369.76 508.91 374.18C509.07 374.27 508.98 374.53 508.8 374.45C500.38 370.85 495.53 367.96 492.2 358.91C492 358.47 492.39 358.31 492.61 358.7Z" fill="#263238"/>
<path d="M485.39 365.49C490.96 373.64 494.68 376.71 502.93 381.98C503.05 382.05 502.93 382.26 502.81 382.19C494.29 377.7 489.52 374.71 485.02 365.84C484.81 365.44 485.13 365.12 485.39 365.49Z" fill="#263238"/>
<path d="M478.84 374.3C484.84 381.8 488.74 385.3 497.4 389.44C497.421 389.449 497.44 389.461 497.456 389.477C497.472 389.493 497.485 389.512 497.494 389.533C497.503 389.554 497.507 389.576 497.508 389.599C497.508 389.621 497.503 389.644 497.495 389.665C497.486 389.686 497.474 389.705 497.458 389.721C497.442 389.737 497.423 389.75 497.402 389.759C497.381 389.768 497.359 389.773 497.336 389.773C497.313 389.773 497.291 389.769 497.27 389.76C488.03 386.46 483.09 382.06 478.63 374.51C478.33 374 478.46 373.83 478.84 374.3Z" fill="#263238"/>
<path d="M542.54 379.76C542.54 379.76 537.31 369.11 533.98 364.94C530.65 360.77 512.53 349.8 509.93 353.58C506.59 358.46 515.8 366.86 520.86 370.38C520.86 370.38 513.1 381.66 518.41 389.12C523.72 396.58 542.54 379.76 542.54 379.76Z" fill="#FFC4C0"/>
<path d="M509.45 355.22C509.61 361.88 516.54 366.07 521.19 369.86C521.262 369.911 521.321 369.978 521.362 370.056C521.402 370.135 521.423 370.222 521.423 370.31C521.423 370.398 521.402 370.485 521.362 370.564C521.321 370.642 521.262 370.709 521.19 370.76C518.26 375.7 515.56 383.53 518.07 389.06C518.083 389.091 518.085 389.127 518.074 389.159C518.063 389.191 518.041 389.219 518.011 389.236C517.982 389.253 517.947 389.259 517.914 389.252C517.88 389.246 517.85 389.227 517.83 389.2C514.33 383.64 516.35 375.72 519.91 370.51C515.09 366.71 508.32 362.19 509.42 355.22C509.4 355.18 509.45 355.18 509.45 355.22Z" fill="#263238"/>
<path d="M610.15 408.5L602.57 374.5C602.57 374.5 618.26 366.71 627.57 363.63C639.86 359.55 644.26 363.15 636.21 376.84C630.8 386 610.15 408.5 610.15 408.5Z" fill="#A6A6A6"/>
<path d="M612.61 404.33C611.85 399.33 611.01 394.33 609.96 389.33C609.43 386.85 606.81 377.05 606.25 374.59C606.25 374.45 606.02 374.51 606.04 374.59C606.44 377.7 608.61 387.51 609.15 389.99C610.21 394.99 611.45 399.37 612.4 404.34C612.42 404.53 612.63 404.47 612.61 404.33Z" fill="#263238"/>
<path d="M636.19 376.84C630.8 386 610.19 408.5 610.19 408.5L604.48 382.89L639.48 363.54C641.14 365.62 640.24 370 636.19 376.84Z" fill="#263238"/>
<path d="M690.93 465.21L599.57 465.49L606.38 422.44C606.38 422.44 598.93 412.27 601.93 402.44C606.14 388.7 627.01 365.31 628.83 363.89C636.15 358.17 646.91 358.84 652.22 363.69C684.8 393.45 690.93 465.21 690.93 465.21Z" fill="#FFC4C0"/>
<path d="M693.52 449.18L600.77 446.07L606.38 422.44C606.38 422.44 598.93 412.27 601.93 402.44C606.14 388.7 627.01 365.31 628.83 363.89C636.15 358.17 646.91 358.84 652.22 363.69C684.8 393.45 693.52 449.18 693.52 449.18Z" fill="#A6A6A6"/>
<path d="M635.83 419C631.401 419.234 626.996 419.795 622.65 420.68C620.5 421.15 618.38 421.68 616.26 422.33C615.26 422.64 614.15 422.91 613.08 423.17C611.976 423.482 610.837 423.657 609.69 423.69C609.669 423.69 609.648 423.698 609.633 423.713C609.618 423.728 609.61 423.749 609.61 423.77C609.61 423.791 609.618 423.812 609.633 423.827C609.648 423.842 609.669 423.85 609.69 423.85C611.825 424.062 613.981 423.92 616.07 423.43C618.25 422.97 620.42 422.43 622.6 421.94C627.01 420.94 631.41 420.01 635.88 419.36C636.07 419.36 636 419 635.83 419Z" fill="#263238"/>
<path d="M646.59 423.32C642.97 422.812 639.324 422.508 635.67 422.41C633.84 422.36 632.02 422.41 630.19 422.54C629.32 422.54 628.45 422.66 627.58 422.74C626.71 422.82 625.67 423.04 624.71 423.11C624.62 423.11 624.61 423.28 624.71 423.27C625.62 423.27 626.53 423.34 627.44 423.35H630.17C632 423.35 633.82 423.42 635.65 423.42C639.3 423.42 642.93 423.47 646.58 423.6C646.78 423.63 646.78 423.35 646.59 423.32Z" fill="#263238"/>
<path d="M616.91 452.61C617.54 452.863 618.107 453.254 618.567 453.754C619.027 454.254 619.37 454.851 619.57 455.5C619.788 456.145 619.903 456.82 619.91 457.5C619.944 458.194 619.87 458.889 619.69 459.56C619.581 459.927 619.397 460.268 619.15 460.56C619.006 460.732 618.827 460.872 618.626 460.97C618.424 461.068 618.204 461.123 617.98 461.13C617.752 461.144 617.524 461.107 617.312 461.02C617.101 460.934 616.912 460.8 616.76 460.63C616.507 460.321 616.347 459.946 616.3 459.55C616.207 458.86 616.279 458.157 616.51 457.5C616.707 456.857 617.094 456.289 617.62 455.87C617.252 456.382 617.027 456.982 616.97 457.61C616.877 458.206 616.9 458.814 617.04 459.4C617.32 460.6 618.52 460.4 618.74 459.25C618.889 458.676 618.956 458.083 618.94 457.49C618.956 456.885 618.896 456.28 618.76 455.69C618.627 455.095 618.408 454.522 618.11 453.99C617.819 453.446 617.408 452.974 616.91 452.61Z" fill="#263238"/>
<path d="M586.85 383.04L577.43 381.5L581.9 354.23L593.82 356.18L586.85 383.04Z" fill="#407BFF"/>
<path d="M593.81 356.18L591.16 366.43L586.84 383.05L577.42 381.5L581.89 354.23L593.81 356.18Z" fill="#407BFF"/>
<path opacity="0.1" d="M593.81 356.18L591.16 366.43L580.19 364.63L581.89 354.23L593.81 356.18Z" fill="black"/>
<path d="M598.164 348.808L583.284 346.403L581.459 357.699L596.338 360.104L598.164 348.808Z" fill="#407BFF"/>
<path d="M606.71 346.63L595.01 345.9L597.99 327.67L609.32 330.71L606.71 346.63Z" fill="#407BFF"/>
<path d="M592.66 323.09L588.25 349.99L568.54 349.14L520.9 358.31L531.49 293.7L573.71 317.61L592.66 323.09Z" fill="#407BFF"/>
<path d="M535.58 327.54C532.64 345.47 525.58 359.24 519.82 358.3C514.06 357.36 511.77 342.05 514.71 324.12C517.65 306.19 524.71 292.43 530.46 293.37C536.21 294.31 538.52 309.62 535.58 327.54Z" fill="#407BFF"/>
<path opacity="0.2" d="M533.24 326.59C530.63 342.5 524.69 354.78 520 354C515.31 353.22 513.57 339.69 516.18 323.78C518.79 307.87 524.73 295.59 529.45 296.36C534.17 297.13 535.85 310.67 533.24 326.59Z" fill="black"/>
<path d="M531.85 326.36C531.497 328.48 531.09 330.527 530.63 332.5C529.559 333.116 528.335 333.415 527.101 333.362C525.867 333.309 524.673 332.906 523.658 332.201C522.644 331.496 521.851 330.517 521.372 329.378C520.892 328.24 520.746 326.988 520.95 325.77L521.44 322.72C521.639 321.507 522.176 320.374 522.99 319.453C523.805 318.532 524.862 317.859 526.042 317.512C527.221 317.165 528.475 317.158 529.658 317.492C530.841 317.826 531.906 318.488 532.73 319.4C532.53 321.64 532.24 324 531.85 326.36Z" fill="#407BFF"/>
<path d="M598.43 353.19L575.79 351.76L581.57 316.51L603.48 322.39L598.43 353.19Z" fill="#407BFF"/>
<path opacity="0.2" d="M598.43 353.19L575.79 351.76L581.57 316.51L603.48 322.39L598.43 353.19Z" fill="black"/>
<path opacity="0.2" d="M533.78 298.62C534.989 300.79 535.792 303.162 536.15 305.62C536.572 308.055 536.796 310.519 536.82 312.99C536.87 314.23 536.82 315.46 536.82 316.7C536.82 317.94 536.68 319.16 536.56 320.39C536.44 321.62 536.33 322.85 536.16 324.07C535.99 325.29 535.83 326.51 535.62 327.73C534.829 332.59 533.594 337.366 531.93 342C531.089 344.326 530.042 346.571 528.8 348.71C527.596 350.878 525.947 352.766 523.96 354.25C525.842 352.672 527.387 350.73 528.5 348.54C529.667 346.389 530.644 344.141 531.42 341.82C532.984 337.175 534.148 332.404 534.9 327.56C535.766 322.754 536.228 317.883 536.28 313C536.314 310.551 536.157 308.104 535.81 305.68C535.551 303.226 534.864 300.837 533.78 298.62Z" fill="black"/>
<path d="M510.2 293.31C511.55 294.31 512.85 295.46 514.14 296.57C515.43 297.68 516.68 298.83 517.94 299.99C519.2 301.15 520.41 302.32 521.61 303.53L523.41 305.35C523.99 305.98 524.58 306.59 525.15 307.23C524.46 306.71 523.81 306.16 523.15 305.63L521.21 304C519.91 302.89 518.66 301.74 517.41 300.58C516.16 299.42 514.93 298.25 513.73 297.04C512.53 295.83 511.34 294.59 510.2 293.31Z" fill="#263238"/>
<path d="M520.3 343C518.44 343.51 516.57 343.93 514.69 344.34C512.81 344.75 510.93 345.12 509.05 345.48C507.17 345.84 505.27 346.17 503.37 346.48L500.52 346.9C499.52 347.01 498.61 347.15 497.65 347.24C498.58 346.98 499.52 346.77 500.45 346.53L503.26 345.9C505.13 345.48 507.02 345.12 508.9 344.76C510.78 344.4 512.68 344.07 514.58 343.76C516.48 343.45 518.38 343.2 520.3 343Z" fill="#263238"/>
<path d="M484.86 336.74C487.67 336.49 490.49 336.32 493.31 336.16C496.13 336 498.95 335.88 501.77 335.78C504.59 335.68 507.41 335.6 510.23 335.58H514.46C515.88 335.58 517.29 335.58 518.7 335.58C517.29 335.72 515.88 335.8 514.48 335.92L510.25 336.17C507.43 336.34 504.61 336.44 501.79 336.55C498.97 336.66 496.15 336.72 493.33 336.75C490.51 336.78 487.68 336.81 484.86 336.74Z" fill="#263238"/>
<path d="M494.45 294.06C496.88 295.58 499.26 297.17 501.64 298.77C504.02 300.37 506.36 302 508.7 303.64C511.04 305.28 513.37 306.96 515.7 308.64L519.14 311.21C520.27 312.08 521.42 312.94 522.54 313.84C521.32 313.08 520.13 312.29 518.92 311.52L515.35 309.13C512.98 307.54 510.63 305.9 508.29 304.25C505.95 302.6 503.62 300.94 501.29 299.25C498.96 297.56 496.7 295.84 494.45 294.06Z" fill="#263238"/>
<path d="M519.7 324.69C516.42 324.28 513.15 323.78 509.88 323.27C506.61 322.76 503.36 322.19 500.1 321.66C496.84 321.13 493.6 320.49 490.35 319.87L485.49 318.87C483.87 318.52 482.25 318.2 480.64 317.87C482.28 318.07 483.91 318.31 485.55 318.53L490.45 319.28C493.72 319.79 496.97 320.36 500.23 320.9C503.49 321.44 506.74 322.06 509.98 322.69C513.22 323.32 516.47 324 519.7 324.69Z" fill="#263238"/>
<path d="M665 377.78C679.14 398.11 693.87 430.64 686.55 447.69C679.55 464.11 606.05 436.89 595.37 429.56C590.72 426.36 609.09 384.19 614.37 387.14C621.42 391.07 654.18 412.3 654.91 412.4C654.91 412.4 652.75 401.4 648.53 382.75C642.43 355.66 654.87 363.16 665 377.78Z" fill="#FFC4C0"/>
<path d="M559.5 373.62C556.68 377.36 559.5 381.3 559.5 381.3C557.327 382.141 555.516 383.715 554.38 385.75C552.56 389.44 557.53 393.91 557.53 393.91C555.458 395.256 553.838 397.193 552.88 399.47C551.49 403.17 555.88 408.41 555.88 408.41C554.66 410.695 554.305 413.344 554.88 415.87C556.68 422.56 566.78 425.72 573.21 427.68C582.77 430.6 599.71 429.47 603.55 429.81L616.94 388.76C616.94 388.76 590.77 371.47 582.94 370.16C576.22 369.05 562.65 369.42 559.5 373.62Z" fill="#FFC4C0"/>
<path d="M560 380.73C567.34 380.22 574.43 381.9 581.61 383.18C581.637 383.192 581.66 383.212 581.674 383.239C581.689 383.265 581.693 383.296 581.687 383.325C581.681 383.355 581.665 383.381 581.642 383.401C581.619 383.42 581.59 383.43 581.56 383.43C574.44 382.07 567.14 382.15 559.98 381.08C559.941 381.069 559.907 381.044 559.883 381.011C559.86 380.978 559.849 380.938 559.851 380.897C559.853 380.857 559.869 380.818 559.896 380.788C559.923 380.757 559.96 380.737 560 380.73Z" fill="#263238"/>
<path d="M557.84 393.42C559.534 393.459 561.216 393.725 562.84 394.21C564.57 394.61 566.3 395.03 568.02 395.49C571.46 396.403 574.873 397.403 578.26 398.49C578.41 398.54 578.38 398.78 578.26 398.74C574.83 397.84 571.38 396.99 567.92 396.23C566.18 395.85 564.45 395.49 562.71 395.13C561.047 394.902 559.414 394.493 557.84 393.91C557.783 393.899 557.733 393.868 557.696 393.823C557.66 393.779 557.64 393.723 557.64 393.665C557.64 393.607 557.66 393.551 557.696 393.507C557.733 393.462 557.783 393.431 557.84 393.42Z" fill="#263238"/>
<path d="M556 408.44C557.517 408.499 559.013 408.82 560.42 409.39L565.1 410.71C568.23 411.57 571.36 412.43 574.51 413.18C574.67 413.18 574.62 413.47 574.51 413.43C571.3 412.68 568.09 411.98 564.88 411.2C563.313 410.82 561.743 410.43 560.17 410.03C558.707 409.802 557.295 409.318 556 408.6C555.985 408.592 555.973 408.581 555.964 408.567C555.956 408.553 555.951 408.537 555.951 408.52C555.951 408.503 555.956 408.487 555.964 408.473C555.973 408.459 555.985 408.448 556 408.44Z" fill="#263238"/>
<path d="M559.5 381.3C558.256 381.859 557.104 382.6 556.08 383.5C555.012 384.348 554.299 385.564 554.08 386.91C554.055 388.263 554.45 389.59 555.21 390.71C555.936 391.85 556.818 392.883 557.83 393.78L557.98 393.92L557.8 394.03C556.581 394.793 555.49 395.745 554.57 396.85C553.633 397.922 553.034 399.248 552.85 400.66C552.769 402.076 553.077 403.486 553.74 404.74C554.382 406.019 555.208 407.198 556.19 408.24L556.36 408.42L556.2 408.63C555.597 409.494 555.173 410.47 554.952 411.5C554.73 412.53 554.716 413.594 554.91 414.63C555.055 415.687 555.427 416.7 556 417.6C556.604 418.479 557.309 419.284 558.1 420C559.718 421.448 561.516 422.682 563.45 423.67C565.374 424.682 567.382 425.528 569.45 426.2C573.619 427.528 577.916 428.419 582.27 428.86C586.599 429.408 590.976 429.471 595.32 429.05H595.48L595.61 429.11C600.06 431.42 604.61 433.56 609.22 435.56C613.83 437.56 618.49 439.45 623.22 441.03C632.78 444.14 642.4 447.12 652.22 449.36C657.112 450.539 662.071 451.421 667.07 452C669.557 452.262 672.059 452.358 674.56 452.29C677.052 452.263 679.526 451.862 681.9 451.1C683.068 450.703 684.17 450.133 685.17 449.41C686.083 448.61 686.755 447.571 687.11 446.41C687.833 444.018 688.191 441.529 688.17 439.03C688.191 434 687.746 428.978 686.84 424.03C687.84 428.969 688.379 433.991 688.45 439.03C688.52 441.569 688.206 444.104 687.52 446.55C687.17 447.805 686.478 448.937 685.52 449.82C684.486 450.588 683.343 451.198 682.13 451.63C679.713 452.439 677.188 452.877 674.64 452.93C672.108 453.022 669.572 452.948 667.05 452.71C662.024 452.209 657.034 451.394 652.11 450.27C642.26 448.06 632.61 445.1 623.02 442.01C613.463 438.736 604.175 434.724 595.24 430.01H595.53C591.101 430.424 586.641 430.347 582.23 429.78C577.813 429.318 573.457 428.4 569.23 427.04C567.118 426.333 565.07 425.446 563.11 424.39C561.128 423.352 559.289 422.062 557.64 420.55C556.819 419.773 556.09 418.904 555.47 417.96C554.869 416.981 554.477 415.888 554.32 414.75C554.118 413.62 554.147 412.461 554.405 411.342C554.663 410.223 555.144 409.168 555.82 408.24V408.63C554.806 407.541 553.96 406.308 553.31 404.97C552.612 403.624 552.304 402.111 552.42 400.6C552.648 399.111 553.304 397.721 554.31 396.6C555.281 395.483 556.422 394.524 557.69 393.76V394.01C556.673 393.08 555.794 392.009 555.08 390.83C554.32 389.664 553.942 388.29 554 386.9C554.236 385.527 554.978 384.293 556.08 383.44C557.107 382.561 558.26 381.84 559.5 381.3Z" fill="#263238"/>
<path d="M654.94 412.4C657.894 413.622 660.689 415.2 663.26 417.1C664.554 418.028 665.792 419.029 666.97 420.1C668.154 421.172 669.247 422.339 670.24 423.59L666.47 420.7C665.21 419.7 663.95 418.8 662.67 417.88C660.12 416.05 657.53 414.26 654.94 412.4Z" fill="#263238"/>
<path d="M686.16 403L651.32 402.55C651.32 402.55 647.32 385.49 646.49 375.74C645.35 362.84 649.87 359.39 661.34 370.37C669 377.68 686.16 403 686.16 403Z" fill="#A6A6A6"/>
<path d="M654.76 402.58C653.631 402.458 652.496 402.398 651.36 402.4C650.94 400.4 650.55 398.4 650.11 396.34C649.89 395.34 649.66 394.34 649.41 393.34C649.16 392.34 648.87 390.98 648.63 390C648.63 389.85 648.39 389.88 648.42 390C648.61 391.3 648.79 392.26 648.97 393.38C649.09 394.17 649.24 394.96 649.39 395.75L649.12 395.19C648.66 394.19 648.12 393.19 647.71 392.11C647.66 391.98 647.46 392.11 647.51 392.2C647.96 393.2 648.27 394.32 648.7 395.37C648.991 396.177 649.346 396.959 649.76 397.71C650.08 399.42 650.24 401.37 650.66 403.02C652.037 403.004 653.41 402.887 654.77 402.67C654.83 402.69 654.82 402.59 654.76 402.58Z" fill="#263238"/>
<path d="M682.67 399.61C677.6 399.19 672.54 398.85 667.46 398.73C664.92 398.67 654.78 398.97 652.25 398.95C652.11 398.95 652.12 399.15 652.25 399.16C655.37 399.49 665.42 399.64 667.95 399.69C673.01 399.79 677.6 399.61 682.66 399.83C682.82 399.83 682.8 399.62 682.67 399.61Z" fill="#263238"/>
<path d="M647.42 365.29C646.76 366.89 637.06 376.36 629.53 374.76C627.08 374.23 629.36 360.76 629.36 360.76L629.3 359.76L628.47 345.26L646.63 337.42L649.23 336.42C649.23 336.42 649.23 340.42 649.1 345.36C649.1 345.59 649.1 345.82 649.1 346.06C649.1 346.3 649.1 346.61 649.1 346.87C649.1 347.61 649.1 348.37 649.1 349.12C649.1 349.69 649.1 350.25 649.04 350.85C648.98 351.45 648.98 352.04 648.96 352.65C648.732 356.893 648.217 361.116 647.42 365.29Z" fill="#FFC4C0"/>
<path d="M649.1 345.29C647.043 348.984 644.206 352.185 640.787 354.672C637.367 357.159 633.448 358.871 629.3 359.69L628.47 345.19L646.63 337.35L649.23 336.35C649.23 336.35 649.2 340.33 649.1 345.29Z" fill="#263238"/>
<path d="M612.75 321.77C608.48 346.89 623.05 352.29 628.47 353.2C633.38 354.03 650.24 356.2 657.08 331.68C663.92 307.16 653.58 297.2 642.44 294.68C631.3 292.16 617 296.64 612.75 321.77Z" fill="#FFC4C0"/>
<path d="M620.84 317.72C621.428 317.714 622.015 317.677 622.6 317.61C623.224 317.658 623.847 317.496 624.37 317.15C624.515 317.013 624.61 316.83 624.639 316.633C624.668 316.435 624.629 316.233 624.53 316.06C624.284 315.743 623.957 315.498 623.585 315.35C623.212 315.202 622.806 315.157 622.41 315.22C621.591 315.223 620.801 315.526 620.19 316.07C620.07 316.208 619.99 316.376 619.959 316.557C619.928 316.737 619.947 316.922 620.014 317.092C620.081 317.262 620.194 317.411 620.339 317.521C620.485 317.632 620.658 317.701 620.84 317.72Z" fill="#263238"/>
<path d="M637.34 320.75C636.76 320.59 636.25 320.35 635.69 320.14C635.08 320.007 634.532 319.677 634.13 319.2C634.031 319.025 633.993 318.822 634.022 318.623C634.051 318.424 634.145 318.24 634.29 318.1C634.616 317.868 634.998 317.727 635.397 317.691C635.797 317.656 636.198 317.728 636.56 317.9C637.347 318.133 638.019 318.654 638.44 319.36C638.514 319.527 638.541 319.711 638.519 319.892C638.496 320.073 638.424 320.245 638.311 320.388C638.197 320.531 638.047 320.641 637.876 320.705C637.705 320.768 637.519 320.784 637.34 320.75Z" fill="#263238"/>
<path d="M632.78 326.6C632.78 326.53 632.9 326.7 632.89 326.77C632.54 328.47 632.43 330.48 633.89 331.31C633.89 331.31 633.89 331.42 633.89 331.4C632 330.81 632.18 328.15 632.78 326.6Z" fill="#263238"/>
<path d="M634.61 325.07C637.4 325.33 636.67 330.88 634.09 330.64C631.51 330.4 632.28 324.85 634.61 325.07Z" fill="#263238"/>
<path d="M635.66 325.51C636.11 325.88 636.51 326.51 637.09 326.63C637.67 326.75 638.34 326.27 638.86 325.77C638.86 325.72 638.95 325.77 638.95 325.85C638.82 326.92 638.27 327.95 637.11 327.96C635.95 327.97 635.42 326.96 635.3 325.83C635.28 325.62 635.49 325.35 635.66 325.51Z" fill="#263238"/>
<path d="M623.25 324.49C623.25 324.42 623.1 324.56 623.1 324.63C622.94 326.36 622.47 328.31 620.84 328.69C620.79 328.69 620.79 328.79 620.84 328.79C622.78 328.75 623.38 326.15 623.25 324.49Z" fill="#263238"/>
<path d="M621.93 322.5C619.19 321.95 618.29 327.5 620.83 327.99C623.37 328.48 624.23 323 621.93 322.5Z" fill="#263238"/>
<path d="M620.72 322.68C620.24 322.9 619.72 323.36 619.19 323.31C618.66 323.26 618.19 322.59 617.93 321.95C617.93 321.88 617.85 321.95 617.84 322C617.64 323.05 617.84 324.2 618.79 324.57C619.74 324.94 620.51 324.11 620.94 323.1C621 322.91 620.91 322.59 620.72 322.68Z" fill="#263238"/>
<path d="M630.48 340.39C630.03 340.76 629.57 341.28 628.94 341.28C628.299 341.213 627.679 341.012 627.12 340.69C627.109 340.685 627.096 340.683 627.084 340.685C627.072 340.687 627.06 340.693 627.052 340.702C627.043 340.71 627.037 340.722 627.035 340.734C627.033 340.746 627.035 340.759 627.04 340.77C627.257 341.131 627.568 341.426 627.94 341.625C628.311 341.824 628.729 341.919 629.15 341.9C629.511 341.837 629.845 341.669 630.111 341.416C630.376 341.164 630.56 340.838 630.64 340.48C630.68 340.38 630.55 340.34 630.48 340.39Z" fill="#263238"/>
<path d="M624.23 332.54C624.23 332.54 623.44 335.45 623.23 336.66C623.23 336.77 627.4 337.58 629.93 335.21C630.04 335.11 629.93 334.96 629.77 335.02C628.095 335.892 626.184 336.2 624.32 335.9C624.32 335.55 625.68 331.51 625.49 331.46C624.536 331.412 623.581 331.493 622.65 331.7C624 326.41 626.19 321.39 627.45 316.11C627.456 316.072 627.449 316.032 627.429 315.999C627.41 315.965 627.379 315.939 627.343 315.925C627.307 315.911 627.267 315.91 627.23 315.921C627.193 315.933 627.161 315.958 627.14 315.99C624.48 321.09 622.8 327.13 621.27 332.55C621.1 333.23 623.72 332.67 624.23 332.54Z" fill="#263238"/>
<path d="M624.31 336.46C624.91 337.521 625.77 338.413 626.81 339.05C627.387 339.375 628.05 339.515 628.71 339.45C630.16 339.29 630.38 338.02 630.29 336.89C630.231 336.291 630.104 335.7 629.91 335.13C628.232 336.157 626.27 336.623 624.31 336.46Z" fill="#263238"/>
<path d="M626.81 339.05C627.387 339.375 628.05 339.515 628.71 339.45C630.16 339.29 630.38 338.02 630.29 336.89C629.551 336.805 628.806 336.973 628.174 337.365C627.542 337.757 627.062 338.351 626.81 339.05Z" fill="#FF98B9"/>
<path d="M656.41 332.15C652.19 332.22 651.78 323.37 651.78 323.37C651.78 323.37 643.26 322.87 641.21 310.45C641.225 314.136 642.316 317.736 644.35 320.81C644.35 320.81 629.44 318.28 623.9 305.32C623.9 305.32 626.02 311.88 628.24 314.32C628.24 314.32 622.06 312.17 619.3 306.87C619.3 306.87 616.22 313.96 614.08 315.87C614.08 315.87 616.33 289.63 640.49 293.94C640.49 293.94 655.67 295.94 660.39 308.3C665.11 320.66 656.41 332.15 656.41 332.15Z" fill="#263238"/>
<path d="M652.76 332.93C652.76 332.93 658.95 325.46 662.39 327.73C665.83 330 660.71 341.15 656.39 342.38C655.843 342.575 655.262 342.657 654.683 342.621C654.104 342.586 653.537 342.434 653.018 342.174C652.499 341.915 652.037 341.553 651.661 341.11C651.285 340.668 651.003 340.154 650.83 339.6L652.76 332.93Z" fill="#FFC4C0"/>
<path d="M660.84 330.89C660.85 330.895 660.859 330.902 660.866 330.912C660.872 330.922 660.876 330.933 660.876 330.945C660.876 330.957 660.872 330.968 660.866 330.978C660.859 330.988 660.85 330.995 660.84 331C657.78 332 655.99 334.58 654.67 337.34C655.67 336.34 656.89 335.81 658.27 336.98C658.34 337.04 658.27 337.15 658.18 337.13C657.671 336.919 657.109 336.871 656.571 336.992C656.034 337.114 655.548 337.4 655.18 337.81C654.576 338.499 654.046 339.25 653.6 340.05C653.44 340.31 652.97 340.13 653.1 339.83V339.76C653.39 336 656.76 330.94 660.84 330.89Z" fill="#263238"/>
<path d="M187 487.66L187.06 487.87C187.06 487.97 187.12 488.09 187.15 488.25C187.33 488.97 187.68 490.33 188.15 492.25C189.21 496.46 190.97 503.37 193.2 512.09L193.94 514.98C194.05 515.44 194.17 515.89 194.28 516.35C197.78 530.03 202.18 547.35 206.81 565.53C206.88 565.86 206.97 566.18 207.06 566.53C207.633 568.797 208.213 571.077 208.8 573.37L208.85 573.61L208.91 573.87C210.03 578.24 211.14 582.64 212.26 587.02H278.19C275.41 577.07 272.58 567.02 269.85 557.4C265.31 541.4 261.02 526.4 257.6 514.4C253.78 501.09 251.02 491.56 250.17 488.62L249.91 487.69L187 487.66Z" fill="#FFC4C0"/>
<path d="M208.9 573.85C208.9 573.85 272.39 557.08 273.57 556.19C274.75 555.3 249.89 487.66 249.89 487.66H187L208.9 573.85Z" fill="#455A64"/>
<path d="M208.34 562C227.23 555.75 246.34 550.23 265.73 545.59C265.96 545.54 266.07 545.87 265.84 545.94C246.97 552.25 227.84 557.7 208.47 562.41C208.42 562.415 208.37 562.402 208.328 562.374C208.286 562.347 208.255 562.305 208.24 562.257C208.225 562.21 208.226 562.158 208.245 562.111C208.263 562.064 208.297 562.025 208.34 562Z" fill="#263238"/>
<path d="M154.37 587H217.51C217.71 582 217.89 577.39 218.04 573.33C218.045 573.24 218.045 573.15 218.04 573.06C218.04 572.5 218.06 571.95 218.1 571.41C218.1 571.12 218.1 570.82 218.1 570.53C218.1 570.24 218.1 569.75 218.1 569.37C218.1 568.99 218.1 568.44 218.15 567.99C218.2 567.54 218.15 566.87 218.21 566.33C218.21 565.42 218.29 564.57 218.31 563.77C218.31 563.43 218.31 563.09 218.31 562.77C218.31 562.45 218.31 562.1 218.31 561.77C218.305 561.683 218.305 561.597 218.31 561.51C218.31 560.9 218.36 560.33 218.38 559.82C218.4 559.31 218.38 559 218.38 558.64C218.38 558.28 218.38 558.13 218.38 557.9V557.82C218.43 556.82 218.45 556.3 218.45 556.3C218.485 556.269 218.526 556.246 218.57 556.23L219.7 555.56L220.42 555.14L220.78 554.93L222.01 554.23C222.76 553.81 223.49 553.42 224.19 553.04L225.92 552.12L227.53 551.3L229.02 550.55C229.5 550.32 229.97 550.11 230.41 549.89L231.19 549.52L231.87 549.21C233.56 548.44 234.87 547.92 235.64 547.61L236.64 547.23L237.09 545.94C237.59 544.49 238.09 542.99 238.51 541.48C239.85 537.02 241.02 532.35 242.01 527.69C242.34 526.14 242.65 524.59 242.95 523.04C243.49 520.23 243.95 517.46 244.4 514.78C246.6 501.05 247.4 489.67 247.52 487.87C247.52 487.77 247.52 487.69 247.52 487.66H186.04H162.1C162.1 487.66 161.87 490.66 161.44 495.96C161.4 496.5 161.36 497.06 161.32 497.64C161.06 500.76 160.77 504.5 160.44 508.78C160.44 509.36 160.34 509.96 160.3 510.57C160.13 512.73 159.95 515.02 159.75 517.42C159.64 518.83 159.53 520.28 159.42 521.76C159.42 522.31 159.33 522.84 159.28 523.4C159.03 526.65 158.76 530.04 158.49 533.57C157.77 542.84 156.98 552.97 156.17 563.44C156.17 563.61 156.17 563.77 156.17 563.93C155.98 566.61 155.77 569.32 155.56 572.03C155.13 577 154.75 582 154.37 587Z" fill="#FFC4C0"/>
<path d="M217 581C217.054 579 217.13 576.973 217.23 574.92C217.45 570.83 217.68 566.75 218.04 562.66C218.24 560.36 218.37 558.03 218.66 555.74C218.655 555.724 218.654 555.706 218.657 555.689C218.66 555.672 218.666 555.656 218.677 555.642C218.687 555.628 218.7 555.617 218.716 555.609C218.731 555.601 218.748 555.597 218.765 555.597C218.783 555.597 218.8 555.601 218.815 555.609C218.83 555.617 218.844 555.628 218.854 555.642C218.864 555.656 218.871 555.672 218.874 555.689C218.877 555.706 218.875 555.724 218.87 555.74C218.87 557.74 218.82 559.8 218.8 561.83C218.78 563.86 218.8 565.88 218.7 567.91C218.57 572 218.35 576.1 218.05 580.17C217.957 581.31 217.857 582.45 217.75 583.59C217.708 584.708 217.543 585.818 217.26 586.9C217.26 586.96 217.15 586.96 217.14 586.9C216.988 585.938 216.932 584.963 216.97 583.99C217 583 217 582 217 581Z" fill="#263238"/>
<path d="M247.85 487.63C247.85 487.63 246.02 517.72 238.85 541.48C238.29 543.48 237.67 545.38 236.99 547.23C236.99 547.23 229.78 549.74 218.73 556.32C218.73 556.32 218.46 563.04 218.07 573.32C205.38 574.37 153.27 572.71 147.96 571.23C148.9 558.99 151.96 539.35 151.96 539.35C142.22 517.75 162.14 487.64 162.14 487.64L247.85 487.63Z" fill="#455A64"/>
<path d="M210.75 559.62C213.64 557.62 216.75 555.93 219.82 554.2C222.89 552.47 226.13 550.74 229.39 549.2C235.811 546.367 242.416 543.971 249.16 542.03C249.33 541.97 249.44 542.25 249.27 542.32C242.83 545.09 236.58 548.26 230.17 551.11C226.94 552.54 223.69 553.91 220.46 555.34C217.23 556.77 214.08 558.34 210.82 559.73C210.807 559.733 210.792 559.731 210.779 559.726C210.766 559.72 210.755 559.711 210.748 559.699C210.74 559.687 210.736 559.673 210.737 559.659C210.737 559.645 210.742 559.631 210.75 559.62Z" fill="#263238"/>
<path d="M228.4 528.07C228.47 524.91 228.7 521.74 228.85 518.59C229.22 511.13 229.51 503.59 230.21 496.2C230.21 496.139 230.234 496.08 230.277 496.037C230.32 495.994 230.379 495.97 230.44 495.97C230.501 495.97 230.559 495.994 230.603 496.037C230.646 496.08 230.67 496.139 230.67 496.2C230.76 501.97 230.54 507.75 230.42 513.52C230.36 516.41 230.28 519.29 230.2 522.18C230.12 525.07 229.94 527.7 230.14 530.45C230.3 532.53 230.76 536.57 233.47 536.82C236.03 537.05 237.47 534.3 238.07 532.27C239.69 527.14 240.26 521.59 240.79 516.27C241.1 513.11 241.41 509.96 241.6 506.78C241.886 503.542 241.993 500.29 241.92 497.04C241.92 496.83 242.22 496.84 242.23 497.04C242.41 500.29 242.86 503.53 242.97 506.81C243.08 510.09 243.09 513.32 242.88 516.56C242.67 519.8 242.41 522.81 241.94 525.89C241.624 528.713 240.952 531.485 239.94 534.14C239 536.33 237.38 538.34 234.94 538.82C234.64 538.877 234.335 538.91 234.03 538.92C234.03 539.58 233.9 540.26 233.86 540.92C233.78 541.92 233.66 543 233.52 544.04C233.371 545.053 233.158 546.055 232.88 547.04C232.664 548.073 232.3 549.07 231.8 550C231.72 550.15 231.52 550.06 231.51 549.91C231.482 548.904 231.566 547.898 231.76 546.91C231.9 545.91 232.04 544.91 232.25 543.91C232.46 542.91 232.64 541.91 232.84 540.91C232.98 540.25 233.07 539.57 233.19 538.91C232.398 538.772 231.652 538.44 231.02 537.942C230.388 537.445 229.89 536.798 229.57 536.06C228.42 533.58 228.33 530.7 228.4 528.07Z" fill="#263238"/>
<path d="M218.58 555.68C218.58 555.648 218.593 555.618 218.615 555.595C218.638 555.573 218.668 555.56 218.7 555.56C218.732 555.56 218.762 555.573 218.785 555.595C218.807 555.618 218.82 555.648 218.82 555.68C218.9 557.14 218.88 570.19 218.32 572.98C218.308 573.013 218.286 573.041 218.258 573.062C218.229 573.082 218.195 573.093 218.16 573.093C218.125 573.093 218.091 573.082 218.062 573.062C218.034 573.041 218.012 573.013 218 572.98C217.56 570.17 218.38 557.13 218.58 555.68Z" fill="#263238"/>
<path d="M155.38 563.43C175.27 563.55 195.18 564.43 215 566.21C215.042 566.22 215.079 566.243 215.106 566.277C215.133 566.311 215.147 566.352 215.147 566.395C215.147 566.438 215.133 566.479 215.106 566.513C215.079 566.547 215.042 566.57 215 566.58C195.1 566.53 175.2 565.58 155.38 563.86C155.331 563.849 155.287 563.822 155.256 563.783C155.224 563.744 155.207 563.695 155.207 563.645C155.207 563.595 155.224 563.546 155.256 563.507C155.287 563.468 155.331 563.441 155.38 563.43Z" fill="#263238"/>
<path d="M160 526.24C164.52 526.55 169 527.14 173.53 526.6C177.785 526.161 181.841 524.571 185.26 522C192.73 516.21 196 506.75 198.02 497.87C198.029 497.836 198.049 497.805 198.077 497.783C198.105 497.761 198.14 497.75 198.175 497.75C198.211 497.75 198.245 497.761 198.273 497.783C198.301 497.805 198.321 497.836 198.33 497.87C197.49 505.57 195.83 513.54 190.86 519.74C188.717 522.468 186.008 524.699 182.92 526.28C179.641 527.802 176.054 528.541 172.44 528.44C168.199 528.4 163.979 527.829 159.88 526.74C159.822 526.717 159.775 526.673 159.747 526.618C159.718 526.563 159.71 526.499 159.725 526.438C159.739 526.378 159.775 526.325 159.826 526.288C159.876 526.252 159.938 526.235 160 526.24Z" fill="#263238"/>
<path d="M194 313.54C170.29 328.69 159.11 360.97 174.86 394.71C189.19 425.4 226.29 441.03 247.44 432.57C269.88 423.57 275.95 398.27 265.14 383.57C254.7 369.4 238.14 365.63 233.29 352.52C230.95 346.25 232.84 335.08 229.8 325.66C226.36 315.17 209.19 303.8 194 313.54Z" fill="#263238"/>
<path d="M224.51 435.58C213.091 433.662 202.349 428.864 193.3 421.64C184.251 414.387 176.994 405.149 172.09 394.64C167.15 384.21 164.58 372.48 165.7 360.93C166.811 349.376 171.038 338.34 177.93 329C171.533 338.538 167.681 349.554 166.74 361C166.352 366.671 166.728 372.369 167.86 377.94C169.017 383.499 170.858 388.893 173.34 394C175.769 399.145 178.725 404.025 182.16 408.56C189.113 417.638 198.078 424.977 208.35 430C213.471 432.555 218.904 434.431 224.51 435.58Z" fill="#263238"/>
<path d="M268.74 386.86C267.242 383.646 265.24 380.692 262.81 378.11C260.424 375.512 257.739 373.206 254.81 371.24C251.81 369.24 248.94 367.24 246.1 365.03C243.201 362.881 240.566 360.397 238.25 357.63C237.087 356.225 236.056 354.715 235.17 353.12C234.34 351.481 233.731 349.739 233.36 347.94C232.724 344.418 232.296 340.862 232.08 337.29C231.824 333.786 231.126 330.328 230 327C228.813 323.66 227.023 320.565 224.72 317.87C227.243 320.424 229.246 323.443 230.62 326.76C231.906 330.12 232.75 333.633 233.13 337.21C233.63 340.74 233.82 344.3 234.6 347.7C234.966 349.384 235.555 351.011 236.35 352.54C237.22 354.041 238.224 355.461 239.35 356.78C243.74 362.23 249.75 366.18 255.44 370.39C258.349 372.503 260.998 374.954 263.33 377.69C265.642 380.417 267.471 383.518 268.74 386.86Z" fill="#263238"/>
<path d="M220.256 406.607C222.165 422.638 234.401 465.178 243.45 472.423C255.333 481.924 294.173 491.861 299.66 487.795C302.672 485.556 299.221 452.433 296.539 449.865C293.857 447.298 262.692 443.824 260.241 442.79C257.79 441.756 243.468 414.554 234.974 401.29C225.314 386.298 218.778 393.987 220.256 406.607Z" fill="#FFC4C0"/>
<path d="M232.826 448.18L256.834 423.75C256.834 423.75 240.935 401.903 231.767 393.669C222.991 385.801 214.792 386.116 220.119 406.696C223.651 420.73 227.893 434.575 232.826 448.18Z" fill="#A6A6A6"/>
<path d="M232.464 438.659C233.82 436.878 235.283 435.182 236.846 433.58C238.365 431.902 239.894 430.309 241.439 428.689C242.984 427.069 244.547 425.422 246.138 423.824C247.73 422.226 249.488 420.66 251.162 419.063C251.257 418.973 251.414 419.127 251.327 419.228C249.866 420.921 248.441 422.675 246.944 424.307C245.447 425.939 243.895 427.588 242.359 429.211C240.823 430.833 239.242 432.475 237.653 434.063C236.075 435.749 234.395 437.335 232.621 438.813C232.601 438.834 232.573 438.845 232.544 438.846C232.515 438.846 232.487 438.835 232.466 438.815C232.456 438.805 232.448 438.793 232.442 438.779C232.436 438.766 232.433 438.752 232.433 438.737C232.433 438.708 232.444 438.68 232.464 438.659Z" fill="#263238"/>
<path d="M289.598 484.16C286.392 476.006 287.277 454.247 289.055 449.606C290.834 444.965 322.636 446.319 325.852 450.238C329.069 454.157 337.785 482.466 335.13 491.004C332.474 499.542 292.918 492.613 289.598 484.16Z" fill="#FFC4C0"/>
<path d="M314.33 439.435C319.55 443.61 329.335 447.192 332.031 451.367C332.73 452.374 333.088 453.579 333.05 454.804C333.012 456.03 332.582 457.21 331.823 458.173C331.823 458.173 337.323 458.221 339.149 462.418C340.083 464.572 337.457 467.954 337.457 467.954C337.457 467.954 341.866 468.188 343.254 472.011C344.361 475.059 341.564 478.006 341.564 478.006C341.564 478.006 345.689 480.202 345.869 483.688C346.141 490.723 321.095 502.938 312.734 495.596C308.832 492.182 315.113 489.524 315.113 489.524C315.113 489.524 305.157 491.195 302.534 486.066C299.91 480.938 308.246 478.022 308.246 478.022C308.246 478.022 298.599 479.519 296.382 473.954C294.076 468.164 302.955 466.641 302.955 466.641C302.955 466.641 295.546 465.582 294.822 460.938C293.637 453.259 308.266 456.5 313.138 452.515L311.695 441.94L314.33 439.435Z" fill="#FFC4C0"/>
<path d="M323.198 444.875C318.594 440.5 322.026 430.66 318.198 425.824C313.065 419.294 308.337 430.459 311.673 441.943L315.84 450.408L323.198 444.875Z" fill="#FFC4C0"/>
<path d="M341.541 478.679C341.548 478.673 341.557 478.669 341.566 478.667C341.575 478.664 341.585 478.664 341.594 478.666C341.604 478.667 341.613 478.67 341.621 478.675C341.629 478.68 341.636 478.687 341.641 478.694C341.647 478.702 341.651 478.711 341.653 478.72C341.656 478.729 341.656 478.739 341.654 478.748C341.653 478.757 341.65 478.766 341.645 478.774C341.64 478.782 341.633 478.789 341.626 478.795C334.367 484.812 324.55 489.207 315.075 489.83C314.768 489.855 314.599 489.357 314.94 489.269C324.577 486.756 332.921 483.759 341.541 478.679Z" fill="#263238"/>
<path d="M338.543 467.288C338.64 467.227 338.741 467.36 338.639 467.461C330.816 473.856 319.253 478.772 307.988 478.407C307.609 478.396 307.285 478 307.729 477.982C315.276 477.621 330.54 472.083 338.543 467.288Z" fill="#263238"/>
<path d="M302.088 466.333C312.689 466.476 322.209 463.207 331.534 458.439C331.653 458.376 331.74 458.515 331.642 458.638C327.713 462.202 321.454 464.624 316.43 466.092C311.785 467.532 306.845 467.737 302.097 466.688C301.918 466.622 301.839 466.316 302.088 466.333Z" fill="#263238"/>
<path d="M312.345 447.015L313.18 452.488L313.159 452.544L313.138 452.601C310.832 454.043 308.187 454.853 305.468 454.951C302.826 455.184 300.1 455.355 297.745 456.429C297.173 456.661 296.656 457.01 296.228 457.455C295.8 457.901 295.471 458.431 295.263 459.012C295.1 459.606 295.058 460.226 295.139 460.836C295.221 461.446 295.425 462.034 295.738 462.564C297.034 464.691 299.703 465.777 302.169 466.257L304.282 466.681L302.17 467.152C300.286 467.476 298.565 468.424 297.284 469.842C296.779 470.603 296.516 471.499 296.531 472.411C296.546 473.324 296.837 474.211 297.367 474.954C297.932 475.709 298.64 476.344 299.45 476.825C300.261 477.305 301.158 477.621 302.091 477.754C304.02 478.111 305.992 478.171 307.939 477.931L312.383 477.432L308.177 478.849C306.298 479.387 304.611 480.449 303.313 481.91C302.736 482.63 302.451 483.541 302.515 484.462C302.614 485.392 302.989 486.271 303.591 486.987C304.947 488.409 306.778 489.286 308.736 489.452C310.705 489.706 312.698 489.693 314.663 489.412L316.636 489.146L314.809 489.945C313.647 490.377 312.651 491.162 311.96 492.191C311.657 492.71 311.55 493.321 311.658 493.912C311.787 494.511 312.096 495.056 312.544 495.473C313.498 496.316 314.629 496.935 315.853 497.285C317.081 497.674 318.347 497.932 319.629 498.053C318.335 497.999 317.051 497.796 315.803 497.448C314.529 497.138 313.341 496.542 312.332 495.704C311.817 495.249 311.451 494.651 311.279 493.986C311.134 493.298 311.235 492.581 311.565 491.96C312.281 490.802 313.357 489.91 314.628 489.421L314.777 489.944C312.728 490.273 310.643 490.318 308.582 490.077C307.535 489.956 306.509 489.694 305.533 489.298C304.519 488.911 303.617 488.28 302.906 487.46C302.173 486.621 301.723 485.572 301.62 484.463C301.525 483.332 301.862 482.208 302.563 481.315C303.226 480.463 304.049 479.748 304.986 479.212C305.894 478.665 306.86 478.223 307.867 477.894L308.058 478.795C306.003 479.067 303.918 479.02 301.877 478.656C300.838 478.466 299.834 478.119 298.9 477.626C297.924 477.129 297.095 476.384 296.497 475.466C296.333 475.245 296.203 475 296.114 474.739C296.005 474.486 295.882 474.239 295.795 473.983C295.644 473.459 295.556 472.919 295.534 472.374C295.473 471.25 295.816 470.14 296.501 469.246C297.173 468.399 298.031 467.719 299.01 467.259C299.952 466.781 300.954 466.432 301.99 466.223L302.004 467.112C300.637 466.855 299.315 466.402 298.077 465.766C296.804 465.125 295.73 464.148 294.97 462.942C294.61 462.311 294.384 461.614 294.304 460.892C294.225 460.17 294.294 459.44 294.508 458.746C294.756 458.07 295.145 457.456 295.649 456.943C296.154 456.43 296.762 456.03 297.433 455.772C299.972 454.659 302.749 454.581 305.383 454.429C308.044 454.42 310.656 453.715 312.961 452.387L312.903 452.546L312.345 447.015Z" fill="#263238"/>
<path d="M249.89 487.66L246.54 449.58C246.54 449.58 255.59 432.41 249.54 420.52C246.54 414.52 228.54 389.52 217.84 382.28C207.84 375.52 193.51 378.62 186.24 389.7C174.78 407.14 167.34 429.42 162.07 487.7L249.89 487.66Z" fill="#C7C7C7"/>
<path d="M234 442.32C229.587 442.756 225.212 443.514 220.91 444.59C218.78 445.16 216.69 445.82 214.61 446.53C213.61 446.88 212.52 447.2 211.47 447.53C210.379 447.889 209.247 448.11 208.1 448.19C208 448.19 208 448.35 208.1 448.35C210.241 448.472 212.387 448.235 214.45 447.65C216.61 447.1 218.75 446.44 220.91 445.87C225.27 444.71 229.63 443.55 234.06 442.71C234.26 442.65 234.21 442.3 234 442.32Z" fill="#263238"/>
<path d="M245 446.14C241.345 445.785 237.672 445.642 234 445.71C232.17 445.71 230.36 445.89 228.54 446.08C227.67 446.17 226.8 446.28 225.94 446.4C225.08 446.52 224.05 446.79 223.09 446.9C222.99 446.9 223 447.07 223.09 447.06C223.99 446.98 224.91 447.06 225.82 447.06L228.55 446.96C230.37 446.9 232.2 446.86 234.02 446.78C237.67 446.62 241.3 446.51 244.95 446.48C245.15 446.44 245.13 446.15 245 446.14Z" fill="#263238"/>
<path d="M198.11 387C197.69 396.27 163.86 478.29 163.93 481.67C163.93 481.67 124.93 503.67 120.36 482.07C115.79 460.47 159.16 417.4 177.59 395.99C185.11 387.29 198.62 375.75 198.11 387Z" fill="#FFC4C0"/>
<path d="M151.15 420.44L184 430.08C184 430.08 195.76 405.75 198.67 393.8C201.46 382.34 197.31 375.26 181.67 389.67C170.986 399.406 160.799 409.676 151.15 420.44Z" fill="#A6A6A6"/>
<path d="M159.37 415.63C161.594 415.978 163.795 416.462 165.96 417.08C168.12 417.63 170.28 418.22 172.44 418.82C174.6 419.42 176.79 420.02 178.94 420.67C181.09 421.32 183.32 422.13 185.51 422.85C185.64 422.85 185.58 423.1 185.44 423.07C183.25 422.58 181.05 422.16 178.86 421.61C176.67 421.06 174.54 420.46 172.38 419.87C170.22 419.28 168.04 418.66 165.88 418.01C163.649 417.419 161.458 416.687 159.32 415.82C159.22 415.77 159.26 415.61 159.37 415.63Z" fill="#263238"/>
<path d="M173.11 447.58C178.33 447.26 207.27 474.84 200.58 478.65C169.13 496.58 137.76 496 130.82 494.26C121.72 492 118.42 480.73 120.74 475C124.09 466.79 167.94 447.9 173.11 447.58Z" fill="#FFC4C0"/>
<path d="M170.89 448.94C176.279 441.612 183.05 435.409 190.82 430.68C196.3 427.33 207.71 424.06 212.31 423.42C219.18 422.42 248.56 422.83 248.62 429.95C248.68 436.4 223.49 432.88 223.49 432.88C223.49 432.88 249.22 434.18 247.87 441.96C246.52 449.74 218.57 441.96 218.57 441.96C218.57 441.96 244.99 443.89 242.32 451.69C240.32 457.58 214.6 451.98 214.6 451.98C214.6 451.98 237.29 453.79 235.48 459.98C233.48 466.77 209.48 463.09 209.48 463.09C210.36 465.83 206.82 477.38 196.94 480.5C195.17 481 170.89 448.94 170.89 448.94Z" fill="#FFC4C0"/>
<path d="M214.61 431.86C217.61 431.86 220.71 431.93 223.72 432.24C226.73 432.55 229.72 432.97 232.72 433.56C236.617 434.259 240.422 435.4 244.06 436.96C237.4 434.66 226.62 433.37 223.61 433.06C220.6 432.75 217.61 432.29 214.61 431.97C214.601 431.974 214.591 431.976 214.581 431.975C214.571 431.974 214.562 431.971 214.553 431.965C214.545 431.96 214.538 431.952 214.534 431.943C214.529 431.935 214.526 431.925 214.526 431.915C214.526 431.905 214.529 431.895 214.534 431.886C214.538 431.878 214.545 431.87 214.553 431.865C214.562 431.859 214.571 431.856 214.581 431.855C214.591 431.854 214.601 431.856 214.61 431.86Z" fill="#263238"/>
<path d="M213.28 442.72C217.15 442.95 221 443.03 224.85 443.42C228.7 443.81 232.3 444.52 236.1 445.17C236.39 445.23 236.27 445.37 235.97 445.33C232.15 444.82 228.57 444.65 224.74 444.2C220.91 443.75 217.1 443.13 213.27 442.81C213.21 442.81 213.23 442.72 213.28 442.72Z" fill="#263238"/>
<path d="M210.47 451.84C216.497 451.98 222.494 452.73 228.37 454.08C228.66 454.14 228.48 454.3 228.18 454.26C222.35 453.34 217.48 452.77 210.47 452.05C210.36 452 210.34 451.84 210.47 451.84Z" fill="#263238"/>
<path d="M139.39 461.77C141.91 460.28 144.5 458.88 147.12 457.56C149.74 456.24 152.39 454.96 155.12 453.78C157.85 452.6 160.5 451.42 163.25 450.39C166 449.36 168.78 448.39 171.58 447.49L171.39 447.63C172.68 446.02 174.01 444.47 175.39 442.96C176.771 441.445 178.306 440.077 179.97 438.88C179.193 439.54 178.459 440.248 177.77 441C177.07 441.74 176.41 442.51 175.77 443.3C174.46 444.85 173.2 446.46 172.01 448.1L171.94 448.19L171.82 448.24C169.06 449.24 166.31 450.19 163.59 451.29C160.87 452.39 158.15 453.44 155.47 454.61L147.47 458.13L139.39 461.77Z" fill="#263238"/>
<path d="M142.91 457.6C143.506 457.202 144.156 456.892 144.84 456.68C145.515 456.45 146.207 456.272 146.91 456.15C148.307 455.877 149.739 455.833 151.15 456.02C149.77 456.4 148.41 456.62 147.04 456.88L144.99 457.24C144.31 457.37 143.61 457.45 142.91 457.6Z" fill="#263238"/>
<path d="M198.12 382.36C198.57 384.02 208.57 397.36 219.73 395.23C225.05 394.23 216.54 380.16 216.54 380.16L219.41 364.94L200.05 353.54C200.05 353.54 197.94 381.65 198.12 382.36Z" fill="#FFC4C0"/>
<path d="M199.32 363.42C200.973 367.12 203.369 370.44 206.359 373.175C209.348 375.91 212.868 378.002 216.7 379.32L219.42 364.94L200.05 353.55L199.32 363.42Z" fill="#263238"/>
<path d="M237.76 340.23C242.9 365.08 228.6 370.97 223.24 372.07C218.37 373.07 201.68 375.86 194 351.67C186.32 327.48 196.24 317.24 207.25 314.37C218.26 311.5 232.62 315.38 237.76 340.23Z" fill="#FFC4C0"/>
<path d="M229.82 336.75C229.235 336.745 228.651 336.705 228.07 336.63C227.448 336.675 226.828 336.509 226.31 336.16C226.17 336.02 226.079 335.837 226.052 335.64C226.025 335.443 226.063 335.243 226.16 335.07C226.41 334.759 226.738 334.519 227.11 334.376C227.483 334.232 227.886 334.188 228.28 334.25C229.096 334.259 229.879 334.569 230.48 335.12C230.595 335.259 230.67 335.426 230.697 335.604C230.725 335.782 230.703 335.965 230.636 336.132C230.568 336.299 230.457 336.444 230.313 336.553C230.17 336.662 229.999 336.73 229.82 336.75Z" fill="#263238"/>
<path d="M212.7 339.29C213.261 339.12 213.811 338.92 214.35 338.69C214.96 338.564 215.512 338.241 215.92 337.77C216.019 337.595 216.057 337.392 216.028 337.193C215.999 336.994 215.905 336.81 215.76 336.67C215.436 336.438 215.056 336.296 214.659 336.259C214.262 336.222 213.862 336.292 213.5 336.46C212.716 336.688 212.045 337.202 211.62 337.9C211.547 338.065 211.521 338.247 211.543 338.426C211.565 338.605 211.635 338.775 211.745 338.917C211.856 339.06 212.003 339.17 212.172 339.235C212.34 339.301 212.522 339.32 212.7 339.29Z" fill="#263238"/>
<path d="M217.36 345C217.36 344.94 217.24 345.1 217.26 345.17C217.59 346.87 217.68 348.87 216.26 349.69C216.26 349.69 216.26 349.8 216.26 349.78C218.1 349.21 218 346.55 217.36 345Z" fill="#263238"/>
<path d="M215.55 343.47C212.77 343.7 213.45 349.24 216.03 349.02C218.61 348.8 217.88 343.27 215.55 343.47Z" fill="#263238"/>
<path d="M214.5 343.89C214.05 344.27 213.65 344.89 213.07 345.01C212.49 345.13 211.82 344.64 211.32 344.13C211.26 344.13 211.22 344.13 211.23 344.21C211.34 345.27 211.89 346.31 213.04 346.33C214.19 346.35 214.73 345.33 214.86 344.22C214.89 344 214.68 343.74 214.5 343.89Z" fill="#263238"/>
<path d="M227.38 343.48C227.38 343.41 227.52 343.54 227.53 343.62C227.67 345.34 228.12 347.29 229.74 347.68C229.74 347.68 229.8 347.78 229.74 347.78C227.81 347.73 227.24 345.13 227.38 343.48Z" fill="#263238"/>
<path d="M228.7 341.51C231.44 340.98 232.29 346.51 229.76 346.98C227.23 347.45 226.41 342 228.7 341.51Z" fill="#263238"/>
<path d="M229.91 341.69C230.39 341.92 230.91 342.38 231.43 342.34C231.95 342.3 232.43 341.62 232.69 340.99C232.69 340.92 232.77 340.99 232.78 340.99C232.98 342.04 232.78 343.19 231.78 343.55C230.78 343.91 230.06 343.08 229.65 342.07C229.61 341.92 229.72 341.6 229.91 341.69Z" fill="#263238"/>
<path d="M220.16 358.55C220.6 358.92 221.05 359.45 221.68 359.45C222.321 359.388 222.942 359.191 223.5 358.87C223.506 358.865 223.513 358.861 223.52 358.858C223.528 358.855 223.536 358.854 223.544 358.855C223.551 358.855 223.559 358.857 223.566 358.861C223.573 358.864 223.58 358.869 223.585 358.875C223.59 358.881 223.594 358.888 223.597 358.895C223.599 358.903 223.601 358.911 223.6 358.918C223.6 358.926 223.598 358.934 223.594 358.941C223.591 358.948 223.586 358.955 223.58 358.96C223.36 359.317 223.048 359.607 222.677 359.801C222.305 359.995 221.888 360.084 221.47 360.06C221.111 359.998 220.779 359.829 220.517 359.576C220.255 359.323 220.075 358.997 220 358.64C220 358.54 220.09 358.5 220.16 358.55Z" fill="#263238"/>
<path d="M226.48 351.39C226.48 351.39 227.18 353.91 227.34 355.11C227.34 355.23 227.07 355.32 226.67 355.4C225.66 355.73 224.578 355.775 223.544 355.53C222.51 355.285 221.564 354.759 220.81 354.01C220.71 353.91 220.81 353.76 220.97 353.82C222.649 354.668 224.558 354.949 226.41 354.62C226.41 354.27 225.07 350.36 225.26 350.32C226.207 350.276 227.156 350.36 228.08 350.57C226.78 345.3 224.64 340.28 223.42 335.01C223.414 334.972 223.421 334.932 223.441 334.899C223.46 334.865 223.49 334.839 223.527 334.825C223.563 334.811 223.603 334.81 223.64 334.821C223.677 334.833 223.709 334.857 223.73 334.89C226.34 339.99 227.97 346.02 229.46 351.43C229.6 352.11 227 351.54 226.48 351.39Z" fill="#263238"/>
<path d="M195 353.26C196.542 352.348 197.821 351.051 198.712 349.496C199.602 347.941 200.074 346.182 200.08 344.39C204.293 342.111 207.824 338.753 210.31 334.66C210.19 335.19 209.31 339.01 208.76 340.95C224.39 336.67 228.29 324.12 228.29 324.12C233.86 328.83 235.16 332.03 236.04 333.61C236.04 333.61 235.35 323.87 229.81 317.76C228.001 315.632 225.658 314.022 223.023 313.096C220.387 312.17 217.553 311.961 214.81 312.49C210.815 311.859 206.724 312.316 202.967 313.813C199.209 315.311 195.925 317.794 193.46 321C184.08 333.12 195 353.26 195 353.26Z" fill="#263238"/>
<path d="M220.62 337.32C218.184 338.927 215.521 340.161 212.72 340.98C212.72 340.98 212.72 340.98 212.72 340.98C217.081 339.393 220.914 336.622 223.79 332.98C224.999 331.426 226.007 329.726 226.79 327.92C227.734 325.97 228.281 323.853 228.4 321.69C228.408 321.663 228.424 321.639 228.447 321.622C228.469 321.605 228.497 321.596 228.525 321.596C228.553 321.596 228.581 321.605 228.604 321.622C228.626 321.639 228.642 321.663 228.65 321.69C228.758 323.837 228.504 325.987 227.9 328.05C227.219 330.071 226.172 331.949 224.81 333.59C223.594 335.041 222.176 336.31 220.6 337.36" fill="#263238"/>
<path d="M193.46 348.63C194.53 351.86 186.74 336.63 186.61 334.23C186.48 331.83 190.09 319.92 199.56 314.23C207.5 309.45 217.91 311.5 219.73 311.88C221.638 312.226 223.455 312.957 225.07 314.03C225.07 314.03 211.72 311.62 200.67 315.87C195.35 317.91 189.46 336.54 193.46 348.63Z" fill="#407BFF"/>
<path d="M195.24 313.51C195.24 313.51 197.24 306.29 203.24 303.81C203.24 303.81 204.76 310.05 203.15 312.71C202.35 314.03 197.6 315.85 196.8 315.2C196.224 314.692 195.701 314.125 195.24 313.51Z" fill="#407BFF"/>
<path opacity="0.1" d="M200 314.69C199.193 315.039 198.336 315.255 197.46 315.33H197.28H197.13H196.99L196.85 315.25C196.371 314.851 195.932 314.405 195.54 313.92C195.39 313.74 195.28 313.61 195.25 313.56C195.511 312.709 195.845 311.883 196.25 311.09C197.135 311.235 197.955 311.647 198.6 312.27C199.137 313.034 199.605 313.844 200 314.69Z" fill="#050400"/>
<path d="M194 314.79C194 314.79 184.94 315.93 181.31 319C181.31 319 184.88 322.87 189.54 322.74C191.62 322.69 196.31 317.53 195.71 316.6C195.228 315.919 194.653 315.31 194 314.79Z" fill="#407BFF"/>
<path opacity="0.1" d="M195.73 316.81C195.513 317.648 195.078 318.413 194.47 319.03C193.87 318.788 193.333 318.412 192.9 317.93C192.302 317.106 191.954 316.127 191.9 315.11C193.14 314.89 193.96 314.79 193.96 314.79C194.611 315.308 195.184 315.918 195.66 316.6C195.689 316.634 195.706 316.676 195.71 316.72C195.728 316.747 195.735 316.779 195.73 316.81Z" fill="#050400"/>
<path d="M193.62 317C194.024 317.438 194.55 317.746 195.13 317.885C195.71 318.023 196.319 317.985 196.877 317.776C197.436 317.567 197.919 317.196 198.266 316.711C198.613 316.226 198.807 315.648 198.824 315.052C198.842 314.456 198.681 313.868 198.362 313.364C198.044 312.86 197.582 312.462 197.036 312.222C196.491 311.981 195.886 311.908 195.298 312.013C194.711 312.118 194.169 312.395 193.74 312.81C193.177 313.355 192.849 314.098 192.827 314.881C192.804 315.664 193.089 316.424 193.62 317Z" fill="#407BFF"/>
<path d="M198.25 351C198.25 351 191.82 343.78 188.49 346.17C185.16 348.56 190.63 359.46 195 360.53C195.554 360.705 196.138 360.765 196.716 360.708C197.294 360.65 197.854 360.476 198.363 360.196C198.872 359.915 199.318 359.534 199.675 359.076C200.032 358.618 200.293 358.092 200.44 357.53L198.25 351Z" fill="#FFC4C0"/>
<path d="M190.13 349.28C190.07 349.28 190.06 349.37 190.13 349.39C193.2 350.23 195.07 352.78 196.49 355.47C195.49 354.47 194.23 354.03 192.89 355.25C192.82 355.31 192.89 355.42 192.99 355.39C193.489 355.162 194.045 355.096 194.583 355.2C195.121 355.304 195.613 355.573 195.99 355.97C196.624 356.628 197.181 357.356 197.65 358.14C197.82 358.38 198.28 358.19 198.14 357.9V357.83C197.73 354.08 194.2 349.18 190.13 349.28Z" fill="#263238"/>
<path d="M368.17 586.9H435.54C438.1 559.73 440.83 529.9 442.88 507.17C442.94 506.56 442.99 505.95 443.05 505.33C444.94 484.39 446.23 469.91 446.23 469.91H383.14C383.14 469.91 383.14 469.98 383.14 470.1C382.63 473.91 374.8 534.89 368.17 586.9Z" fill="#263238"/>
<path d="M424.94 586.9H426C429.82 557.29 432.74 527.57 435.34 497.83C435.46 496.36 435.6 494.88 435.72 493.41C436.147 488.35 436.573 483.287 437 478.22C437 478.06 436.78 478.06 436.75 478.22C436.29 482.713 435.833 487.2 435.38 491.68C435.22 493.32 435.05 494.94 434.89 496.57C433.18 513.57 431.48 530.57 429.62 547.5C428.187 560.653 426.627 573.787 424.94 586.9Z" fill="#37474F"/>
<path d="M392.25 469.91L400.74 525.86L401.04 527.75L401.8 532.83L401.85 533.18L402.06 534.54L410 586.9H440.86C445.35 561.55 450.26 533.9 454.16 511.84C454.23 511.44 454.3 511.05 454.36 510.67C458.57 486.89 461.58 469.91 461.58 469.91H392.25Z" fill="#37474F"/>
<path d="M383.09 469.85V470.1C383.59 473.36 389.02 508.35 398.04 531.3C398.11 531.5 398.18 531.68 398.26 531.87C398.26 531.87 399.53 532.27 401.82 533.18C402.72 533.53 403.82 533.97 404.99 534.48L406.29 535.07C408.94 536.25 412.15 537.81 415.81 539.79L416.86 540.36C416.86 540.36 416.86 540.51 416.86 540.78C417.1 543.89 418.62 563.88 420.32 586.9H483.57C478.41 532.9 471.93 469.9 471.93 469.9L383.09 469.85Z" fill="#263238"/>
<path d="M465 479.59C466.79 503.02 468.5 526.45 470.39 549.86C471.39 562.2 472.43 574.533 473.51 586.86H474.51C471.33 551.11 468.42 515.34 465.57 479.56C465.45 479.26 464.92 479.26 465 479.59Z" fill="#37474F"/>
<path d="M395.11 530.22C402.649 532.965 409.936 536.358 416.89 540.36C416.942 540.392 416.981 540.442 416.998 540.501C417.016 540.56 417.011 540.623 416.985 540.678C416.959 540.734 416.914 540.778 416.858 540.802C416.801 540.826 416.738 540.829 416.68 540.81C409.35 537.66 401.87 534.65 394.68 531.1C394.563 531.043 394.474 530.942 394.432 530.819C394.39 530.696 394.398 530.562 394.455 530.445C394.512 530.328 394.613 530.239 394.736 530.197C394.859 530.155 394.993 530.163 395.11 530.22Z" fill="#37474F"/>
<path d="M392.78 479.9C392.78 479.64 393.25 479.59 393.24 479.9C393.19 488.61 393.74 496.27 394.47 504.41C394.82 508.18 397.85 529.06 404.41 527.54C405.5 527.29 406.06 526.21 406.23 524.54C406.44 522.54 405.69 520.12 405.36 518.14C404.64 513.77 404.05 509.38 403.68 504.97C402.917 496.75 403.004 488.472 403.94 480.27C403.95 480.221 403.978 480.177 404.017 480.145C404.056 480.114 404.105 480.097 404.155 480.097C404.205 480.097 404.254 480.114 404.293 480.145C404.332 480.177 404.359 480.221 404.37 480.27C404.37 491.68 404.66 503.07 406.37 514.37C407.19 519.8 409.93 527.98 404.25 528.81C398.57 529.64 394.71 516 394 512.21C392 501.76 392 490.47 392.78 479.9Z" fill="#37474F"/>
<path d="M404.23 528.06C404.815 529.469 405.306 530.916 405.7 532.39C406.127 533.528 406.337 534.735 406.32 535.95C406.32 536.18 405.99 536.2 405.86 536.04C405.183 534.969 404.67 533.803 404.34 532.58C403.84 531.25 403.34 529.92 402.86 528.58C402.791 528.398 402.797 528.197 402.876 528.019C402.956 527.842 403.103 527.704 403.285 527.635C403.466 527.566 403.668 527.572 403.845 527.652C404.022 527.732 404.161 527.878 404.23 528.06Z" fill="#37474F"/>
<path d="M433.88 486.73C433.864 485.819 433.954 484.91 434.15 484.02C434.158 483.99 434.176 483.964 434.2 483.946C434.224 483.927 434.254 483.917 434.285 483.917C434.315 483.917 434.345 483.927 434.37 483.946C434.394 483.964 434.412 483.99 434.42 484.02C434.608 484.79 434.712 485.578 434.73 486.37C434.82 487.26 434.94 488.16 435.03 489.06C435.237 490.898 435.571 492.719 436.03 494.51C436.856 497.905 438.584 501.014 441.03 503.51C443.457 505.903 446.332 507.796 449.49 509.08C453.01 510.57 456.71 511.13 460.35 512.2C460.379 512.208 460.405 512.226 460.424 512.25C460.443 512.275 460.453 512.304 460.453 512.335C460.453 512.366 460.443 512.396 460.424 512.42C460.405 512.444 460.379 512.462 460.35 512.47C456.317 512.462 452.324 511.674 448.59 510.15C445.286 508.916 442.28 506.998 439.77 504.52C437.241 501.969 435.46 498.773 434.62 495.28C434.202 493.482 433.967 491.646 433.92 489.8C433.841 488.779 433.828 487.753 433.88 486.73Z" fill="#37474F"/>
<path d="M407.5 368.46C392.25 377.41 335.62 419.95 335.63 441.46C335.63 455.8 353.93 455.54 364.88 449.6C372.88 445.24 410.02 395.83 416.65 382.01C423 368.88 423 359.4 407.5 368.46Z" fill="#455A64"/>
<path d="M416.65 382C410.02 395.83 372.9 445.24 364.88 449.59C355.96 454.44 342.15 455.51 337.35 447.98L418.66 365.17C422.13 366.76 420.68 373.66 416.65 382Z" fill="#263238"/>
<path d="M379.13 478.78C380.48 480.64 474.98 482.05 475.56 481.49C477.15 479.96 463.67 386.92 443.19 366.49C438.79 362.09 421.43 361.28 418.92 362.38C413.11 364.9 407.51 370.62 402.59 381.44C392.73 403.08 378 477.15 379.13 478.78Z" fill="#455A64"/>
<path d="M447.11 368C462.58 376.34 520.38 423.14 520.37 438.69C520.37 453.03 503.01 457.39 492.22 451.16C484.32 446.6 445.85 398.7 439.58 384.71C433.61 371.36 431.34 359.48 447.11 368Z" fill="#455A64"/>
<path d="M465.34 421.68C463.99 419.68 462.71 417.63 461.34 415.61C459.97 413.59 458.57 411.61 457.16 409.66C455.75 407.71 454.4 405.66 452.94 403.74C451.48 401.82 450.02 400 448.51 398.18C448.496 398.171 448.48 398.167 448.464 398.167C448.448 398.168 448.432 398.173 448.419 398.183C448.406 398.193 448.396 398.207 448.391 398.222C448.386 398.238 448.385 398.254 448.39 398.27C449.64 400.33 450.94 402.38 452.29 404.38C453.05 405.5 453.84 406.59 454.63 407.68C453.306 406.317 451.889 405.047 450.39 403.88C450.31 403.88 450.23 403.94 450.29 404.01C451.38 405.14 452.53 406.22 453.68 407.3L455.33 408.9L455.93 409.46L456.47 410.2C457.83 412.1 459.17 414.03 460.6 415.89C462.03 417.75 463.68 419.78 465.18 421.76C465.27 421.83 465.4 421.76 465.34 421.68Z" fill="#263238"/>
<path d="M369.41 414C369.41 414 380.06 407.44 383.41 404.44C386.76 401.44 397.46 393.84 404.53 391.83C412.04 389.69 420.83 394.1 424.34 400.26C427.4 405.62 428.27 414.72 424.91 415.17C419.07 415.95 417.82 405.54 413.77 404.17C411.05 403.27 407.85 405.57 405.64 409.17C403.115 413.313 402.035 418.177 402.57 423C404.27 430.94 407.64 433.12 411.19 435.17C414.74 437.22 415.67 437.1 420.37 438.92C428.37 442.01 430.45 452.74 420.61 450.08C412.19 447.8 411.35 449.65 402.84 450.22C395.76 450.776 388.646 450.702 381.58 450L369.41 414Z" fill="#FFC4C0"/>
<path d="M386.11 413C388.4 407.89 389.92 400.83 394.04 396.65C396.04 394.65 405.13 389.51 408.34 388.1C412.7 386.17 422.34 384.35 422.87 387.37C423.87 393.12 413.34 395.22 411.78 396.3C410.22 397.38 403.85 403.36 403.49 403.82C402.81 404.7 395.61 426.95 395.61 426.95L386.11 413Z" fill="#FFC4C0"/>
<path d="M381.4 415.51C383.4 410.29 384.61 403.16 388.52 398.79C390.39 396.71 399.25 391.11 402.39 389.54C406.65 387.4 416.16 385.11 416.86 388.11C418.19 393.79 407.73 396.41 406.22 397.57C404.71 398.73 398.65 405.01 398.31 405.48C397.68 406.4 391.58 428.98 391.58 428.98L381.4 415.51Z" fill="#FFC4C0"/>
<path d="M376.16 412.29C378.36 408.96 384.38 398.08 388.47 394.73C394.4 389.89 406.8 385.37 408.47 388.36C411.67 393.95 396.92 401.48 396.42 402.36C396.2 402.73 392.87 409.92 391.99 414.6C391.61 416.6 402.05 449.18 381.54 450.03L376.16 412.29Z" fill="#FFC4C0"/>
<path d="M422.85 387.3C422.85 387.25 422.74 387.25 422.75 387.3C423.11 389.95 421.16 391.78 419.1 393.07C418.027 393.728 416.874 394.246 415.67 394.61C414.454 394.919 413.266 395.331 412.12 395.84C409.87 396.97 408.12 398.9 406.26 400.6C405.29 401.434 404.375 402.329 403.52 403.28C402.789 404.228 402.256 405.313 401.95 406.47C401 409.47 400.87 410.53 399.95 413.53C399.95 413.61 400.06 413.64 400.08 413.53C400.82 410.84 403.08 404.85 404.01 403.75C404.885 402.772 405.827 401.856 406.83 401.01C408.68 399.29 410.54 397.22 412.89 396.19C414.13 395.65 415.48 395.45 416.74 395C417.896 394.596 418.987 394.027 419.98 393.31C421.76 392.06 423.8 389.61 422.85 387.3Z" fill="#263238"/>
<path d="M416.36 387.26C415.811 386.917 415.198 386.69 414.557 386.596C413.917 386.501 413.264 386.54 412.64 386.71C412.64 386.71 412.56 386.71 412.75 386.71C414.06 386.62 416 386.88 416.45 388.03C416.638 388.618 416.669 389.245 416.539 389.849C416.409 390.452 416.123 391.011 415.71 391.47C414.808 392.429 413.728 393.204 412.53 393.75L408.65 395.85C407.342 396.437 406.12 397.201 405.02 398.12C404.02 399.12 403.02 400.12 402.02 401.2C401.02 402.28 399.93 403.3 398.95 404.4C398.188 405.406 397.656 406.566 397.39 407.8C396.9 409.4 395.58 414.91 395.3 415.73C395.3 415.81 395.4 415.84 395.43 415.73C395.85 414.12 398.43 406.94 398.68 406.23C398.951 405.515 399.382 404.872 399.94 404.35C401.05 403.2 402.18 402.08 403.28 400.93C404.302 399.659 405.49 398.529 406.81 397.57C408.19 396.75 409.64 396.04 411.06 395.29C413.26 394.13 416.27 392.96 417.06 390.29C417.261 389.773 417.302 389.208 417.177 388.667C417.052 388.127 416.767 387.636 416.36 387.26Z" fill="#263238"/>
<path d="M408.85 388.85C408.651 388.389 408.329 387.991 407.92 387.7C407.54 387.45 407.5 387.56 407.57 387.64C409.68 389.64 407.98 392.01 406.9 393.32C405.747 394.616 404.486 395.81 403.13 396.89C401.713 398.101 400.231 399.233 398.69 400.28C397.999 400.684 397.347 401.149 396.74 401.67C396.226 402.249 395.841 402.931 395.61 403.67C394.896 405.51 394.196 407.35 393.51 409.19C393.16 410.09 392.82 410.99 392.51 411.9C392.144 412.75 391.876 413.639 391.71 414.55C391.45 416.37 392.15 418.14 392.55 419.9C392.95 421.66 393.35 423.64 393.62 425.54C393.91 427.67 394.1 429.82 394.18 431.97C394.318 434.174 394.261 436.386 394.01 438.58C394.01 438.68 394.13 438.7 394.14 438.58C394.32 436.66 394.55 434.76 394.65 432.84C394.736 430.926 394.703 429.009 394.55 427.1C394.397 425.19 394.133 423.29 393.76 421.41C393.57 420.48 393.36 419.57 393.11 418.66C392.804 417.718 392.567 416.756 392.4 415.78C392.18 413.88 393.22 411.94 393.88 410.21C394.54 408.48 395.29 406.53 395.98 404.69C396.228 403.779 396.642 402.922 397.2 402.16C397.868 401.558 398.603 401.034 399.39 400.6C400.88 399.6 402.33 398.52 403.72 397.39C406.21 395.37 409.86 392 408.85 388.85Z" fill="#263238"/>
<path d="M402.28 411.88C400.429 413.086 398.486 414.146 396.47 415.05C395.631 415.479 394.831 415.981 394.08 416.55C393.396 417.102 392.826 417.781 392.4 418.55C392.4 418.62 392.47 418.69 392.52 418.61C393.08 417.823 393.83 417.19 394.7 416.77C395.53 416.32 396.42 416.02 397.29 415.65C398.195 415.3 399.046 414.825 399.82 414.24C400.707 413.54 401.558 412.796 402.37 412.01C402.378 412.004 402.386 411.997 402.391 411.988C402.397 411.979 402.401 411.969 402.403 411.959C402.405 411.949 402.404 411.938 402.402 411.928C402.4 411.918 402.396 411.909 402.39 411.9C402.384 411.891 402.376 411.884 402.368 411.879C402.359 411.873 402.349 411.869 402.339 411.867C402.329 411.865 402.318 411.866 402.308 411.868C402.298 411.87 402.288 411.874 402.28 411.88Z" fill="#263238"/>
<path d="M370.36 413.62C357.5 418.8 334.49 436.67 336.71 446.18C338.93 455.69 354.92 456.1 384.35 450.28L370.36 413.62Z" fill="#FFC4C0"/>
<path d="M484.86 414C484.86 414 474.21 407.44 470.86 404.44C467.51 401.44 456.8 393.84 449.73 391.83C442.22 389.69 433.44 394.1 429.93 400.26C426.87 405.62 425.99 414.72 429.36 415.17C435.2 415.95 436.45 405.54 440.5 404.17C443.22 403.27 446.41 405.57 448.63 409.17C451.154 413.314 452.236 418.176 451.71 423C450 430.94 446.64 433.12 443.08 435.17C439.52 437.22 438.61 437.1 433.91 438.92C425.91 442.01 423.83 452.74 433.67 450.08C442.09 447.8 442.92 449.65 451.44 450.22C458.516 450.776 465.627 450.702 472.69 450L484.86 414Z" fill="#FFC4C0"/>
<path d="M468.16 413C465.88 407.89 464.36 400.83 460.23 396.65C458.23 394.65 449.15 389.51 445.94 388.1C441.57 386.17 431.94 384.35 431.41 387.37C430.36 393.12 440.93 395.22 442.5 396.3C444.07 397.38 450.43 403.36 450.78 403.82C451.46 404.7 458.66 426.95 458.66 426.95L468.16 413Z" fill="#FFC4C0"/>
<path d="M472.87 415.51C470.87 410.29 469.66 403.16 465.75 398.79C463.89 396.71 455.03 391.11 451.89 389.54C447.62 387.4 438.11 385.11 437.41 388.11C436.09 393.79 446.54 396.41 448.05 397.57C449.56 398.73 455.63 405.01 455.96 405.48C456.6 406.4 462.69 428.98 462.69 428.98L472.87 415.51Z" fill="#FFC4C0"/>
<path d="M478.11 412.29C475.91 408.96 469.9 398.08 465.8 394.73C459.88 389.89 447.48 385.37 445.8 388.36C442.6 393.95 457.35 401.48 457.86 402.36C458.07 402.73 461.41 409.92 462.29 414.6C462.66 416.6 452.22 449.18 472.73 450.03L478.11 412.29Z" fill="#FFC4C0"/>
<path d="M431.43 387.3C431.43 387.25 431.53 387.25 431.52 387.3C431.16 389.95 433.11 391.78 435.17 393.07C436.244 393.726 437.396 394.244 438.6 394.61C439.816 394.918 441.004 395.329 442.15 395.84C444.41 396.97 446.2 398.9 448.02 400.6C448.987 401.437 449.902 402.332 450.76 403.28C451.487 404.23 452.02 405.314 452.33 406.47C453.28 409.47 453.41 410.53 454.28 413.53C454.28 413.61 454.18 413.64 454.15 413.53C453.42 410.84 451.15 404.85 450.23 403.75C449.35 402.777 448.408 401.862 447.41 401.01C445.55 399.29 443.7 397.22 441.34 396.19C440.11 395.65 438.75 395.45 437.49 395C436.335 394.594 435.244 394.025 434.25 393.31C432.52 392.06 430.47 389.61 431.43 387.3Z" fill="#263238"/>
<path d="M437.91 387.26C438.458 386.917 439.072 386.691 439.712 386.597C440.352 386.502 441.005 386.541 441.63 386.71C441.68 386.71 441.72 386.71 441.53 386.71C440.22 386.62 438.28 386.88 437.82 388.03C437.631 388.618 437.601 389.245 437.731 389.849C437.86 390.452 438.146 391.011 438.56 391.47C439.463 392.432 440.547 393.206 441.75 393.75L445.62 395.85C446.929 396.435 448.151 397.199 449.25 398.12C450.25 399.12 451.25 400.12 452.25 401.2C453.25 402.28 454.33 403.3 455.31 404.4C456.079 405.401 456.613 406.564 456.87 407.8C457.37 409.4 458.68 414.91 458.97 415.73C458.97 415.81 458.86 415.84 458.84 415.73C458.41 414.12 455.84 406.94 455.59 406.23C455.319 405.513 454.884 404.869 454.32 404.35C453.22 403.2 452.09 402.08 450.99 400.93C449.962 399.663 448.776 398.534 447.46 397.57C446.08 396.75 444.63 396.04 443.21 395.29C441 394.13 438 392.96 437.21 390.29C437.008 389.773 436.967 389.208 437.092 388.667C437.217 388.127 437.502 387.636 437.91 387.26Z" fill="#263238"/>
<path d="M445.43 388.85C445.626 388.39 445.944 387.992 446.35 387.7C446.73 387.45 446.78 387.56 446.7 387.64C444.6 389.64 446.29 392.01 447.38 393.32C448.529 394.615 449.787 395.81 451.14 396.89C452.558 398.099 454.04 399.23 455.58 400.28C456.272 400.681 456.925 401.147 457.53 401.67C458.044 402.249 458.429 402.931 458.66 403.67C459.366 405.51 460.07 407.35 460.77 409.19L461.77 411.9C462.136 412.75 462.404 413.639 462.57 414.55C462.83 416.37 462.13 418.14 461.73 419.9C461.33 421.66 460.93 423.64 460.67 425.54C460.37 427.67 460.19 429.82 460.1 431.97C459.961 434.174 460.018 436.386 460.27 438.58C460.274 438.591 460.276 438.602 460.274 438.613C460.273 438.625 460.269 438.636 460.263 438.645C460.256 438.655 460.248 438.662 460.238 438.668C460.227 438.673 460.216 438.676 460.205 438.676C460.193 438.676 460.182 438.673 460.172 438.668C460.162 438.662 460.153 438.655 460.147 438.645C460.14 438.636 460.136 438.625 460.135 438.613C460.134 438.602 460.136 438.591 460.14 438.58C459.97 436.66 459.73 434.76 459.64 432.84C459.553 430.926 459.587 429.009 459.74 427.1C459.888 425.189 460.152 423.289 460.53 421.41C460.71 420.48 460.93 419.57 461.17 418.66C461.479 417.719 461.72 416.756 461.89 415.78C462.11 413.88 461.06 411.94 460.4 410.21L458.3 404.69C458.059 403.778 457.649 402.92 457.09 402.16C456.417 401.56 455.679 401.037 454.89 400.6C453.41 399.6 451.96 398.52 450.56 397.39C448.07 395.37 444.42 392 445.43 388.85Z" fill="#263238"/>
<path d="M452 411.88C453.854 413.086 455.8 414.146 457.82 415.05C458.658 415.481 459.457 415.983 460.21 416.55C460.89 417.102 461.458 417.782 461.88 418.55C461.93 418.62 461.81 418.69 461.77 418.61C461.203 417.825 460.451 417.192 459.58 416.77C458.75 416.32 457.86 416.02 457 415.65C456.095 415.3 455.243 414.825 454.47 414.24C453.579 413.545 452.727 412.801 451.92 412.01C451.86 411.93 451.93 411.84 452 411.88Z" fill="#263238"/>
<path d="M483.92 413.62C496.77 418.8 519.79 436.67 517.57 446.18C515.35 455.69 499.36 456.1 469.92 450.28L483.92 413.62Z" fill="#FFC4C0"/>
<path d="M413.47 363.64C408.21 369.11 406.66 383.93 417.02 385.37C427.38 386.81 437.02 376.69 440.77 370C444.52 363.31 436.31 358.4 427.64 358.39C418.97 358.38 416.16 360.85 413.47 363.64Z" fill="#37474F"/>
<path d="M416.37 380.1C421.91 382.18 432.83 374.69 437.61 368.1C437.93 367.65 437.84 362.44 438.03 356.1C438.16 352.25 438.39 347.98 438.89 344.1C439 343.3 413.76 346.91 413.76 346.91C413.76 346.91 415.11 355.37 414.21 362.14C414.132 362.673 414.009 363.198 413.84 363.71C413.84 363.78 413.84 363.87 413.77 363.97C412.89 367 411 378.08 416.37 380.1Z" fill="#FFC4C0"/>
<path d="M437.38 344C435.38 350.43 429.3 365.78 416.25 364.42C415.413 364.333 414.584 364.182 413.77 363.97C413.785 363.878 413.808 363.788 413.84 363.7C414.009 363.188 414.136 362.663 414.22 362.13C415.12 355.35 413.76 346.9 413.76 346.9C413.76 346.9 432 344.31 437.38 344Z" fill="#263238"/>
<path d="M441.2 310.69C444.62 319.21 442.2 344.87 436.43 351.03C428.12 359.97 413.43 362.03 405.55 351.78C397.92 341.85 401.71 308.46 408.22 302.78C417.8 294.33 436.15 298.11 441.2 310.69Z" fill="#FFC4C0"/>
<path d="M421.88 328.67C421.88 328.6 422 328.76 422 328.83C421.78 330.56 421.83 332.57 423.35 333.28C423.35 333.28 423.35 333.39 423.35 333.38C421.44 332.94 421.4 330.27 421.88 328.67Z" fill="#263238"/>
<path d="M423.58 327C426.38 327 426.1 332.64 423.5 332.6C420.9 332.56 421.24 327 423.58 327Z" fill="#263238"/>
<path d="M411.45 327.93C411.45 327.86 411.31 328.01 411.31 328.08C411.31 329.81 410.94 331.8 409.31 332.29C409.26 332.29 409.26 332.4 409.31 332.39C411.28 332.22 411.7 329.58 411.45 327.93Z" fill="#263238"/>
<path d="M410 326C407.23 325.65 406.72 331.23 409.3 331.56C411.88 331.89 412.32 326.34 410 326Z" fill="#263238"/>
<path d="M425.92 324.56C425.17 324.32 424.52 323.99 423.8 323.68C423.006 323.483 422.302 323.025 421.8 322.38C421.677 322.147 421.636 321.879 421.684 321.62C421.731 321.361 421.863 321.125 422.06 320.95C422.503 320.664 423.013 320.499 423.54 320.473C424.066 320.446 424.591 320.559 425.06 320.8C426.076 321.149 426.928 321.861 427.45 322.8C427.557 323.024 427.597 323.274 427.564 323.519C427.531 323.765 427.426 323.996 427.264 324.183C427.101 324.37 426.887 324.506 426.648 324.573C426.409 324.64 426.156 324.635 425.92 324.56Z" fill="#263238"/>
<path d="M407.77 323.35C408.529 323.242 409.28 323.088 410.02 322.89C410.836 322.837 411.613 322.517 412.23 321.98C412.388 321.771 412.474 321.517 412.474 321.255C412.474 320.993 412.388 320.739 412.23 320.53C411.85 320.171 411.382 319.917 410.873 319.794C410.365 319.671 409.833 319.684 409.33 319.83C408.269 319.982 407.3 320.519 406.61 321.34C406.466 321.539 406.382 321.775 406.369 322.02C406.356 322.265 406.414 322.509 406.537 322.722C406.66 322.934 406.842 323.107 407.061 323.219C407.279 323.33 407.526 323.376 407.77 323.35Z" fill="#263238"/>
<path d="M422 344.36C421.56 344.75 421.12 345.28 420.49 345.3C419.842 345.258 419.211 345.077 418.64 344.77C418.634 344.765 418.627 344.761 418.619 344.758C418.612 344.756 418.604 344.754 418.596 344.755C418.588 344.755 418.581 344.757 418.573 344.761C418.566 344.764 418.56 344.769 418.555 344.775C418.55 344.781 418.545 344.788 418.543 344.795C418.54 344.803 418.539 344.811 418.54 344.819C418.54 344.826 418.542 344.834 418.546 344.841C418.549 344.848 418.554 344.855 418.56 344.86C418.798 345.204 419.124 345.478 419.504 345.654C419.884 345.83 420.303 345.901 420.72 345.86C421.077 345.786 421.404 345.608 421.661 345.348C421.917 345.088 422.09 344.758 422.16 344.4C422.21 344.35 422.08 344.3 422 344.36Z" fill="#263238"/>
<path d="M420.46 339.08C419.984 339.741 419.377 340.298 418.677 340.714C417.976 341.13 417.198 341.398 416.39 341.5C415.683 341.6 414.966 341.6 414.26 341.5C414.121 341.492 413.983 341.469 413.85 341.43C413.725 341.412 413.601 341.385 413.48 341.35C413.388 341.33 413.305 341.28 413.246 341.207C413.186 341.134 413.152 341.044 413.15 340.95C413.144 340.89 413.144 340.83 413.15 340.77V340.61C413.15 339.28 413.41 337.25 413.41 337.25C412.91 337.47 410.41 338.46 410.41 337.77C411.05 332.01 411.77 325.61 413.62 320.02C413.633 319.984 413.658 319.955 413.691 319.936C413.724 319.917 413.763 319.911 413.8 319.918C413.837 319.926 413.871 319.946 413.895 319.975C413.918 320.005 413.931 320.042 413.93 320.08C413.54 325.64 412.17 331.08 411.68 336.66C412.585 336.294 413.538 336.059 414.51 335.96C414.69 336.02 413.99 339.86 414.02 340.46C414.017 340.483 414.017 340.507 414.02 340.53C416.25 340.93 417.97 340.34 420.23 338.94C420.44 338.82 420.57 338.94 420.46 339.08Z" fill="#263238"/>
<path d="M415.08 340.85C415.762 341.842 416.689 342.641 417.77 343.17C418.369 343.439 419.036 343.516 419.68 343.39C421.08 343.09 421.18 341.83 420.98 340.73C420.87 340.145 420.692 339.574 420.45 339.03C418.901 340.196 417.019 340.834 415.08 340.85Z" fill="#263238"/>
<path d="M417.77 343.17C418.369 343.439 419.036 343.516 419.68 343.39C421.08 343.09 421.18 341.83 420.98 340.73C420.248 340.714 419.532 340.947 418.949 341.39C418.366 341.833 417.951 342.46 417.77 343.17Z" fill="#FF98B9"/>
<path d="M440.53 332.51C434 331.79 434 319.8 434 319.8C434 319.8 423 316.8 422.26 308.15C422.26 308.15 410.89 313.81 402.85 309.88C394.81 305.95 397.57 296.68 398.71 294.75C399.85 292.82 404.09 297.08 404.09 297.08C404.09 297.08 405.19 291.78 406.68 291.39C408.17 291 409.38 294.39 409.38 294.39C409.38 294.39 420.55 291.93 430.3 293.25C440.05 294.57 443.84 305 443.84 305C443.84 305 448.95 306.67 450.26 310.51C451.57 314.35 444.69 333 440.53 332.51Z" fill="#263238"/>
<path d="M422.56 306.54C422.408 308.262 422.575 309.998 423.05 311.66C423.551 313.269 424.477 314.713 425.73 315.84C427.048 316.902 428.554 317.706 430.17 318.21C430.99 318.46 431.84 318.63 432.68 318.84C433.52 319.05 434.4 319.09 435.27 319.25C434.39 319.25 433.51 319.25 432.62 319.25C431.73 319.25 430.87 319.02 429.99 318.84C428.223 318.43 426.574 317.619 425.17 316.47C423.796 315.245 422.835 313.624 422.42 311.83C422.031 310.082 422.079 308.265 422.56 306.54Z" fill="#263238"/>
<path d="M443.76 306.3C443.442 303.486 442.386 300.805 440.7 298.53C439.016 296.312 436.658 294.702 433.98 293.94C433.328 293.714 432.659 293.54 431.98 293.42L429.9 293.15C428.51 293.05 427.1 293.15 425.69 293.15C424.29 293.34 422.88 293.44 421.48 293.7C420.08 293.96 418.7 294.29 417.3 294.54C418.65 294.1 420.02 293.71 421.4 293.29C422.78 292.87 424.22 292.77 425.63 292.5C428.516 292.126 431.447 292.337 434.25 293.12C437.079 293.952 439.545 295.713 441.25 298.12C442.894 300.53 443.769 303.382 443.76 306.3Z" fill="#263238"/>
<path d="M435.46 332.21C435.46 332.21 440.64 323.65 444.46 325.45C448.28 327.25 444.78 339.39 440.53 341.3C440 341.582 439.42 341.753 438.822 341.805C438.225 341.856 437.623 341.787 437.054 341.6C436.484 341.413 435.958 341.113 435.507 340.718C435.056 340.323 434.69 339.84 434.43 339.3L435.46 332.21Z" fill="#FFC4C0"/>
<path d="M443.39 328.91C443.46 328.91 443.48 328.99 443.39 329.02C440.39 330.46 439 333.4 438.06 336.41C438.9 335.22 440.06 334.52 441.68 335.5C441.76 335.55 441.68 335.68 441.61 335.67C441.061 335.534 440.484 335.571 439.957 335.777C439.43 335.983 438.981 336.347 438.67 336.82C438.157 337.613 437.728 338.458 437.39 339.34C437.27 339.62 436.76 339.51 436.85 339.19C436.844 339.167 436.844 339.143 436.85 339.12C436.56 335.22 439.23 329.57 443.39 328.91Z" fill="#263238"/>
<path d="M733.52 587L657.14 587.24L580.76 587.33L428 587.5L275.24 587.33L198.86 587.24L122.48 587L198.86 586.75L275.24 586.67L428 586.5L580.76 586.67L657.14 586.76L733.52 587Z" fill="#263238"/>
</svg>
