<svg width="503" height="500" viewBox="0 0 503 500" fill="none" xmlns="http://www.w3.org/2000/svg">
  <path fill-rule="evenodd" clip-rule="evenodd" d="M250.595 0.64259C325.324 3.70358 399.322 26.4025 446.814 84.158C495.135 142.921 510.105 221.763 493.457 295.987C476.727 370.582 429.099 434.918 360.544 468.8C291.102 503.121 208.563 506.236 139.661 470.844C72.7232 436.46 38.2768 366.139 19.0763 293.399C-1.20789 216.553 -16.1873 129.56 33.1186 67.2126C82.5843 4.66296 170.897 -2.62191 250.595 0.64259Z" fill="#B8D7FA" />
  <path d="M341.3 174.35H343.7V172.75H342.9V171.95H341.3V174.35Z" fill="#EBEBEB" />
  <path d="M346.94 174.35H350.18V172.75H346.94V174.35ZM353.42 174.35H356.65V172.75H353.42V174.35ZM359.89 174.35H363.13V172.75H359.89V174.35ZM366.37 174.35H369.61V172.75H366.37V174.35ZM372.85 174.35H376.09V172.75H372.85V174.35ZM379.32 174.35H382.56V172.75H379.32V174.35ZM385.8 174.35H389V172.75H385.76L385.8 174.35ZM392.28 174.35H395.52V172.75H392.28V174.35ZM398.76 174.35H402V172.75H398.76V174.35ZM405.23 174.35H408.47V172.75H405.23V174.35ZM411.71 174.35H414.95V172.75H411.71V174.35ZM418.19 174.35H421.43V172.75H418.19V174.35ZM424.67 174.35H427.9V172.75H424.67V174.35Z" fill="#EBEBEB" />
  <path d="M431.14 174.35H433.54V171.95H431.94V172.75H431.14V174.35Z" fill="#EBEBEB" />
  <path d="M431.94 168.72H433.54V165.48H431.94V168.72ZM431.94 162.24H433.54V159H431.94V162.24ZM431.94 155.76H433.54V152.52H431.94V155.76ZM431.94 149.28H433.54V146H431.94V149.28ZM431.94 142.81H433.54V139.57H431.94V142.81ZM431.94 136.33H433.54V133.09H431.94V136.33ZM431.94 129.85H433.54V126.61H431.94V129.85ZM431.94 123.37H433.54V120.14H431.94V123.37ZM431.94 116.9H433.54V113.66H431.94V116.9ZM431.94 110.42H433.54V107.18H431.94V110.42ZM431.94 103.94H433.54V100.7H431.94V103.94ZM431.94 97.46H433.54V94.23H431.94V97.46ZM431.94 90.99H433.54V87.75H431.94V90.99Z" fill="#EBEBEB" />
  <path d="M431.94 84.51H433.54V82.11H431.14V83.71H431.94V84.51Z" fill="#EBEBEB" />
  <path d="M346.94 83.71H350.18V82.11H346.94V83.71ZM353.42 83.71H356.65V82.11H353.42V83.71ZM359.89 83.71H363.13V82.11H359.89V83.71ZM366.37 83.71H369.61V82.11H366.37V83.71ZM372.85 83.71H376.09V82.11H372.85V83.71ZM379.32 83.71H382.56V82.11H379.32V83.71ZM385.8 83.71H389V82.11H385.76L385.8 83.71ZM392.28 83.71H395.52V82.11H392.28V83.71ZM398.76 83.71H402V82.11H398.76V83.71ZM405.23 83.71H408.47V82.11H405.23V83.71ZM411.71 83.71H414.95V82.11H411.71V83.71ZM418.19 83.71H421.43V82.11H418.19V83.71ZM424.67 83.71H427.9V82.11H424.67V83.71Z" fill="#EBEBEB" />
  <path d="M341.3 84.51H342.9V83.71H343.7V82.11H341.3V84.51Z" fill="#EBEBEB" />
  <path d="M341.3 168.72H342.9V165.48H341.3V168.72ZM341.3 162.24H342.9V159H341.3V162.24ZM341.3 155.76H342.9V152.52H341.3V155.76ZM341.3 149.28H342.9V146.05H341.3V149.28ZM341.3 142.81H342.9V139.57H341.3V142.81ZM341.3 136.33H342.9V133.09H341.3V136.33ZM341.3 129.85H342.9V126.61H341.3V129.85ZM341.3 123.37H342.9V120.14H341.3V123.37ZM341.3 116.9H342.9V113.66H341.3V116.9ZM341.3 110.42H342.9V107.18H341.3V110.42ZM341.3 103.94H342.9V100.7H341.3V103.94ZM341.3 97.46H342.9V94.23H341.3V97.46ZM341.3 90.99H342.9V87.75H341.3V90.99Z" fill="#EBEBEB" />
  <path d="M427.09 167.91H438.39V179.21H427.09V167.91Z" fill="white" />
  <path d="M426.3 180H439.19V167.11H426.3V180ZM437.59 178.4H427.9V168.71H437.59V178.4Z" fill="#EBEBEB" />
  <path d="M427.09 122.58H438.39V133.88H427.09V122.58Z" fill="white" />
  <path d="M426.3 134.68H439.19V121.78H426.3V134.68ZM437.59 133.08H427.9V123.38H437.59V133.08Z" fill="#EBEBEB" />
  <path d="M427.09 77.26H438.39V88.56H427.09V77.26Z" fill="white" />
  <path d="M426.3 89.36H439.19V76.46H426.3V89.36ZM437.59 87.76H427.9V78.06H437.59V87.76Z" fill="#EBEBEB" />
  <path d="M336.45 167.91H347.75V179.21H336.45V167.91Z" fill="white" />
  <path d="M335.65 180H348.55V167.11H335.65V180ZM346.95 178.4H337.25V168.71H346.95V178.4Z" fill="#EBEBEB" />
  <path d="M336.45 122.58H347.75V133.88H336.45V122.58Z" fill="white" />
  <path d="M335.65 134.68H348.55V121.78H335.65V134.68ZM346.95 133.08H337.25V123.38H346.95V133.08Z" fill="#EBEBEB" />
  <path d="M336.45 77.26H347.75V88.56H336.45V77.26Z" fill="white" />
  <path d="M335.65 89.36H348.55V76.46H335.65V89.36ZM346.95 87.76H337.25V78.06H346.95V87.76Z" fill="#EBEBEB" />
  <path d="M381.77 77.26H393.07V88.56H381.77V77.26Z" fill="white" />
  <path d="M381 89.36H393.9V76.46H381V89.36ZM392.3 87.76H382.6V78.06H392.3V87.76Z" fill="#EBEBEB" />
  <path d="M381.77 167.91H393.07V179.21H381.77V167.91Z" fill="white" />
  <path d="M381 180H393.9V167.11H381V180ZM392.3 178.4H382.6V168.71H392.3V178.4Z" fill="#EBEBEB" />
  <path d="M362 120H363.59C368.09 106.4 370.68 100.81 378.27 100.81H379.27V155.72H372.18V157.47H402.61V155.72H395.52V100.78H396.6C404.19 100.78 407 107 411.29 120H412.87L412 99H362.77L362 120Z" fill="#EBEBEB" />
  <path d="M410.41 309.03H436.89V320.22H410.41V309.03Z" fill="#EBEBEB" />
  <path d="M272.05 221.66H298.53V232.85H272.05V221.66Z" fill="#EBEBEB" />
  <path d="M425.18 323.14H451.66V334.33H425.18V323.14Z" fill="#EBEBEB" />
  <path d="M54.3403 323.14H80.8203V334.33H54.3403V323.14Z" fill="#EBEBEB" />
  <path d="M69.1103 57.33H95.5903V68.52H69.1103V57.33Z" fill="#EBEBEB" />
  <path d="M54.3403 71.44H80.8203V82.63H54.3403V71.44Z" fill="#EBEBEB" />
  <path d="M410.41 57.33H436.89V68.52H410.41V57.33Z" fill="#EBEBEB" />
  <path d="M54.3501 142.06H246.58V150.31H54.3501V142.06Z" fill="#EBEBEB" />
  <path d="M218.63 182.81H226.11L229.12 150.32H218.63V182.81Z" fill="#EBEBEB" />
  <path d="M82.29 182.81H74.8L71.8 150.32H82.29V182.81Z" fill="#EBEBEB" />
  <path d="M229.12 150.32H218.63V161.51H228.09L229.12 150.32Z" fill="#DBDBDB" />
  <path d="M71.8 150.32L72.83 161.51H82.29V150.32H71.8Z" fill="#DBDBDB" />
  <path d="M177 92.55C185.53 104.1 194.43 117.55 196.59 131.99C196.59 132.21 196.27 132.28 196.22 132.07C195.242 128.118 193.982 124.242 192.45 120.47C186.84 118.92 181.33 117.66 178.39 112.09C175.39 106.37 175.77 98.91 176.34 92.67C176.34 92.34 176.79 92.32 177 92.55Z" fill="#EBEBEB" />
  <path d="M192.32 120.36C188.49 111.76 183.57 103.12 177.32 96.05C177.32 96.05 177.21 96.05 177.25 96.12C181.152 101.16 184.58 106.549 187.49 112.22C184.67 109.36 181.57 106.79 178.9 103.75C178.895 103.744 178.889 103.739 178.882 103.736C178.874 103.732 178.867 103.73 178.859 103.73C178.851 103.729 178.843 103.731 178.836 103.733C178.828 103.736 178.821 103.74 178.815 103.745C178.809 103.75 178.805 103.757 178.801 103.764C178.798 103.771 178.796 103.779 178.795 103.786C178.795 103.794 178.796 103.802 178.798 103.81C178.801 103.817 178.805 103.824 178.81 103.83C181.47 107.02 184.37 110.48 187.81 112.83C188.74 114.55 189.67 116.26 190.62 117.98C190.39 117.85 190.15 117.74 189.91 117.62C189.91 117.62 189.83 117.62 189.91 117.68C190.18 117.81 190.44 117.95 190.71 118.07C191.16 118.88 191.61 119.7 192.07 120.51C192.15 120.7 192.4 120.54 192.32 120.36Z" fill="#A6A6A6" />
  <path d="M189.47 117.36C187.176 116.076 184.986 114.615 182.92 112.99C182.87 112.99 182.79 112.99 182.84 113.07C184.843 114.798 187.037 116.291 189.38 117.52C189.48 117.57 189.58 117.42 189.47 117.36Z" fill="#A6A6A6" />
  <path d="M197.49 131.86C197.49 132.04 197.17 132.03 197.18 131.86C197.13 127.08 197.18 122.29 197.1 117.5C195.88 115.03 193.25 113.67 191.43 111.69C190.116 110.248 188.975 108.657 188.03 106.95C185.829 102.879 184.485 98.4002 184.08 93.79C183.58 88.69 185.51 71.85 187.66 72.43C188.78 72.74 192.39 81.08 193.35 83.83C194.904 88.3838 196.039 93.0699 196.74 97.83C198.49 109 198.34 120.56 197.49 131.86Z" fill="#EBEBEB" />
  <path d="M197.52 111.28C197.26 105.28 195.9 99.15 194.63 93.28C193.25 86.97 191.63 81.04 188.41 75.41C188.395 75.3943 188.376 75.3839 188.354 75.3805C188.333 75.377 188.311 75.3807 188.291 75.3908C188.272 75.401 188.257 75.4172 188.248 75.4369C188.238 75.4566 188.236 75.4787 188.24 75.5C190.405 79.8764 192.081 84.4773 193.24 89.22C193.02 88.88 192.76 88.56 192.53 88.22C192.44 88.09 192.24 88.22 192.32 88.34C192.604 88.8493 192.939 89.3284 193.32 89.77C194.44 94.28 195.24 98.89 195.93 103.49L195.77 103.31C195.77 103.31 195.68 103.31 195.7 103.37C195.72 103.43 195.88 103.67 195.98 103.82C196.32 106.16 196.64 108.49 196.98 110.82C192.718 107.397 189.38 102.963 187.27 97.92C187.27 97.92 187.22 97.92 187.27 97.92C189.27 103.27 192.32 108.03 197.08 111.28C197.17 111.9 197.26 112.52 197.34 113.14C197.34 113.27 197.57 113.24 197.57 113.14C197.57 112.59 197.57 112.04 197.52 111.49C197.537 111.478 197.55 111.462 197.56 111.444C197.569 111.426 197.574 111.405 197.574 111.385C197.574 111.365 197.569 111.344 197.56 111.326C197.55 111.308 197.537 111.292 197.52 111.28Z" fill="#A6A6A6" />
  <path d="M195.56 102.53C192.317 97.9226 189.483 93.0407 187.09 87.94C187.09 87.94 186.97 87.94 186.99 87.94C188.89 93.2922 191.739 98.2582 195.4 102.6C195.48 102.74 195.63 102.63 195.56 102.53Z" fill="#A6A6A6" />
  <path d="M191.34 86.77C190.03 84.44 188.64 82.18 187.4 79.77C187.4 79.71 187.27 79.77 187.3 79.83C188.317 82.2985 189.605 84.6463 191.14 86.83C191.156 86.8447 191.175 86.855 191.195 86.86C191.216 86.865 191.237 86.8644 191.258 86.8583C191.278 86.8522 191.297 86.8408 191.311 86.8253C191.326 86.8098 191.336 86.7907 191.34 86.77Z" fill="#A6A6A6" />
  <path d="M199.82 119.63C199.886 122.792 200.261 125.941 200.94 129.03L200.79 130.03C199.813 126.62 199.249 123.105 199.11 119.56C199.08 119.51 199.064 119.453 199.064 119.395C199.064 119.337 199.08 119.28 199.11 119.23C198.974 114.476 199.329 109.721 200.17 105.04C201.64 96.27 204.87 87.85 210.99 81.28C211.04 81.2366 211.1 81.2053 211.164 81.1887C211.228 81.172 211.295 81.1704 211.36 81.1839C211.425 81.1975 211.486 81.2258 211.538 81.2668C211.59 81.3077 211.632 81.3602 211.66 81.42C214.13 87.69 213.27 95.18 211.17 101.42C210.022 104.833 208.381 108.061 206.3 111C204.2 113.92 201.53 116.41 199.82 119.63Z" fill="#EBEBEB" />
  <path d="M210.24 84.24C204.45 93.64 200.42 104.79 199.92 115.9C199.92 116.1 200.25 116.15 200.27 115.9C200.41 114.9 200.56 113.9 200.72 112.9C203.239 110.672 205.451 108.119 207.3 105.31C207.3 105.31 207.3 105.2 207.22 105.24C205.231 107.698 203.097 110.036 200.83 112.24C201.243 109.793 201.74 107.377 202.32 104.99L202.78 104.45C202.88 104.33 202.71 104.16 202.6 104.28L202.47 104.43C203.275 101.166 204.276 97.9531 205.47 94.81C206.94 93.05 208.59 91.53 209.66 89.41H209.59C208.72 90.62 207.89 91.84 206.91 92.96C206.52 93.41 206.09 93.83 205.68 94.27C207.018 90.8612 208.606 87.5556 210.43 84.38C210.435 84.3557 210.433 84.3304 210.424 84.3073C210.415 84.2841 210.4 84.264 210.38 84.2492C210.36 84.2345 210.336 84.2258 210.311 84.2242C210.286 84.2226 210.262 84.228 210.24 84.24Z" fill="#A6A6A6" />
  <path d="M209.07 95.84C207.2 98.36 205.07 100.77 203.32 103.37C203.27 103.45 203.38 103.52 203.44 103.46C205.669 101.195 207.604 98.6582 209.2 95.91C209.25 95.83 209.13 95.77 209.07 95.84Z" fill="#A6A6A6" />
  <path d="M203.06 104L202.98 104.08C202.93 104.14 202.98 104.23 203.07 104.17L203.15 104.09C203.2 104 203.12 103.9 203.06 104Z" fill="#A6A6A6" />
  <path d="M220.22 99.94C219.536 105.194 217.419 110.159 214.1 114.29C212.725 115.918 211.021 117.237 209.1 118.16C206.96 119.22 204.71 120.45 202.49 121.32C201.432 124.008 200.645 126.795 200.14 129.64L199.93 128.9C201.35 116.65 209.28 106.18 219.42 99.46C219.498 99.3917 219.596 99.3498 219.699 99.3406C219.802 99.3313 219.906 99.3551 219.995 99.4085C220.084 99.4618 220.154 99.542 220.194 99.6376C220.235 99.7331 220.244 99.839 220.22 99.94Z" fill="#EBEBEB" />
  <path d="M216.71 103.56C216.79 103.5 216.71 103.37 216.61 103.43C211.041 107.574 206.599 113.047 203.69 119.35C203.62 119.52 203.85 119.67 203.94 119.5C204.41 118.67 204.89 117.87 205.38 117.08C207.69 116.65 209.89 115.02 211.6 113.47C211.65 113.47 211.6 113.36 211.54 113.4C210.654 114.208 209.67 114.9 208.61 115.46C207.66 115.94 206.61 116.24 205.67 116.62C206.52 115.26 207.42 113.96 208.35 112.69C210.863 111.739 213.222 110.421 215.35 108.78C215.41 108.78 215.35 108.62 215.28 108.67C213.188 109.931 211.032 111.083 208.82 112.12C210.23 110.255 211.753 108.478 213.38 106.8C214.17 106.39 214.97 105.97 215.73 105.52C215.79 105.52 215.73 105.38 215.68 105.41C215.047 105.63 214.442 105.925 213.88 106.29C214.76 105.37 215.71 104.45 216.71 103.56Z" fill="#A6A6A6" />
  <path d="M216.5 107.79C216.362 107.872 216.232 107.966 216.11 108.07C216.11 108.07 216.11 108.15 216.16 108.13C216.302 108.069 216.436 107.992 216.56 107.9C216.63 107.86 216.57 107.75 216.5 107.79Z" fill="#A6A6A6" />
  <path d="M187.5 142.06H208.38L207.36 128.38L206.96 123.91H189.11L188.72 128.38L187.5 142.06Z" fill="#DBDBDB" />
  <path d="M188.72 128.38H207.36L206.96 123.91H189.11L188.72 128.38Z" fill="#C7C7C7" />
  <path d="M187.68 120.25H208.38V124.83H187.68V120.25Z" fill="#DBDBDB" />
  <path d="M136.75 142.03V92.33H149.27V142.03H136.75Z" fill="#C7C7C7" />
  <path d="M136.76 95.13V89.67H149.28V95.13H136.76Z" fill="#DBDBDB" />
  <path d="M136.76 104.17V102.14H149.28V104.17H136.76Z" fill="#DBDBDB" />
  <path d="M136.76 135.51V130.05H149.28V135.51H136.76Z" fill="#DBDBDB" />
  <path d="M128.01 142.03V84.06H136.76V142.03H128.01Z" fill="#DBDBDB" />
  <path d="M129.8 111.81V89.51H135.05V111.81H129.8Z" fill="#EBEBEB" />
  <path d="M65.7292 135.755L106.956 95.0007L113.107 101.223L71.8806 141.978L65.7292 135.755Z" fill="#C7C7C7" />
  <path d="M76.6229 127.423L92.4819 111.745L96.1728 115.479L80.3138 131.156L76.6229 127.423Z" fill="#DBDBDB" />
  <path d="M113.17 142.05V98.01H128.02V142.05H113.17Z" fill="#A6A6A6" />
  <path d="M113.16 137.37V133.27H128.01V137.37H113.16Z" fill="#C7C7C7" />
  <path d="M113.16 130.57V128.98H128.01V130.57H113.16Z" fill="#C7C7C7" />
  <path d="M165.492 142.074L149.171 104.049L158.599 100.002L174.92 138.027L165.492 142.074Z" fill="#A6A6A6" />
  <path d="M163.774 138.04L162.252 134.493L171.68 130.447L173.203 133.994L163.774 138.04Z" fill="#C7C7C7" />
  <path d="M154.068 115.425L152.546 111.878L161.974 107.831L163.497 111.378L154.068 115.425Z" fill="#C7C7C7" />
  <path d="M155.712 119.232L155.121 117.853L164.549 113.806L165.14 115.185L155.712 119.232Z" fill="#C7C7C7" />
  <path d="M127.08 256.19L184.94 271.32L204.37 197.04L161.4 185.8L146.5 181.91L142.8 196.06L127.08 256.19Z" fill="#EBEBEB" />
  <path d="M194.961 209.898L147.825 197.576L148.323 195.67L195.459 207.992L194.961 209.898Z" fill="#DBDBDB" />
  <path d="M193.687 214.721L146.551 202.399L147.049 200.493L194.185 212.815L193.687 214.721Z" fill="#DBDBDB" />
  <path d="M192.435 219.526L145.299 207.204L145.797 205.298L192.933 217.62L192.435 219.526Z" fill="#DBDBDB" />
  <path d="M191.17 224.341L144.034 212.019L144.532 210.113L191.668 222.435L191.17 224.341Z" fill="#DBDBDB" />
  <path d="M189.918 229.157L142.782 216.835L143.28 214.929L190.417 227.251L189.918 229.157Z" fill="#DBDBDB" />
  <path d="M188.654 233.972L141.518 221.65L142.016 219.744L189.152 232.066L188.654 233.972Z" fill="#DBDBDB" />
  <path d="M187.4 238.787L140.264 226.465L140.762 224.559L187.898 236.881L187.4 238.787Z" fill="#DBDBDB" />
  <path d="M186.138 243.602L139.001 231.28L139.5 229.374L186.636 241.696L186.138 243.602Z" fill="#DBDBDB" />
  <path d="M184.883 248.417L137.747 236.095L138.245 234.189L185.381 246.511L184.883 248.417Z" fill="#DBDBDB" />
  <path d="M183.621 253.222L136.485 240.9L136.984 238.995L184.12 251.316L183.621 253.222Z" fill="#DBDBDB" />
  <path d="M182.564 256.347L135.305 244.167L135.798 242.256L183.056 254.436L182.564 256.347Z" fill="#DBDBDB" />
  <path d="M181.095 262.85L133.959 250.528L134.457 248.622L181.593 260.944L181.095 262.85Z" fill="#DBDBDB" />
  <path d="M111.71 277.62L171.43 280.96L175.72 204.3L131.38 201.82L115.18 215.57L111.71 277.62Z" fill="#EBEBEB" />
  <path d="M131.38 201.82L115.18 215.57L130.56 216.43L131.38 201.82Z" fill="#DBDBDB" />
  <path d="M169.05 218.789L135.852 216.933L135.962 214.966L169.16 216.822L169.05 218.789Z" fill="#DBDBDB" />
  <path d="M168.777 223.763L135.579 221.907L135.689 219.94L168.887 221.796L168.777 223.763Z" fill="#DBDBDB" />
  <path d="M168.484 228.725L135.286 226.869L135.396 224.902L168.594 226.759L168.484 228.725Z" fill="#DBDBDB" />
  <path d="M168.212 233.691L119.568 230.972L119.678 229.005L168.322 231.724L168.212 233.691Z" fill="#DBDBDB" />
  <path d="M167.939 238.655L119.295 235.935L119.405 233.968L168.049 236.688L167.939 238.655Z" fill="#DBDBDB" />
  <path d="M167.666 243.628L119.022 240.908L119.132 238.941L167.776 241.661L167.666 243.628Z" fill="#DBDBDB" />
  <path d="M167.373 248.601L118.729 245.881L118.839 243.914L167.483 246.634L167.373 248.601Z" fill="#DBDBDB" />
  <path d="M167.1 253.564L118.456 250.844L118.566 248.878L167.21 251.597L167.1 253.564Z" fill="#DBDBDB" />
  <path d="M166.827 258.538L118.183 255.818L118.293 253.851L166.937 256.571L166.827 258.538Z" fill="#DBDBDB" />
  <path d="M166.544 263.501L117.9 260.781L118.01 258.814L166.654 261.534L166.544 263.501Z" fill="#DBDBDB" />
  <path d="M166.271 268.464L117.627 265.745L117.737 263.778L166.381 266.497L166.271 268.464Z" fill="#DBDBDB" />
  <path d="M165.988 273.437L117.344 270.717L117.454 268.751L166.098 271.47L165.988 273.437Z" fill="#DBDBDB" />
  <path d="M455.47 417.76L404.85 417.52L354.23 417.43L253 417.27L151.77 417.43L101.15 417.52L50.5302 417.76L101.15 418.01L151.77 418.1L253 418.26L354.23 418.1L404.85 418.01L455.47 417.76Z" fill="#263238" />
  <path d="M342.35 191C348.51 177.18 361.88 168.11 374.73 171.55C402.3 178.92 398.55 220.6 418.35 247.55C442.27 280.11 442.56 307.48 421.74 311.45C398.42 315.89 376.63 290.88 379.11 238.5C380.66 205.74 373.75 194.14 364.88 191.62C358.36 189.77 351.08 197.62 351.08 197.62L342.35 191Z" fill="#263238" />
  <path d="M379.5 220.37C379.63 225.58 379.17 230.78 378.9 235.97C378.63 241.16 378.24 246.33 378.08 251.5C377.89 256.66 377.96 261.827 378.29 266.98C378.571 272.105 379.372 277.187 380.68 282.15C381.905 287.1 384.071 291.768 387.06 295.9C390.241 299.965 394.101 303.45 398.47 306.2C402.877 309.002 407.869 310.754 413.06 311.32C415.675 311.608 418.317 311.561 420.92 311.18C422.226 310.996 423.516 310.715 424.78 310.34C426.062 310.016 427.291 309.511 428.43 308.84C426.196 310.325 423.686 311.345 421.05 311.84C418.4 312.408 415.688 312.636 412.98 312.52C410.267 312.372 407.581 311.899 404.98 311.11C402.374 310.297 399.869 309.194 397.51 307.82C395.16 306.463 392.943 304.886 390.89 303.11L389.39 301.75L387.94 300.34C386.969 299.382 386.064 298.36 385.23 297.28C382.015 292.943 379.675 288.021 378.34 282.79C375.62 272.46 375.55 261.79 376.21 251.44C376.54 246.23 377.11 241.05 377.74 235.88C378.37 230.71 379.08 225.55 379.5 220.37Z" fill="#263238" />
  <path d="M348.39 183C350.571 180.118 353.108 177.524 355.94 175.28C358.739 173.113 361.994 171.61 365.459 170.886C368.924 170.162 372.508 170.235 375.94 171.1C377.655 171.543 379.328 172.136 380.94 172.87C382.535 173.569 384.056 174.427 385.48 175.43C388.236 177.55 390.605 180.132 392.48 183.06C394.355 186.06 395.913 189.248 397.13 192.57C399.7 199.23 401.48 206.27 403.56 213.24C405.541 220.297 408.061 227.19 411.1 233.86C414.398 240.395 418.2 246.664 422.47 252.61C426.59 258.61 430.87 264.44 434.14 270.84C435.859 273.995 437.173 277.355 438.05 280.84L438.63 283.47C438.75 284.36 438.81 285.26 438.9 286.15L439 287.45V288.81L438.94 291.52C440.13 284.32 438.51 276.79 435.39 270.18C432.27 263.57 428.18 257.46 424.29 251.35C420.4 245.24 416.52 239.16 413.53 232.66C410.621 226.087 408.202 219.309 406.29 212.38C404.17 205.47 402.38 198.38 399.63 191.55C398.289 188.08 396.59 184.758 394.56 181.64C392.455 178.505 389.783 175.792 386.68 173.64C385.106 172.606 383.431 171.734 381.68 171.04C379.955 170.315 378.168 169.749 376.34 169.35C372.686 168.517 368.886 168.567 365.255 169.496C361.624 170.425 358.266 172.205 355.46 174.69C352.72 177.11 350.339 179.908 348.39 183Z" fill="#263238" />
  <path d="M337 193.57C337 190.94 339 187.57 340.67 187.18C342.34 186.79 354.86 192.46 355.86 195.72C356.86 198.98 351.2 201.72 351.2 201.72L337 193.57Z" fill="#407BFF" />
  <path d="M349.38 297.38C342.14 340.73 331.31 375.33 319.85 384.27C310.6 391.49 297.25 397.11 283.4 401.41C268.578 405.817 253.482 409.245 238.21 411.67C233.51 412.45 229.59 413.01 226.81 413.44C219.93 414.44 204.88 369.69 209.33 363.72C210.33 362.35 214.83 361 221.16 359.66C242.47 355.21 287.08 351.72 289.41 349.1C291.74 346.48 313.27 314.88 330.58 290.56C342.7 273.54 353.39 273.34 349.38 297.38Z" fill="#FFC4C0" />
  <path d="M240.31 407.7C239.48 408.17 227.7 414.47 220.36 416.95C214.88 418.81 198.96 423.73 196.36 417.9C194.55 413.9 203.57 409.9 209.89 406.96C213.21 405.4 217.23 401.66 216.14 399.53C214.22 395.8 205.66 400.01 200.07 403.6C189.26 410.54 174.99 422.81 167.96 417.48C165.31 415.48 168.11 411.48 172.3 407.48C165.43 412.22 158.06 416.19 155.02 414.07C153.28 412.86 153.12 411.07 153.97 409.07C151.82 409.88 149.89 409.83 148.48 408.46C146.08 406.16 147.04 402.57 149.39 398.82C148.956 398.791 148.535 398.66 148.162 398.438C147.788 398.215 147.472 397.908 147.24 397.54C142.05 390.35 165.44 367.98 173.77 365.61C198.27 358.61 224.71 359.61 224.71 359.61C234.74 366.91 240.33 407.68 240.31 407.7Z" fill="#FFC4C0" />
  <path d="M202.88 386.23C197.009 387.37 191.464 389.794 186.64 393.33C181.04 397.55 176.69 403.18 171.55 407.9C171.41 408.03 171.62 408.24 171.76 408.11C174.16 405.68 176.83 403.48 179.34 401.11C181.85 398.74 184.17 396.46 186.77 394.35C191.466 390.477 196.982 387.724 202.9 386.3C203 386.32 202.94 386.22 202.88 386.23Z" fill="#263238" />
  <path d="M197.79 375.93C191.37 378 184.79 380.1 178.87 383.44C172.41 387.1 167.48 392.83 162.63 398.34C159.723 401.673 156.887 405.047 154.12 408.46C154 408.6 154.2 408.81 154.32 408.67C159.24 402.977 164.327 397.437 169.58 392.05C174.414 387.031 180.191 383.014 186.58 380.23C190.24 378.64 194.01 377.34 197.78 376.05C197.788 376.051 197.796 376.05 197.803 376.047C197.811 376.045 197.818 376.041 197.824 376.036C197.83 376.031 197.835 376.025 197.839 376.018C197.842 376.011 197.844 376.003 197.845 375.995C197.846 375.987 197.845 375.979 197.842 375.972C197.84 375.964 197.836 375.957 197.831 375.951C197.826 375.945 197.82 375.94 197.813 375.936C197.806 375.933 197.798 375.931 197.79 375.93Z" fill="#263238" />
  <path d="M190.43 367.05C184.17 368.63 178.7 369.99 173.25 373.62C166.04 378.44 159.25 386.31 156.83 389.11C154.19 392.19 151.65 395.36 149.16 398.56C149.06 398.69 149.29 398.87 149.39 398.74C155.099 391.698 161.259 385.034 167.83 378.79C170.914 375.762 174.449 373.232 178.31 371.29C182.23 369.549 186.291 368.147 190.45 367.1C190.45 367.1 190.46 367.05 190.43 367.05Z" fill="#263238" />
  <path d="M342.49 342.77L304.79 320.54C304.79 320.54 320.88 294.54 334.63 282.27C348.38 270 353.93 279.63 351.84 297.46C349.75 315.29 342.49 342.77 342.49 342.77Z" fill="#407BFF" />
  <path d="M330.12 331.46C330.357 332.96 330.808 334.419 331.46 335.79C331.57 336.01 331.67 336.24 331.78 336.46L333.33 337.37C333.1 336.67 332.82 335.98 332.52 335.3C331.909 333.911 331.1 332.618 330.12 331.46ZM345.47 311.59C346.84 310.933 348.299 310.482 349.8 310.25C347.451 312.192 344.634 313.485 341.63 314C342.791 313.02 344.083 312.209 345.47 311.59ZM332.54 289.59C332.033 291.018 331.323 292.365 330.43 293.59C330.716 290.554 331.795 287.647 333.56 285.16C333.431 286.684 333.088 288.182 332.54 289.61V289.59ZM315.21 307.49C316.464 307.659 317.695 307.968 318.88 308.41C320.307 308.924 321.654 309.637 322.88 310.53C321.364 310.409 319.872 310.072 318.45 309.53C317.27 309.101 316.14 308.544 315.08 307.87C315.111 307.746 315.155 307.625 315.21 307.51V307.49Z" fill="white" />
  <path d="M310.73 314.89C316.73 317.98 332.9 326.89 342.59 334.06C342.65 334.06 342.5 334.35 342.44 334.32C333.44 329.61 316.25 318.89 310.51 315.27C310.4 315.2 310.61 314.83 310.73 314.89Z" fill="#263238" />
  <path d="M307.89 322.38L342.48 342.77C342.48 342.77 349.75 315.3 351.84 297.46C353.18 285.95 351.35 277.86 346.18 276.87L307.89 322.38Z" fill="#263238" />
  <path d="M306.07 417.73H430.71C430.71 417.73 403.64 313.18 378.58 283.73C378.02 283.05 377.44 282.42 376.86 281.82C376.74 281.68 376.64 281.58 376.52 281.46C374.581 279.387 372.322 277.638 369.83 276.28C369.39 276.04 368.95 275.82 368.49 275.62C358.84 271.18 348.65 274.86 341.29 281.16C338.96 283.16 312.54 317.53 310.2 330.63C308.2 342.2 316 354.63 316 354.63L306.07 417.73Z" fill="#407BFF" />
  <path d="M361.14 290.2C361.38 291.704 361.834 293.165 362.49 294.54C363.101 295.931 363.913 297.225 364.9 298.38C364.662 296.879 364.207 295.42 363.55 294.05C362.935 292.658 362.123 291.361 361.14 290.2ZM379.9 348.72C380.548 350.093 380.999 351.551 381.24 353.05C379.298 350.701 378.005 347.884 377.49 344.88C378.47 346.04 379.281 347.333 379.9 348.72ZM395.3 409.79C395.958 411.163 396.41 412.625 396.64 414.13C394.711 411.769 393.42 408.953 392.89 405.95C393.87 407.11 394.681 408.403 395.3 409.79ZM332.52 335.3C333.175 336.675 333.63 338.136 333.87 339.64C332.881 338.483 332.069 337.185 331.46 335.79C330.808 334.419 330.356 332.96 330.12 331.46C331.1 332.618 331.908 333.911 332.52 335.3ZM312.77 375.2C313.408 376.558 313.853 377.999 314.09 379.48C313.469 378.764 312.923 377.987 312.46 377.16L312.77 375.2ZM360.24 403.57C360.888 404.947 361.339 406.408 361.58 407.91C360.591 406.753 359.779 405.455 359.17 404.06C358.522 402.687 358.071 401.229 357.83 399.73C358.81 400.89 359.621 402.183 360.24 403.57ZM345.47 311.57C346.84 310.913 348.299 310.462 349.8 310.23C347.451 312.172 344.634 313.465 341.63 313.98C342.792 313.007 344.084 312.203 345.47 311.59V311.57ZM337.23 361.2C338.603 360.552 340.061 360.101 341.56 359.86C340.402 360.843 339.109 361.655 337.72 362.27C336.347 362.918 334.889 363.369 333.39 363.61C334.552 362.637 335.844 361.833 337.23 361.22V361.2ZM334.23 415.47C335.607 414.822 337.068 414.371 338.57 414.13C336.215 416.069 333.396 417.362 330.39 417.88C331.552 416.907 332.844 416.103 334.23 415.49V415.47ZM394.52 369.79C395.897 369.142 397.358 368.691 398.86 368.45C397.7 369.435 396.403 370.247 395.01 370.86C393.637 371.508 392.179 371.959 390.68 372.2C391.842 371.227 393.134 370.423 394.52 369.81V369.79ZM313.47 345.33C313.391 346.348 313.2 347.354 312.9 348.33C312.73 347.91 312.55 347.47 312.38 347.02C312.699 346.436 313.064 345.877 313.47 345.35V345.33ZM315.89 403.23C315.379 404.656 314.668 406.003 313.78 407.23C313.899 405.716 314.236 404.228 314.78 402.81C315.295 401.383 316.008 400.037 316.9 398.81C316.772 400.33 316.432 401.824 315.89 403.25V403.23ZM380.48 319.32C379.973 320.748 379.262 322.095 378.37 323.32C378.492 321.807 378.829 320.318 379.37 318.9C379.889 317.475 380.602 316.129 381.49 314.9C381.369 316.421 381.029 317.916 380.48 319.34V319.32ZM360.69 370.62C360.179 372.046 359.468 373.393 358.58 374.62C358.695 373.106 359.032 371.616 359.58 370.2C360.087 368.772 360.798 367.425 361.69 366.2C361.57 367.72 361.233 369.215 360.69 370.64V370.62ZM414.44 391.55C413.93 392.976 413.219 394.323 412.33 395.55C412.451 394.033 412.788 392.542 413.33 391.12C413.849 389.695 414.562 388.349 415.45 387.12C415.328 388.638 414.988 390.13 414.44 391.55ZM337.68 389.25C336.252 388.737 334.906 388.023 333.68 387.13C335.194 387.245 336.684 387.582 338.1 388.13C339.528 388.637 340.875 389.348 342.1 390.24C340.587 390.121 339.099 389.788 337.68 389.25ZM409.93 349.72C410.09 350.19 410.26 350.65 410.42 351.12L409.77 350.9C408.34 350.393 406.992 349.679 405.77 348.78C407.194 348.898 408.594 349.214 409.93 349.72ZM320.77 309.25C321.519 309.615 322.233 310.05 322.9 310.55C321.999 310.494 321.107 310.34 320.24 310.09C320.42 309.81 320.6 309.53 320.77 309.25ZM379.84 389.25C378.415 388.731 377.069 388.018 375.84 387.13C377.354 387.245 378.844 387.582 380.26 388.13C381.686 388.64 383.033 389.351 384.26 390.24C382.747 390.121 381.259 389.788 379.84 389.25ZM427.38 411.79C428.05 412.05 428.71 412.32 429.38 412.64C429.473 413 429.563 413.333 429.65 413.64C428.75 413.444 427.865 413.187 427 412.87C425.573 412.36 424.227 411.649 423 410.76C424.502 410.893 425.976 411.24 427.38 411.79ZM359.38 333.58C357.955 333.061 356.609 332.348 355.38 331.46C356.894 331.575 358.384 331.912 359.8 332.46C361.226 332.97 362.573 333.681 363.8 334.57C362.291 334.446 360.807 334.113 359.39 333.58H359.38Z" fill="white" />
  <path d="M334.7 350.17C340.01 350.688 345.275 351.601 350.45 352.9C353.01 353.58 355.52 354.37 358.03 355.22C359.28 355.65 360.54 356.03 361.81 356.4C363.121 356.835 364.482 357.104 365.86 357.2C365.88 357.207 365.897 357.219 365.91 357.236C365.922 357.253 365.929 357.274 365.929 357.295C365.929 357.316 365.922 357.337 365.91 357.354C365.897 357.371 365.88 357.383 365.86 357.39C364.556 357.447 363.249 357.413 361.95 357.29C360.692 357.123 359.446 356.876 358.22 356.55C355.62 355.89 353.05 355.1 350.45 354.41C345.2 353.01 339.96 351.62 334.63 350.6C334.39 350.56 334.45 350.14 334.7 350.17Z" fill="#263238" />
  <path d="M321.54 354.75C325.917 354.335 330.314 354.165 334.71 354.24C336.92 354.24 339.1 354.46 341.29 354.69C342.29 354.8 343.38 354.93 344.42 355.07C345.46 355.21 346.69 355.53 347.84 355.67C347.96 355.67 347.95 355.88 347.84 355.86C346.76 355.76 345.65 355.86 344.56 355.81L341.27 355.69C339.08 355.62 336.89 355.57 334.69 355.48C330.3 355.29 325.93 355.15 321.54 355.12C321.29 355.11 321.31 354.78 321.54 354.75Z" fill="#263238" />
  <path d="M381.7 285.52C401.47 306.69 445.7 382.76 430.49 397.41C415.28 412.06 319.69 412.34 302.66 412.34C294.91 412.34 310.79 361.34 319.1 360.34C326.02 359.49 376.33 357.86 377.35 355.82C378.51 353.52 371.94 334.96 366.13 303.61C359.9 270 373 276.17 381.7 285.52Z" fill="#FFC4C0" />
  <path d="M291.52 349.84C274.34 347.44 269.52 349.47 256.13 339.75C247.32 333.37 239.47 336.26 244.49 346.39C252.72 362.97 274.24 370.71 282.49 371.25L291.52 349.84Z" fill="#FFC4C0" />
  <path d="M337.16 366.38C337.16 366.38 317.85 355.66 299.8 351.29C287.31 348.29 258.11 343.54 232.72 372.29C224.72 381.35 224.29 394.16 236.56 386.51C246.09 380.57 251.22 374.64 257.62 372.85C257.62 372.85 254.11 391.06 260.9 397.15C266.835 402.472 273.141 407.364 279.77 411.79C280.862 410.762 281.884 409.663 282.83 408.5C282.83 408.5 289.71 413.59 302.66 412.36L337.16 366.38Z" fill="#FFC4C0" />
  <path d="M287.42 350.32C281.42 353.43 268.91 360.24 260.58 369.38C251.34 379.53 236.27 401.58 243.83 408.33C249.38 413.27 255.83 405.33 255.83 405.33C255.83 405.33 251.52 415.76 257.51 419.13C262.97 422.2 267.62 415.78 267.62 415.78C267.62 415.78 266.1 422.56 271.92 424.51C278.92 426.85 280.98 412.27 290.13 408.51C292.22 407.69 287.42 350.32 287.42 350.32Z" fill="#FFC4C0" />
  <path d="M273.22 377.5C268.08 381.35 258.66 393.08 256.06 405.23C256 405.51 256.17 405.7 256.28 405.46C260.797 395.516 266.506 386.157 273.28 377.59C273.36 377.53 273.27 377.45 273.22 377.5Z" fill="#263238" />
  <path d="M282.91 387C278.83 390.78 269.66 403.3 267.44 415.71C267.39 415.98 267.58 416.16 267.68 415.92C271.676 405.753 276.816 396.074 283 387.07C283.06 387 283 386.94 282.91 387Z" fill="#263238" />
  <path d="M298.86 412.53C296.825 412.505 294.794 412.345 292.78 412.05C290.764 411.812 288.796 411.273 286.94 410.45H286.89C284.909 412.264 283.116 414.274 281.54 416.45C280.747 417.542 280.026 418.684 279.38 419.87C278.775 421.048 277.978 422.116 277.02 423.03C276.074 423.929 274.843 424.471 273.54 424.56C272.24 424.576 270.984 424.084 270.04 423.19C269.127 422.267 268.508 421.095 268.26 419.82C267.978 418.537 267.883 417.22 267.98 415.91L268.04 415.05L267.5 415.72C266.2 417.466 264.39 418.766 262.32 419.44C261.288 419.715 260.202 419.715 259.17 419.44C258.141 419.18 257.206 418.636 256.47 417.87C255.07 416.27 254.84 413.93 254.98 411.79C255.151 409.602 255.612 407.447 256.35 405.38L256.94 403.67L255.79 405.07C254.421 406.82 252.633 408.196 250.59 409.07C249.584 409.48 248.491 409.635 247.41 409.52C246.342 409.373 245.328 408.961 244.46 408.32C243.619 407.656 242.998 406.753 242.68 405.73C242.368 404.68 242.239 403.584 242.3 402.49C242.441 400.258 242.916 398.06 243.71 395.97C245.319 391.748 247.402 387.722 249.92 383.97C252.402 380.184 255.099 376.545 258 373.07L258.9 372L257.51 372.42C255.947 372.94 254.445 373.627 253.03 374.47C251.63 375.277 250.267 376.143 248.94 377.07C246.28 378.9 243.81 380.98 241.25 382.87C238.764 384.84 236.06 386.518 233.19 387.87C231.79 388.43 230.19 388.87 228.97 388.15C227.75 387.43 227.38 385.85 227.48 384.35C227.591 382.802 227.953 381.282 228.55 379.85C229.186 378.413 229.963 377.043 230.87 375.76C232.718 373.168 234.8 370.751 237.09 368.54C239.371 366.31 241.778 364.213 244.3 362.26C246.805 360.289 249.449 358.502 252.21 356.91L252.65 356.66L252.29 356.3C249.373 353.506 246.901 350.282 244.96 346.74C243.999 344.999 243.477 343.049 243.44 341.06C243.439 340.095 243.69 339.147 244.17 338.31C244.412 337.908 244.731 337.558 245.108 337.28C245.486 337.002 245.915 336.801 246.37 336.69C248.325 336.398 250.32 336.779 252.03 337.77C253.834 338.679 255.59 339.68 257.29 340.77C260.68 342.95 264 345.5 267.98 346.77C269.943 347.339 271.95 347.744 273.98 347.98C275.98 348.26 278.03 348.5 280.05 348.75C284.05 349.24 288.13 349.75 292.15 350.41C300.214 351.591 308.129 353.629 315.76 356.49C308.156 353.532 300.258 351.393 292.2 350.11C288.2 349.41 284.15 348.84 280.11 348.3L274.11 347.47C272.099 347.237 270.111 346.829 268.17 346.25C264.31 345.03 261.06 342.51 257.64 340.25C255.92 339.14 254.17 338.09 252.34 337.15C250.487 336.07 248.318 335.664 246.2 336C245.119 336.271 244.187 336.952 243.6 337.9C243.058 338.836 242.772 339.898 242.77 340.98C242.79 343.079 243.33 345.14 244.34 346.98C246.296 350.608 248.803 353.91 251.77 356.77L251.84 356.17C249.049 357.768 246.376 359.562 243.84 361.54C241.285 363.505 238.844 365.616 236.53 367.86C234.188 370.094 232.059 372.541 230.17 375.17C229.222 376.499 228.408 377.92 227.74 379.41C227.096 380.94 226.704 382.564 226.58 384.22C226.514 385.084 226.612 385.953 226.87 386.78C227.144 387.661 227.731 388.412 228.52 388.89C229.317 389.333 230.24 389.495 231.14 389.35C231.979 389.244 232.8 389.025 233.58 388.7C236.54 387.35 239.324 385.644 241.87 383.62C244.46 381.68 246.87 379.62 249.51 377.8C250.81 376.89 252.15 376.02 253.51 375.23C254.842 374.41 256.261 373.739 257.74 373.23L257.29 372.51C254.386 376.019 251.685 379.692 249.2 383.51C246.666 387.323 244.576 391.413 242.97 395.7C242.159 397.866 241.676 400.141 241.54 402.45C241.484 403.629 241.629 404.81 241.97 405.94C242.326 407.096 243.024 408.117 243.97 408.87C244.939 409.587 246.075 410.045 247.27 410.2C248.46 410.317 249.661 410.145 250.77 409.7C252.922 408.77 254.803 407.312 256.24 405.46L255.68 405.15C254.932 407.276 254.468 409.492 254.3 411.74C254.218 412.877 254.285 414.02 254.5 415.14C254.71 416.289 255.221 417.362 255.98 418.25C256.801 419.083 257.831 419.681 258.963 419.98C260.094 420.279 261.284 420.269 262.41 419.95C264.593 419.231 266.5 417.855 267.87 416.01L267.39 415.82C267.296 417.192 267.404 418.57 267.71 419.91C267.988 421.291 268.687 422.552 269.71 423.52C270.747 424.48 272.119 424.993 273.53 424.95C274.928 424.842 276.245 424.248 277.25 423.27C278.222 422.315 279.029 421.207 279.64 419.99C280.265 418.811 280.963 417.672 281.73 416.58C283.269 414.389 285.025 412.359 286.97 410.52H286.89C288.769 411.325 290.758 411.844 292.79 412.06C294.802 412.346 296.829 412.502 298.86 412.53Z" fill="#263238" />
  <path d="M412.69 322.58L371.52 337.41C371.52 337.41 361.78 308.41 361.11 290.01C360.44 271.61 371.38 273.47 383.78 286.46C396.18 299.45 412.69 322.58 412.69 322.58Z" fill="#407BFF" />
  <path d="M361.14 290.2C361.38 291.704 361.834 293.165 362.49 294.54C363.101 295.931 363.913 297.225 364.9 298.38C364.662 296.879 364.207 295.42 363.55 294.05C362.935 292.658 362.123 291.361 361.14 290.2ZM406.4 324.85L405.31 325.24C404.707 323.948 404.29 322.578 404.07 321.17C405.022 322.276 405.807 323.516 406.4 324.85ZM380.48 319.34C379.973 320.768 379.262 322.115 378.37 323.34C378.492 321.827 378.829 320.338 379.37 318.92C379.889 317.495 380.602 316.149 381.49 314.92C381.367 316.434 381.027 317.923 380.48 319.34ZM392.84 298.73C393.734 299.065 394.602 299.463 395.44 299.92L396.11 300.76C394.848 300.586 393.611 300.271 392.42 299.82C390.99 299.313 389.642 298.599 388.42 297.7C389.935 297.832 391.423 298.178 392.84 298.73Z" fill="white" />
  <path d="M371 329.23C377.23 326.55 394.36 319.8 406.09 316.94C406.16 316.94 406.26 317.19 406.2 317.22C396.83 321.14 377.6 327.54 371.2 329.64C371 329.68 370.84 329.28 371 329.23Z" fill="#263238" />
  <path d="M363 313.63C363 313.57 363.07 313.54 363.1 313.63C363.84 315.05 364.5 316.49 365.1 317.96C364.38 314.74 363.737 311.513 363.17 308.28C363.17 308.256 363.18 308.233 363.196 308.216C363.213 308.199 363.236 308.19 363.26 308.19C363.284 308.19 363.307 308.199 363.324 308.216C363.341 308.233 363.35 308.256 363.35 308.28C366.11 317.77 369.11 327.22 371.67 336.77C372.72 336.72 373.78 336.65 374.82 336.51C374.853 336.508 374.886 336.518 374.913 336.538C374.94 336.558 374.958 336.587 374.965 336.619C374.973 336.652 374.968 336.686 374.952 336.715C374.937 336.745 374.911 336.768 374.88 336.78C373.74 337.06 372.62 337.42 371.51 337.78C371.384 337.84 371.239 337.848 371.107 337.803C370.974 337.758 370.864 337.664 370.8 337.54C368.796 332.114 367.126 326.57 365.8 320.94C365.37 320.08 364.95 319.22 364.58 318.33C363.935 316.806 363.407 315.234 363 313.63Z" fill="#263238" />
  <path d="M360.73 278C360.53 280.23 352.24 295.7 342.32 296.65C339.09 296.96 336.64 279.39 336.64 279.39L336.16 278.13L329.5 260.55L348.87 243.8L351.69 241.55C351.69 241.55 353.2 246.48 355.01 252.64C355.1 252.92 355.19 253.21 355.27 253.51C355.35 253.81 355.5 254.19 355.58 254.51C355.87 255.43 356.15 256.37 356.42 257.31C356.62 258.02 356.82 258.71 357.01 259.47C357.2 260.23 357.4 260.96 357.61 261.72C359.49 269.2 360.79 277 360.73 278Z" fill="#FFC4C0" />
  <path d="M355 252.63C353.899 257.993 351.642 263.052 348.386 267.454C345.131 271.856 340.955 275.496 336.15 278.12L329.49 260.54L348.86 243.79L351.68 241.54C351.68 241.54 353.2 246.47 355 252.63Z" fill="#263238" />
  <path d="M300.61 235.06C302.31 268.06 322.24 270.72 329.34 270.34C335.79 270 357.71 268.03 359.43 235.07C361.15 202.11 345.28 192.49 330.49 192.49C315.7 192.49 298.91 202.11 300.61 235.06Z" fill="#FFC4C0" />
  <path d="M305 229.13C305.741 228.961 306.473 228.751 307.19 228.5C307.992 228.385 308.733 228.009 309.3 227.43C309.441 227.213 309.508 226.956 309.49 226.698C309.472 226.44 309.37 226.195 309.2 226C308.798 225.671 308.317 225.454 307.804 225.371C307.291 225.289 306.765 225.343 306.28 225.53C305.246 225.765 304.334 226.374 303.72 227.24C303.588 227.444 303.519 227.683 303.522 227.926C303.524 228.17 303.598 228.407 303.735 228.608C303.871 228.81 304.064 228.967 304.289 229.06C304.514 229.152 304.761 229.177 305 229.13Z" fill="#263238" />
  <path d="M326 227.73C325.23 227.73 324.51 227.53 323.75 227.42C322.938 227.426 322.146 227.162 321.5 226.67C321.327 226.476 321.224 226.231 321.205 225.972C321.187 225.713 321.256 225.456 321.4 225.24C321.746 224.854 322.189 224.568 322.684 224.411C323.178 224.255 323.705 224.234 324.21 224.35C325.269 224.43 326.262 224.896 327 225.66C327.156 225.846 327.256 226.073 327.286 226.314C327.316 226.555 327.276 226.8 327.17 227.019C327.064 227.237 326.898 227.421 326.69 227.547C326.483 227.673 326.243 227.737 326 227.73Z" fill="#263238" />
  <path d="M322.69 235.88C322.69 235.79 322.88 235.98 322.88 236.07C322.88 238.32 323.34 240.88 325.41 241.53C325.48 241.53 325.48 241.66 325.41 241.65C322.91 241.43 322.37 238 322.69 235.88Z" fill="#263238" />
  <path d="M324.58 233.44C328.18 232.98 328.82 240.2 325.49 240.63C322.16 241.06 321.57 233.82 324.58 233.44Z" fill="#263238" />
  <path d="M326 233.69C326.67 234.04 327.35 234.69 328.12 234.69C328.89 234.69 329.61 233.88 330.12 233.1C330.12 233.02 330.24 233.1 330.25 233.17C330.39 234.55 329.99 236.02 328.52 236.36C327.05 236.7 326.1 235.53 325.63 234.17C325.57 234 325.76 233.55 326 233.69Z" fill="#263238" />
  <path d="M310.42 236.5C310.42 236.42 310.26 236.62 310.27 236.72C310.56 238.94 310.52 241.55 308.56 242.49C308.5 242.49 308.56 242.63 308.56 242.61C311 242 311 238.57 310.42 236.5Z" fill="#263238" />
  <path d="M308.2 234.36C304.58 234.44 305 241.68 308.35 241.61C311.7 241.54 311.24 234.3 308.2 234.36Z" fill="#263238" />
  <path d="M306.72 234.92C306.17 235.34 305.64 236.07 304.96 236.16C304.28 236.25 303.54 235.51 302.96 234.78C302.9 234.71 302.85 234.78 302.85 234.87C302.9 236.25 303.44 237.67 304.78 237.87C306.12 238.07 306.83 236.8 307.08 235.4C307.16 235.13 306.94 234.76 306.72 234.92Z" fill="#263238" />
  <path d="M324.36 253.13C323.9 253.72 323.46 254.51 322.66 254.69C321.832 254.785 320.994 254.703 320.2 254.45C320.183 254.442 320.163 254.44 320.145 254.445C320.126 254.449 320.11 254.461 320.099 254.476C320.089 254.492 320.084 254.511 320.086 254.53C320.088 254.549 320.096 254.567 320.11 254.58C320.488 254.978 320.967 255.265 321.496 255.409C322.025 255.554 322.583 255.551 323.11 255.4C323.549 255.223 323.925 254.919 324.191 254.527C324.456 254.135 324.599 253.673 324.6 253.2C324.61 253.06 324.43 253 324.36 253.13Z" fill="#263238" />
  <path d="M314.81 246.84C314.81 246.84 314.61 250.22 314.73 251.84C314.73 251.98 320.59 252.72 322.8 248.64C322.826 248.607 322.839 248.565 322.834 248.522C322.829 248.48 322.808 248.442 322.775 248.415C322.742 248.388 322.699 248.376 322.657 248.381C322.615 248.386 322.576 248.407 322.55 248.44C320.643 249.972 318.294 250.848 315.85 250.94C315.71 250.51 316.39 245.16 316.14 245.16C314.922 245.362 313.738 245.728 312.62 246.25C312.84 239.19 314.18 232.25 314.29 225.2C314.286 225.152 314.265 225.106 314.232 225.07C314.199 225.034 314.155 225.011 314.107 225.003C314.059 224.995 314.01 225.003 313.967 225.026C313.924 225.049 313.89 225.086 313.87 225.13C311.95 232.33 311.52 240.44 311.11 247.72C311 248.59 314.2 247.15 314.81 246.84Z" fill="#263238" />
  <path d="M359.06 234.36C356.798 233.877 354.7 232.815 352.972 231.277C351.243 229.74 349.944 227.78 349.2 225.59C320.96 224.9 311.62 207.38 311.62 207.38C306.2 222.13 301.36 224.66 300.57 226.88C300.57 226.88 298.22 214.09 302.49 204.34C306.27 195.71 315.97 186.47 331.23 188.43C339.88 189.54 347.16 197.03 347.16 197.03C347.16 197.03 356.51 198.03 360.34 205.55C366.76 218.19 359.06 234.36 359.06 234.36Z" fill="#263238" />
  <path d="M311.19 206.26C312.218 209.938 314.15 213.3 316.81 216.04C319.471 218.796 322.644 221.007 326.15 222.55L328.83 223.55C329.74 223.86 330.67 224.05 331.59 224.3C333.431 224.782 335.307 225.116 337.2 225.3C339.09 225.47 340.99 225.44 342.88 225.51C344.76 225.34 346.64 225.21 348.51 225.01C346.62 224.95 344.75 225.01 342.88 224.95C341.02 224.76 339.15 224.69 337.31 224.43C333.629 223.941 330.03 222.959 326.61 221.51C323.206 220.063 320.098 218.002 317.44 215.43C314.733 212.849 312.603 209.724 311.19 206.26Z" fill="#263238" />
  <path d="M330.06 246.72C331.979 246.312 333.746 245.374 335.158 244.012C336.57 242.65 337.571 240.919 338.048 239.015C338.525 237.112 338.458 235.113 337.855 233.246C337.251 231.379 336.136 229.719 334.636 228.455C333.135 227.191 331.31 226.373 329.368 226.095C327.426 225.817 325.444 226.089 323.649 226.882C321.855 227.674 320.318 228.955 319.215 230.577C318.112 232.2 317.487 234.099 317.41 236.06C317.305 238.836 318.305 241.54 320.191 243.58C322.077 245.62 324.695 246.828 327.47 246.94C328.339 246.969 329.209 246.895 330.06 246.72ZM326 227.59C326.74 227.436 327.495 227.372 328.25 227.4C330.553 227.494 332.734 228.462 334.348 230.107C335.963 231.752 336.889 233.951 336.94 236.255C336.99 238.56 336.16 240.797 334.619 242.51C333.077 244.224 330.941 245.286 328.644 245.48C326.347 245.674 324.063 244.986 322.256 243.554C320.449 242.123 319.256 240.057 318.919 237.777C318.582 235.497 319.127 233.174 320.442 231.281C321.758 229.389 323.746 228.069 326 227.59Z" fill="#455A64" />
  <path d="M306.11 248.83C310.03 247.99 312.73 243.22 312.22 237.78C312.026 235.173 311.019 232.693 309.34 230.69C308.675 229.784 307.787 229.066 306.763 228.604C305.738 228.142 304.612 227.952 303.493 228.052C302.374 228.153 301.3 228.54 300.374 229.178C299.449 229.815 298.703 230.68 298.21 231.69C296.93 233.969 296.399 236.593 296.69 239.19C297.23 244.94 301.15 249.3 305.43 248.9C305.66 248.91 305.89 248.88 306.11 248.83ZM303.11 229.55C303.281 229.508 303.455 229.481 303.63 229.47C304.524 229.425 305.417 229.596 306.231 229.968C307.046 230.341 307.759 230.904 308.31 231.61C309.792 233.394 310.68 235.597 310.85 237.91C311.32 242.91 308.85 247.21 305.32 247.54C301.79 247.87 298.57 244.08 298.11 239.1C297.848 236.796 298.313 234.467 299.44 232.44C299.814 231.731 300.332 231.108 300.961 230.611C301.589 230.113 302.314 229.752 303.09 229.55H303.11Z" fill="#455A64" />
  <path d="M317.87 237.23L318.67 236.08C316.96 234.9 313.14 233.46 310.84 236.42L311.95 237.28C314 234.62 317.71 237.13 317.87 237.23Z" fill="#455A64" />
  <path d="M364.6 235.57L365.78 234.81C365.43 234.26 362.24 229.43 359.08 229.22C356.08 229.03 337.6 232.53 336.81 232.68L337.07 234.05C342.38 233.05 356.71 230.46 358.99 230.62C361.07 230.76 363.75 234.24 364.6 235.57Z" fill="#455A64" />
  <path d="M354.08 235.42C354.08 235.42 359.8 224.23 364.78 226.13C369.76 228.03 366.45 243.56 361.3 246.34C360.664 246.742 359.953 247.011 359.21 247.131C358.467 247.251 357.707 247.22 356.976 247.038C356.246 246.857 355.559 246.53 354.959 246.077C354.358 245.623 353.855 245.053 353.48 244.4L354.08 235.42Z" fill="#FFC4C0" />
  <path d="M363.72 230.56C363.81 230.56 363.84 230.66 363.77 230.7C360.17 232.77 358.66 236.58 357.77 240.44C358.71 238.87 360.14 237.89 362.22 238.97C362.242 238.984 362.258 239.006 362.267 239.03C362.276 239.055 362.276 239.082 362.268 239.106C362.26 239.131 362.244 239.153 362.223 239.168C362.202 239.183 362.176 239.191 362.15 239.19C361.45 239.069 360.729 239.169 360.088 239.475C359.446 239.781 358.916 240.279 358.57 240.9C357.999 241.938 357.54 243.035 357.2 244.17C357.07 244.54 356.43 244.44 356.5 244.03C356.505 244 356.505 243.97 356.5 243.94C355.74 239.09 358.57 231.77 363.72 230.56Z" fill="#263238" />
  <path d="M222.36 417.75C225.606 417.447 228.831 416.956 232.02 416.28C235.223 415.652 238.385 414.834 241.49 413.83C234.996 414.479 228.586 415.792 222.36 417.75Z" fill="#263238" />
  <path d="M194.54 409.22C194.93 405.39 195.02 401.56 195.04 397.73C195.068 393.891 194.902 390.052 194.54 386.23C194.179 390.052 194.012 393.891 194.04 397.73C194.06 401.56 194.15 405.39 194.54 409.22Z" fill="#263238" />
  <path d="M204.31 409.38C206.481 406.487 208.501 403.483 210.36 400.38C212.258 397.294 213.991 394.11 215.55 390.84C211.236 396.668 207.473 402.885 204.31 409.41V409.38Z" fill="#263238" />
  <path d="M239.35 391.7C237.13 393.41 234.98 395.2 232.84 397C230.7 398.8 228.61 400.64 226.52 402.5C224.43 404.36 222.37 406.24 220.35 408.17L217.35 411.06C216.35 412.06 215.35 413.06 214.35 414.06C215.46 413.21 216.54 412.32 217.63 411.45L220.85 408.76C222.99 406.97 225.08 405.12 227.17 403.26C229.26 401.4 231.32 399.52 233.34 397.59C235.36 395.66 237.4 393.72 239.35 391.7Z" fill="#263238" />
  <path d="M176.38 416C173.277 415.002 170.118 414.184 166.92 413.55C163.729 412.869 160.5 412.378 157.25 412.08C163.477 414.035 169.887 415.349 176.38 416Z" fill="#263238" />
  <path d="M161 389.74C162.94 391.74 165 393.69 167 395.61C169 397.53 171.1 399.41 173.17 401.28C175.24 403.15 177.35 404.99 179.5 406.78L182.71 409.47C183.81 410.34 184.88 411.23 186 412.08C185 411.08 184 410.08 183 409.08L180 406.19C178 404.26 175.9 402.39 173.83 400.52C171.76 398.65 169.65 396.81 167.5 395.02C165.35 393.23 163.21 391.45 161 389.74Z" fill="#263238" />
  <path d="M70.0703 408.08L67.2303 407.7L71.8303 296.65L104.82 250.18L107.28 252.2L74.4703 298.46L70.0703 408.08Z" fill="#263238" />
  <path d="M69.1201 297.56C69.1201 298.351 69.3547 299.124 69.7942 299.782C70.2338 300.44 70.8585 300.953 71.5894 301.256C72.3203 301.558 73.1245 301.637 73.9005 301.483C74.6764 301.329 75.3891 300.948 75.9485 300.388C76.5079 299.829 76.8889 299.116 77.0433 298.34C77.1976 297.564 77.1184 296.76 76.8156 296.029C76.5129 295.298 76.0002 294.674 75.3424 294.234C74.6846 293.795 73.9112 293.56 73.1201 293.56C72.0592 293.56 71.0418 293.981 70.2917 294.732C69.5415 295.482 69.1201 296.499 69.1201 297.56Z" fill="#407BFF" />
  <path d="M101.69 251.6C101.69 252.391 101.925 253.164 102.364 253.822C102.804 254.48 103.428 254.993 104.159 255.296C104.89 255.598 105.694 255.677 106.47 255.523C107.246 255.369 107.959 254.988 108.518 254.428C109.078 253.869 109.459 253.156 109.613 252.38C109.767 251.604 109.688 250.8 109.385 250.069C109.083 249.338 108.57 248.714 107.912 248.274C107.254 247.835 106.481 247.6 105.69 247.6C104.629 247.6 103.612 248.021 102.862 248.772C102.111 249.522 101.69 250.539 101.69 251.6Z" fill="#407BFF" />
  <path d="M133.11 253.17L117.56 276.94L107.28 267.57L101.02 261.86L112.69 244.06L120.43 247.51L133.11 253.17Z" fill="#407BFF" />
  <path opacity="0.1" d="M133.11 253.17L117.56 276.94L107.28 267.57L120.43 247.51L133.11 253.17Z" fill="black" />
  <path d="M161.85 259.36L134.72 300.8L108.81 276.42L129.14 245.36L161.85 259.36Z" fill="#407BFF" />
  <path d="M94.6001 417.76H45.6901L48.7001 402.4H91.6001L94.6001 417.76Z" fill="#407BFF" />
  <path d="M234.01 421.56H242.14V426.87H234.01V421.56Z" fill="#EBEBEB" />
  <path d="M223.47 421.21H231.6V426.52H223.47V421.21Z" fill="#EBEBEB" />
  <path d="M212.92 420.86H221.05V426.17H212.92V420.86Z" fill="#EBEBEB" />
  <path d="M202.38 420.51H210.51V425.82H202.38V420.51Z" fill="#EBEBEB" />
  <path d="M191.83 420.16H199.96V425.47H191.83V420.16Z" fill="#EBEBEB" />
  <path d="M181.29 419.81H189.42V425.12H181.29V419.81Z" fill="#EBEBEB" />
  <path d="M170.75 419.46H178.88V424.77H170.75V419.46Z" fill="#EBEBEB" />
  <path d="M160.2 419.11H168.33V424.42H160.2V419.11Z" fill="#EBEBEB" />
  <path d="M149.66 418.76H157.79V424.07H149.66V418.76Z" fill="#EBEBEB" />
  <path d="M147.67 429.93H244.13V423.46L147.67 420.77V429.93Z" fill="#DBDBDB" />
  <path d="M75.7299 407.56H210.13L188.76 307.5H54.3599L75.7299 407.56Z" fill="#EBEBEB" />
  <path d="M70.7597 407.56H205.16L183.79 307.5H49.3897L70.7597 407.56Z" fill="#DBDBDB" />
  <path d="M118.753 357.348C115.106 353.979 114.484 348.722 117.362 345.606C120.241 342.491 125.531 342.697 129.177 346.067C132.824 349.437 133.446 354.694 130.568 357.809C127.689 360.924 122.399 360.718 118.753 357.348Z" fill="white" />
  <path d="M108.77 433.69H174.87V428.55L108.77 426.42V433.69Z" fill="#EBEBEB" />
  <path d="M90.7999 433.68H126.29L147.67 377.61H112.18L90.7999 433.68Z" fill="#EBEBEB" />
  <path d="M84.9598 433.68H120.45L141.82 377.61H106.33L84.9598 433.68Z" fill="#A6A6A6" />
  <path d="M253 435.05H321.11C326.92 435.05 318.51 418.49 297.28 412.14C276.05 405.79 246.26 428.84 253 435.05Z" fill="#DBDBDB" />
  <path d="M279.7 435.05C279.645 433.163 279.332 431.292 278.77 429.49C278.217 427.673 277.445 425.93 276.47 424.3C275.499 422.66 274.281 421.18 272.86 419.91C271.454 418.634 269.832 417.618 268.07 416.91C268.8 417.51 269.63 417.91 270.3 418.58L271.3 419.47L272.3 420.47C273.563 421.788 274.671 423.248 275.6 424.82C276.543 426.392 277.353 428.042 278.02 429.75C278.698 431.477 279.259 433.248 279.7 435.05Z" fill="#263238" />
  <path d="M271.62 419.29C269.602 419.941 267.637 420.743 265.74 421.69C263.831 422.633 261.999 423.723 260.26 424.95C258.495 426.169 256.898 427.615 255.51 429.25C254.828 430.088 254.238 430.997 253.75 431.96C253.282 432.927 253.013 433.977 252.96 435.05C253.199 434.034 253.612 433.066 254.18 432.19C254.73 431.316 255.371 430.502 256.09 429.76C257.547 428.284 259.137 426.945 260.84 425.76C262.53 424.54 264.32 423.45 266.11 422.37C267.01 421.83 267.92 421.31 268.85 420.81C269.78 420.31 270.69 419.8 271.62 419.29Z" fill="#263238" />
  <path opacity="0.6" d="M379.4 401.61C379.4 401.61 355.1 390.41 355.1 375.4C355.1 360.39 386.62 350.73 386.62 339C386.62 327.27 372.87 320.36 372.87 320.36C372.87 320.36 394.59 327.78 394.59 342.62C394.59 357.46 373.81 367.51 371.82 376.96C369.06 390.07 379.4 401.61 379.4 401.61Z" fill="#DBDBDB" />
  <path opacity="0.6" d="M378.2 401.61C378.2 401.61 402.51 392.81 402.51 381.01C402.51 369.21 371 361.61 371 352.38C371 343.15 384.74 337.73 384.74 337.73C384.74 337.73 363 343.56 363 355.23C363 366.9 386.86 374.92 388.57 384.4C390.26 393.69 378.2 401.61 378.2 401.61Z" fill="#DBDBDB" />
  <path d="M367.59 439.36H390.71V442.97H367.59V439.36Z" fill="#455A64" />
  <path d="M367.59 439.36H390.71V441.74H367.59V439.36Z" fill="#263238" />
  <path d="M418.15 429.65C416.747 431.729 414.775 433.359 412.469 434.347C410.164 435.335 407.623 435.638 405.15 435.22C404.35 435.073 403.566 434.849 402.81 434.55C401.66 434.1 400.563 433.523 399.54 432.83L402.48 428.47C403.022 428.86 403.601 429.195 404.21 429.47C409.72 431.97 413.21 427.62 413.89 426.63C417 422.17 418.17 412 415 408.08C414.79 407.79 413.86 407.33 410.14 408.13C409.45 408.28 408.67 408.45 407.79 408.7C407.107 408.932 406.399 409.083 405.68 409.15L405.58 406.54L405.33 403.93C405.57 403.93 405.94 403.78 406.43 403.64C408.151 403.136 409.91 402.771 411.69 402.55C414.43 402.26 417.3 402.55 419.06 404.76C424.24 411.15 422.12 424.07 418.15 429.65Z" fill="#455A64" />
  <path d="M402.46 428.47C403.002 428.86 403.581 429.195 404.19 429.47L402.79 434.56C401.64 434.11 400.543 433.533 399.52 432.84L402.46 428.47Z" fill="#263238" />
  <path d="M411.65 402.55L410.1 408.13C409.41 408.28 408.63 408.45 407.75 408.7C407.067 408.932 406.358 409.083 405.64 409.15L405.54 406.54L405.29 403.93C405.53 403.93 405.9 403.78 406.39 403.64C408.111 403.136 409.87 402.771 411.65 402.55Z" fill="#263238" />
  <path d="M348.39 395.73C348.39 395.73 351.17 419.29 355.96 429.22C360.75 439.15 367.43 440.22 371.59 440.22H386.71C390.86 440.22 397.55 439.11 402.34 429.22C407.13 419.33 409.9 395.73 409.9 395.73H348.39Z" fill="#455A64" />
  <path d="M399.86 402.46C399.86 403 400.02 403.528 400.32 403.977C400.62 404.426 401.046 404.776 401.545 404.982C402.044 405.189 402.593 405.243 403.122 405.138C403.652 405.032 404.138 404.772 404.52 404.39C404.902 404.009 405.162 403.522 405.267 402.993C405.373 402.463 405.319 401.914 405.112 401.415C404.905 400.916 404.555 400.49 404.107 400.19C403.658 399.89 403.13 399.73 402.59 399.73C402.231 399.73 401.876 399.801 401.545 399.938C401.214 400.075 400.913 400.276 400.659 400.53C400.406 400.783 400.205 401.084 400.068 401.415C399.93 401.747 399.86 402.101 399.86 402.46ZM378.49 399.16C379.03 399.16 379.558 399.32 380.007 399.62C380.455 399.92 380.805 400.346 381.012 400.845C381.219 401.344 381.273 401.893 381.167 402.423C381.062 402.952 380.802 403.439 380.42 403.82C380.038 404.202 379.552 404.462 379.022 404.568C378.493 404.673 377.944 404.619 377.445 404.412C376.946 404.206 376.52 403.856 376.22 403.407C375.92 402.958 375.76 402.43 375.76 401.89C375.76 401.166 376.047 400.472 376.559 399.96C377.071 399.448 377.766 399.16 378.49 399.16ZM378.49 433.45C379.03 433.45 379.558 433.61 380.007 433.91C380.455 434.21 380.805 434.636 381.012 435.135C381.219 435.634 381.273 436.183 381.167 436.713C381.062 437.242 380.802 437.729 380.42 438.11C380.038 438.492 379.552 438.752 379.022 438.858C378.493 438.963 377.944 438.909 377.445 438.702C376.946 438.496 376.52 438.146 376.22 437.697C375.92 437.248 375.76 436.72 375.76 436.18C375.76 435.456 376.047 434.762 376.559 434.25C377.071 433.738 377.766 433.45 378.49 433.45ZM358.69 418C359.23 418 359.758 418.16 360.207 418.46C360.655 418.76 361.005 419.186 361.212 419.685C361.419 420.184 361.473 420.733 361.367 421.263C361.262 421.792 361.002 422.279 360.62 422.66C360.238 423.042 359.752 423.302 359.222 423.408C358.693 423.513 358.144 423.459 357.645 423.252C357.146 423.046 356.72 422.696 356.42 422.247C356.12 421.798 355.96 421.27 355.96 420.73C355.96 420.006 356.247 419.312 356.759 418.8C357.271 418.288 357.966 418 358.69 418ZM389 426.05C389.54 426.05 390.068 426.21 390.517 426.51C390.965 426.81 391.315 427.236 391.522 427.735C391.729 428.234 391.783 428.783 391.677 429.313C391.572 429.842 391.312 430.329 390.93 430.71C390.548 431.092 390.062 431.352 389.532 431.458C389.003 431.563 388.454 431.509 387.955 431.302C387.456 431.096 387.03 430.746 386.73 430.297C386.43 429.848 386.27 429.32 386.27 428.78C386.27 428.056 386.557 427.362 387.069 426.85C387.581 426.338 388.276 426.05 389 426.05ZM357 399.16C357.54 399.16 358.068 399.32 358.517 399.62C358.965 399.92 359.315 400.346 359.522 400.845C359.729 401.344 359.783 401.893 359.677 402.423C359.572 402.952 359.312 403.439 358.93 403.82C358.548 404.202 358.062 404.462 357.532 404.568C357.003 404.673 356.454 404.619 355.955 404.412C355.456 404.206 355.03 403.856 354.73 403.407C354.43 402.958 354.27 402.43 354.27 401.89C354.27 401.166 354.557 400.472 355.069 399.96C355.581 399.448 356.276 399.16 357 399.16ZM378.85 417.56C379.39 417.56 379.918 417.72 380.367 418.02C380.815 418.32 381.165 418.746 381.372 419.245C381.579 419.744 381.633 420.293 381.527 420.823C381.422 421.352 381.162 421.839 380.78 422.22C380.398 422.602 379.912 422.862 379.382 422.968C378.853 423.073 378.304 423.019 377.805 422.812C377.306 422.606 376.88 422.256 376.58 421.807C376.28 421.358 376.12 420.83 376.12 420.29C376.12 419.571 376.403 418.881 376.909 418.37C377.414 417.859 378.101 417.568 378.82 417.56H378.85ZM399.55 417.99C400.09 417.99 400.618 418.15 401.067 418.45C401.515 418.75 401.865 419.176 402.072 419.675C402.279 420.174 402.333 420.723 402.227 421.253C402.122 421.782 401.862 422.269 401.48 422.65C401.098 423.032 400.612 423.292 400.082 423.398C399.553 423.503 399.004 423.449 398.505 423.242C398.006 423.036 397.58 422.686 397.28 422.237C396.98 421.788 396.82 421.26 396.82 420.72C396.822 420.003 397.107 419.316 397.612 418.807C398.118 418.298 398.803 418.008 399.52 418L399.55 417.99ZM367.62 408.85C368.16 408.85 368.688 409.01 369.137 409.31C369.585 409.61 369.935 410.036 370.142 410.535C370.349 411.034 370.403 411.583 370.297 412.113C370.192 412.642 369.932 413.129 369.55 413.51C369.168 413.892 368.682 414.152 368.152 414.258C367.623 414.363 367.074 414.309 366.575 414.102C366.076 413.896 365.65 413.546 365.35 413.097C365.05 412.648 364.89 412.12 364.89 411.58C364.89 410.861 365.173 410.171 365.679 409.66C366.184 409.149 366.871 408.858 367.59 408.85H367.62ZM368.36 426.5C368.9 426.498 369.429 426.656 369.879 426.955C370.33 427.254 370.681 427.68 370.889 428.178C371.097 428.677 371.153 429.226 371.049 429.756C370.944 430.287 370.685 430.774 370.304 431.157C369.922 431.54 369.436 431.801 368.906 431.907C368.376 432.013 367.827 431.959 367.327 431.753C366.828 431.547 366.401 431.197 366.101 430.748C365.8 430.299 365.64 429.77 365.64 429.23C365.64 428.513 365.922 427.824 366.425 427.314C366.929 426.803 367.613 426.511 368.33 426.5H368.36ZM390.36 408.85C390.9 408.848 391.429 409.006 391.879 409.305C392.33 409.604 392.681 410.03 392.889 410.528C393.097 411.027 393.153 411.576 393.049 412.106C392.944 412.637 392.685 413.124 392.304 413.507C391.922 413.89 391.436 414.151 390.906 414.257C390.376 414.363 389.827 414.309 389.327 414.103C388.828 413.897 388.401 413.547 388.101 413.098C387.8 412.649 387.64 412.12 387.64 411.58C387.64 410.865 387.92 410.178 388.422 409.667C388.923 409.156 389.604 408.863 390.32 408.85H390.36Z" fill="#37474F" />
</svg>
